<svg fill="none" xmlns="http://www.w3.org/2000/svg" viewBox="0 0 550 159"><path d="M319.641 142.617c0-1.38.2-2.672.601-3.875.406-1.203.99-2.258 1.75-3.164h1.266a11.107 11.107 0 00-1.696 3.313 12.43 12.43 0 00-.562 3.711c0 1.25.193 2.471.578 3.664a11.39 11.39 0 001.664 3.265h-1.25a9.213 9.213 0 01-1.75-3.101c-.401-1.183-.601-2.453-.601-3.813zm12.382-2.164c0 4.469-1.729 6.703-5.187 6.703-.604 0-1.083-.052-1.438-.156v-1.117a4.61 4.61 0 001.422.203c1.25 0 2.193-.385 2.828-1.156.641-.776.99-1.964 1.047-3.563h-.093a2.814 2.814 0 01-1.141.992 3.704 3.704 0 01-1.602.336c-1.01 0-1.812-.302-2.406-.906-.594-.604-.891-1.448-.891-2.531 0-1.188.331-2.125.993-2.813.666-.687 1.541-1.031 2.625-1.031.776 0 1.453.201 2.031.602.583.395 1.031.976 1.344 1.742.312.76.468 1.659.468 2.695zm-3.843-3.93c-.745 0-1.321.24-1.727.719-.406.479-.609 1.146-.609 2 0 .75.187 1.341.562 1.774.375.427.946.64 1.711.64.474 0 .909-.096 1.305-.289a2.36 2.36 0 00.945-.789 1.82 1.82 0 00.344-1.047c0-.547-.107-1.052-.32-1.515a2.632 2.632 0 00-.899-1.094 2.232 2.232 0 00-1.312-.399zm9.062 3.5c1.203 0 2.149.3 2.836.899.693.594 1.039 1.409 1.039 2.445 0 1.182-.377 2.11-1.133 2.781-.75.672-1.786 1.008-3.109 1.008-1.286 0-2.268-.205-2.945-.617v-1.25c.364.234.817.419 1.359.555.542.13 1.076.195 1.602.195.916 0 1.627-.216 2.132-.648.511-.433.766-1.058.766-1.875 0-1.594-.977-2.391-2.93-2.391-.494 0-1.156.076-1.984.227l-.672-.43.43-5.344h5.679v1.195h-4.57l-.289 3.43a9.086 9.086 0 011.789-.18zm6.696-1.039c0 .886.096 1.55.289 1.993.192.442.505.664.937.664.854 0 1.281-.886 1.281-2.657 0-1.76-.427-2.64-1.281-2.64-.432 0-.745.218-.937.656-.193.438-.289 1.099-.289 1.984zm3.578 0c0 1.188-.201 2.086-.602 2.696-.396.604-.979.906-1.75.906-.729 0-1.297-.31-1.703-.93-.401-.62-.602-1.51-.602-2.672 0-1.182.193-2.073.579-2.672.39-.598.966-.898 1.726-.898.755 0 1.336.31 1.742.93.406.62.61 1.5.61 2.64zm3.296 4.578c0 .891.097 1.558.29 2 .192.438.507.657.945.657.437 0 .76-.216.969-.649.208-.437.312-1.106.312-2.008 0-.89-.104-1.549-.312-1.976-.209-.432-.532-.648-.969-.648-.438 0-.753.216-.945.648-.193.427-.29 1.086-.29 1.976zm3.586 0c0 1.183-.2 2.079-.601 2.688-.396.604-.979.906-1.75.906-.74 0-1.31-.31-1.711-.929-.396-.62-.594-1.508-.594-2.665 0-1.182.193-2.072.578-2.671.391-.599.966-.899 1.727-.899.739 0 1.315.307 1.726.922.417.609.625 1.492.625 2.648zm-2.015-7.984L346.047 147h-1.149l6.336-11.422h1.149zm13.453 1.024c-1.255 0-2.247.419-2.977 1.257-.724.834-1.086 1.977-1.086 3.43 0 1.495.349 2.651 1.047 3.469.703.812 1.703 1.219 3 1.219.797 0 1.706-.144 2.727-.43v1.164c-.792.297-1.768.445-2.93.445-1.682 0-2.982-.51-3.898-1.531-.912-1.021-1.367-2.471-1.367-4.352 0-1.177.218-2.208.656-3.093a4.768 4.768 0 011.906-2.047c.833-.479 1.813-.719 2.938-.719 1.197 0 2.244.219 3.14.656l-.562 1.141c-.865-.406-1.729-.609-2.594-.609zM371.039 147v-11.422h1.328V147h-1.328zm5.633-1.859l.117.179a19.16 19.16 0 01-.586 1.813 25.2 25.2 0 01-.797 1.929h-.976c.14-.541.294-1.21.461-2.007a29.19 29.19 0 00.359-1.914h1.422zm13.633-4.688c0 4.469-1.729 6.703-5.188 6.703-.604 0-1.083-.052-1.437-.156v-1.117a4.6 4.6 0 001.422.203c1.25 0 2.192-.385 2.828-1.156.64-.776.989-1.964 1.047-3.563h-.094a2.814 2.814 0 01-1.141.992 3.703 3.703 0 01-1.601.336c-1.011 0-1.813-.302-2.407-.906-.593-.604-.89-1.448-.89-2.531 0-1.188.33-2.125.992-2.813.667-.687 1.542-1.031 2.625-1.031.776 0 1.453.201 2.031.602.584.395 1.031.976 1.344 1.742.312.76.469 1.659.469 2.695zm-3.844-3.93c-.745 0-1.32.24-1.727.719-.406.479-.609 1.146-.609 2 0 .75.187 1.341.563 1.774.374.427.945.64 1.71.64.474 0 .909-.096 1.305-.289a2.36 2.36 0 00.945-.789c.23-.333.344-.682.344-1.047 0-.547-.107-1.052-.32-1.515a2.632 2.632 0 00-.899-1.094 2.23 2.23 0 00-1.312-.399zm5.898 9.649c0-.349.079-.612.235-.789.161-.182.39-.274.687-.274.302 0 .537.092.703.274.172.177.258.44.258.789 0 .338-.086.599-.258.781-.172.182-.406.274-.703.274a.947.947 0 01-.664-.243c-.172-.166-.258-.437-.258-.812zm8.664.828h-1.265v-8.141c0-.677.021-1.317.062-1.921a8.077 8.077 0 01-.367.343c-.135.12-.755.628-1.859 1.524l-.688-.891 3.024-2.336h1.093V147zm4.227-3.695v-1.188h3.836v1.188h-3.836zM418.039 147h-7.508v-1.117l3.008-3.024c.917-.927 1.521-1.588 1.813-1.984.291-.396.51-.781.656-1.156a3.31 3.31 0 00.219-1.211c0-.61-.185-1.091-.555-1.446-.37-.359-.883-.539-1.539-.539a3.91 3.91 0 00-1.352.235c-.422.156-.893.44-1.414.851l-.687-.882c1.052-.875 2.198-1.313 3.437-1.313 1.073 0 1.914.276 2.524.828.609.547.914 1.284.914 2.211 0 .724-.203 1.44-.61 2.149-.406.708-1.166 1.604-2.281 2.687l-2.5 2.445v.063h5.875V147zm9.156 0h-7.507v-1.117l3.007-3.024c.917-.927 1.521-1.588 1.813-1.984.291-.396.51-.781.656-1.156a3.31 3.31 0 00.219-1.211c0-.61-.185-1.091-.555-1.446-.37-.359-.883-.539-1.539-.539-.474 0-.924.079-1.351.235-.422.156-.894.44-1.415.851l-.687-.882c1.052-.875 2.198-1.313 3.437-1.313 1.073 0 1.915.276 2.524.828.609.547.914 1.284.914 2.211 0 .724-.203 1.44-.609 2.149-.407.708-1.167 1.604-2.282 2.687l-2.5 2.445v.063h5.875V147zm2.055-.828c0-.349.078-.612.234-.789.162-.182.391-.274.688-.274.302 0 .536.092.703.274.172.177.258.44.258.789 0 .338-.086.599-.258.781-.172.182-.406.274-.703.274a.946.946 0 01-.664-.243c-.172-.166-.258-.437-.258-.812zm5.305.828l4.734-10.227h-6.227v-1.195h7.602v1.039L435.992 147h-1.437zm9.664-1.859l.117.179a19.16 19.16 0 01-.586 1.813 25.2 25.2 0 01-.797 1.929h-.976c.14-.541.294-1.21.461-2.007a29.19 29.19 0 00.359-1.914h1.422zm-1.586-5.868c0-.703.31-1.054.929-1.054.641 0 .961.351.961 1.054 0 .339-.085.599-.257.782-.172.182-.407.273-.704.273-.302 0-.533-.091-.695-.273-.156-.183-.234-.443-.234-.782zM457.141 147v-5.539c0-.698-.159-1.219-.477-1.563-.318-.343-.815-.515-1.492-.515-.896 0-1.552.242-1.969.726-.417.485-.625 1.284-.625 2.399V147h-1.297v-8.562h1.055l.211 1.171h.062a2.625 2.625 0 011.118-.976 3.587 3.587 0 011.601-.352c1.031 0 1.807.25 2.328.75.521.495.782 1.289.782 2.383V147h-1.297zm7.679-6.703v-1.07h7.266v1.07h-7.266zm0 3.195v-1.07h7.266v1.07h-7.266zM482.789 147h-1.266v-8.141c0-.677.021-1.317.063-1.921a8.645 8.645 0 01-.367.343c-.136.12-.755.628-1.86 1.524l-.687-.891 3.023-2.336h1.094V147zm8.133-11.586c1.042 0 1.867.242 2.476.727.61.484.914 1.153.914 2.007 0 .563-.174 1.076-.523 1.54-.349.463-.906.885-1.672 1.265.927.443 1.586.909 1.977 1.399a2.61 2.61 0 01.586 1.687c0 .948-.331 1.706-.992 2.273-.662.563-1.568.844-2.719.844-1.219 0-2.157-.265-2.813-.797-.656-.536-.984-1.294-.984-2.273 0-1.307.797-2.326 2.39-3.055-.718-.406-1.234-.843-1.546-1.312a2.816 2.816 0 01-.469-1.586c0-.828.305-1.487.914-1.977.615-.495 1.435-.742 2.461-.742zm-2.469 8.703c0 .625.216 1.112.649 1.461.437.349 1.049.524 1.836.524.776 0 1.38-.183 1.812-.547.432-.365.648-.865.648-1.5 0-.506-.203-.953-.609-1.344-.406-.396-1.115-.779-2.125-1.149-.776.334-1.338.704-1.687 1.11-.349.401-.524.883-.524 1.445zm2.453-7.648c-.651 0-1.161.156-1.531.469-.37.312-.555.729-.555 1.25 0 .479.154.89.461 1.234.308.344.875.687 1.703 1.031.745-.312 1.271-.648 1.578-1.008.313-.359.469-.778.469-1.257 0-.527-.19-.943-.57-1.25-.375-.313-.893-.469-1.555-.469zm8.703 6.148c0 1.37-.203 2.646-.609 3.828-.401 1.183-.982 2.211-1.742 3.086h-1.25a11.273 11.273 0 001.664-3.258 11.92 11.92 0 00.578-3.671c0-1.271-.19-2.508-.57-3.711a10.948 10.948 0 00-1.688-3.313h1.266a9.588 9.588 0 011.75 3.18c.401 1.203.601 2.489.601 3.859zM360.135 121.305h-5.893V105.17l.057-2.651.095-2.9c-.979.98-1.659 1.622-2.04 1.927l-3.204 2.575-2.842-3.548 8.983-7.152h4.844v27.884zm17.89-17.814c2.695 0 4.838.757 6.427 2.27 1.602 1.513 2.403 3.586 2.403 6.218 0 3.115-.96 5.512-2.88 7.19-1.919 1.678-4.666 2.517-8.239 2.517-3.102 0-5.607-.502-7.514-1.506v-5.093c1.004.534 2.174.973 3.509 1.316 1.335.331 2.6.496 3.795.496 3.599 0 5.398-1.475 5.398-4.424 0-2.81-1.863-4.215-5.588-4.215-.674 0-1.418.069-2.232.209-.813.128-1.475.267-1.983.42l-2.346-1.259 1.049-14.209h15.124v4.997h-9.956l-.515 5.474.668-.133c.776-.179 1.736-.268 2.88-.268zm12.836 15.087c0-1.068.286-1.876.858-2.423.572-.546 1.405-.82 2.498-.82 1.056 0 1.869.28 2.442.84.584.559.877 1.36.877 2.403 0 1.004-.293 1.799-.877 2.384-.585.572-1.399.858-2.442.858-1.068 0-1.894-.28-2.479-.839-.585-.572-.877-1.373-.877-2.403zm29.81-11.215c0 4.87-.802 8.475-2.404 10.814-1.589 2.34-4.043 3.509-7.361 3.509-3.217 0-5.646-1.207-7.286-3.623-1.628-2.416-2.441-5.983-2.441-10.7 0-4.92.794-8.544 2.384-10.871 1.589-2.34 4.037-3.51 7.343-3.51 3.216 0 5.645 1.221 7.285 3.663 1.653 2.44 2.48 6.014 2.48 10.718zm-13.637 0c0 3.42.292 5.874.877 7.362.598 1.475 1.596 2.212 2.995 2.212 1.373 0 2.364-.75 2.975-2.25.61-1.5.915-3.942.915-7.324 0-3.42-.311-5.874-.934-7.362-.611-1.5-1.596-2.25-2.956-2.25-1.386 0-2.378.75-2.976 2.25-.597 1.488-.896 3.942-.896 7.362zM430.097 98.65c0 1.729.188 3.026.565 3.89.376.865.986 1.297 1.831 1.297 1.668 0 2.502-1.729 2.502-5.188 0-3.438-.834-5.157-2.502-5.157-.845 0-1.455.427-1.831 1.282-.377.854-.565 2.146-.565 3.876zm6.989 0c0 2.319-.392 4.074-1.175 5.264-.773 1.18-1.913 1.77-3.418 1.77-1.424 0-2.533-.605-3.327-1.816-.783-1.211-1.175-2.95-1.175-5.218 0-2.31.377-4.05 1.13-5.219.762-1.17 1.887-1.755 3.372-1.755 1.475 0 2.609.605 3.402 1.816.794 1.21 1.191 2.93 1.191 5.157zm6.439 8.941c0 1.74.188 3.042.564 3.906.377.855.992 1.282 1.847 1.282.854 0 1.485-.422 1.892-1.266.407-.855.61-2.162.61-3.922 0-1.739-.203-3.026-.61-3.86-.407-.845-1.038-1.267-1.892-1.267-.855 0-1.47.422-1.847 1.267-.376.834-.564 2.121-.564 3.86zm7.004 0c0 2.309-.392 4.059-1.175 5.249-.773 1.18-1.913 1.77-3.418 1.77-1.445 0-2.559-.605-3.342-1.816-.773-1.21-1.16-2.945-1.16-5.203 0-2.309.377-4.049 1.13-5.218.762-1.17 1.887-1.755 3.372-1.755 1.444 0 2.568.6 3.372 1.8.814 1.191 1.221 2.915 1.221 5.173zm-3.937-15.594l-12.375 22.308h-2.243l12.375-22.308h2.243zM505.575 134.305h-.81v-5.21c0-.433.013-.843.04-1.23a5.3 5.3 0 01-.235.22c-.087.077-.483.402-1.19.975l-.44-.57 1.935-1.495h.7v7.31zm4.035-1.19l.075.115c-.087.333-.212.72-.375 1.16-.163.443-.333.855-.51 1.235h-.625c.09-.347.188-.775.295-1.285.11-.51.187-.918.23-1.225h.91zm6.065 1.19h-4.805v-.715l1.925-1.935c.587-.593.973-1.017 1.16-1.27.187-.253.327-.5.42-.74.093-.24.14-.498.14-.775 0-.39-.118-.698-.355-.925-.237-.23-.565-.345-.985-.345-.303 0-.592.05-.865.15-.27.1-.572.282-.905.545l-.44-.565c.673-.56 1.407-.84 2.2-.84.687 0 1.225.177 1.615.53.39.35.585.822.585 1.415 0 .463-.13.922-.39 1.375-.26.453-.747 1.027-1.46 1.72l-1.6 1.565v.04h3.76v.77zM465.847 120.188c0 1.445-.495 2.558-1.484 3.34-.983.774-2.393 1.162-4.229 1.162h-1.679v5.615h-1.661v-14.277h3.702c3.567 0 5.351 1.386 5.351 4.16zm-7.392 3.076h1.494c1.471 0 2.535-.238 3.193-.713.658-.475.986-1.237.986-2.285 0-.944-.309-1.647-.927-2.109-.619-.463-1.582-.694-2.891-.694h-1.855v5.801zm12.05 1.103v5.938h-1.66v-14.277h3.916c1.751 0 3.044.335 3.877 1.006.84.67 1.26 1.679 1.26 3.027 0 1.888-.957 3.164-2.871 3.828l3.877 6.416h-1.963l-3.457-5.938h-2.979zm0-1.425h2.276c1.172 0 2.031-.231 2.578-.694.547-.468.82-1.168.82-2.099 0-.944-.28-1.625-.84-2.041-.553-.417-1.445-.625-2.675-.625h-2.159v5.459zM319.641 63.617c0-1.38.2-2.672.601-3.875.406-1.203.99-2.258 1.75-3.164h1.266a11.105 11.105 0 00-1.696 3.313A12.431 12.431 0 00321 63.6c0 1.25.193 2.472.578 3.665.386 1.192.94 2.28 1.664 3.265h-1.25a9.216 9.216 0 01-1.75-3.101c-.401-1.183-.601-2.453-.601-3.813zm12.382-2.164c0 4.469-1.729 6.703-5.187 6.703-.604 0-1.083-.052-1.438-.156v-1.117c.417.135.891.203 1.422.203 1.25 0 2.193-.385 2.828-1.156.641-.776.99-1.964 1.047-3.563h-.093a2.813 2.813 0 01-1.141.992 3.706 3.706 0 01-1.602.336c-1.01 0-1.812-.302-2.406-.906-.594-.604-.891-1.448-.891-2.531 0-1.188.331-2.125.993-2.813.666-.687 1.541-1.03 2.625-1.03.776 0 1.453.2 2.031.6.583.396 1.031.977 1.344 1.743.312.76.468 1.659.468 2.695zm-3.843-3.93c-.745 0-1.321.24-1.727.72-.406.478-.609 1.145-.609 2 0 .75.187 1.34.562 1.773.375.427.946.64 1.711.64.474 0 .909-.096 1.305-.289.401-.192.716-.456.945-.789.229-.333.344-.682.344-1.047 0-.547-.107-1.052-.32-1.515a2.631 2.631 0 00-.899-1.094 2.234 2.234 0 00-1.312-.399zm9.062 3.5c1.203 0 2.149.3 2.836.899.693.594 1.039 1.409 1.039 2.445 0 1.182-.377 2.11-1.133 2.781-.75.672-1.786 1.008-3.109 1.008-1.286 0-2.268-.206-2.945-.617v-1.25c.364.234.817.42 1.359.555.542.13 1.076.195 1.602.195.916 0 1.627-.216 2.132-.648.511-.433.766-1.058.766-1.875 0-1.594-.977-2.391-2.93-2.391-.494 0-1.156.075-1.984.227l-.672-.43.43-5.344h5.679v1.195h-4.57l-.289 3.43a9.1 9.1 0 011.789-.18zm6.696-1.039c0 .886.096 1.55.289 1.993.192.442.505.664.937.664.854 0 1.281-.886 1.281-2.657 0-1.76-.427-2.64-1.281-2.64-.432 0-.745.218-.937.656-.193.438-.289 1.099-.289 1.984zm3.578 0c0 1.188-.201 2.086-.602 2.696-.396.604-.979.906-1.75.906-.729 0-1.297-.31-1.703-.93-.401-.62-.602-1.51-.602-2.672 0-1.182.193-2.073.579-2.672.39-.598.966-.898 1.726-.898.755 0 1.336.31 1.742.93.406.62.61 1.5.61 2.64zm3.296 4.578c0 .891.097 1.558.29 2 .192.438.507.657.945.657.437 0 .76-.216.969-.649.208-.437.312-1.106.312-2.007 0-.891-.104-1.55-.312-1.977-.209-.432-.532-.648-.969-.648-.438 0-.753.216-.945.648-.193.427-.29 1.086-.29 1.977zm3.586 0c0 1.183-.2 2.079-.601 2.688-.396.604-.979.906-1.75.906-.74 0-1.31-.31-1.711-.93-.396-.62-.594-1.507-.594-2.663 0-1.183.193-2.073.578-2.672.391-.6.966-.899 1.727-.899.739 0 1.315.308 1.726.922.417.61.625 1.492.625 2.648zm-2.015-7.984L346.047 68h-1.149l6.336-11.422h1.149zm13.453 1.024c-1.255 0-2.247.419-2.977 1.257-.724.834-1.086 1.977-1.086 3.43 0 1.495.349 2.651 1.047 3.469.703.812 1.703 1.219 3 1.219.797 0 1.706-.144 2.727-.43v1.164c-.792.297-1.768.445-2.93.445-1.682 0-2.982-.51-3.898-1.531-.912-1.02-1.367-2.471-1.367-4.352 0-1.177.218-2.208.656-3.093a4.773 4.773 0 011.906-2.047c.833-.48 1.813-.719 2.938-.719 1.197 0 2.244.219 3.14.656l-.562 1.14c-.865-.405-1.729-.608-2.594-.608zM371.039 68V56.578h1.328V68h-1.328zm5.633-1.86l.117.18c-.135.521-.331 1.125-.586 1.813a25.389 25.389 0 01-.797 1.93h-.976c.14-.542.294-1.211.461-2.008.171-.797.291-1.435.359-1.914h1.422zm9.695-5.117c1.203 0 2.149.3 2.836.899.693.594 1.039 1.409 1.039 2.445 0 1.182-.377 2.11-1.133 2.781-.75.672-1.786 1.008-3.109 1.008-1.286 0-2.268-.206-2.945-.617v-1.25c.364.234.817.42 1.359.555.542.13 1.076.195 1.602.195.916 0 1.627-.216 2.132-.648.511-.433.766-1.058.766-1.875 0-1.594-.976-2.391-2.93-2.391-.494 0-1.156.075-1.984.227l-.672-.43.43-5.344h5.68v1.195h-4.571l-.289 3.43a9.1 9.1 0 011.789-.18zm5.992 6.149c0-.35.079-.612.235-.79.161-.181.39-.273.687-.273.302 0 .537.092.703.274.172.177.258.44.258.789 0 .338-.086.599-.258.781-.172.182-.406.274-.703.274a.95.95 0 01-.664-.243c-.172-.166-.258-.437-.258-.812zm11.368-5.719c0 4.469-1.73 6.703-5.188 6.703-.604 0-1.083-.052-1.437-.156v-1.117c.416.135.89.203 1.421.203 1.25 0 2.193-.385 2.829-1.156.64-.776.989-1.964 1.046-3.563h-.093a2.813 2.813 0 01-1.141.992 3.706 3.706 0 01-1.602.336c-1.01 0-1.812-.302-2.406-.906-.594-.604-.89-1.448-.89-2.531 0-1.188.33-2.125.992-2.813.666-.687 1.541-1.03 2.625-1.03.776 0 1.453.2 2.031.6.583.396 1.031.977 1.344 1.743.312.76.469 1.659.469 2.695zm-3.844-3.93c-.745 0-1.321.24-1.727.72-.406.478-.609 1.145-.609 2 0 .75.187 1.34.562 1.773.375.427.946.64 1.711.64.474 0 .909-.096 1.305-.289.401-.192.716-.456.945-.789.229-.333.344-.682.344-1.047 0-.547-.107-1.052-.32-1.515a2.631 2.631 0 00-.899-1.094 2.232 2.232 0 00-1.312-.399zm5.367 6.782v-1.188h3.836v1.188h-3.836zM415.336 68h-1.266v-8.14c0-.678.021-1.318.063-1.922-.11.109-.232.223-.367.343-.136.12-.756.628-1.86 1.524l-.687-.89 3.023-2.337h1.094V68zm5.797 0l4.734-10.227h-6.226v-1.195h7.601v1.04L422.57 68h-1.437zm8.117-.828c0-.35.078-.612.234-.79.162-.181.391-.273.688-.273.302 0 .536.092.703.274.172.177.258.44.258.789 0 .338-.086.599-.258.781-.172.182-.406.274-.703.274a.948.948 0 01-.664-.243c-.172-.166-.258-.437-.258-.812zm7.641-10.758c1.041 0 1.867.242 2.476.727.61.484.914 1.153.914 2.007 0 .563-.174 1.076-.523 1.54-.349.463-.906.885-1.672 1.265.927.443 1.586.909 1.976 1.399.391.484.586 1.046.586 1.687 0 .948-.33 1.706-.992 2.273-.661.563-1.567.844-2.718.844-1.219 0-2.157-.265-2.813-.797-.656-.536-.984-1.294-.984-2.273 0-1.307.797-2.326 2.39-3.055-.719-.406-1.234-.843-1.547-1.312a2.822 2.822 0 01-.468-1.586c0-.828.304-1.487.914-1.977.614-.495 1.435-.742 2.461-.742zm-2.469 8.703c0 .625.216 1.112.648 1.461.438.35 1.05.524 1.836.524.776 0 1.38-.183 1.813-.547.432-.365.648-.865.648-1.5 0-.506-.203-.953-.609-1.344-.406-.396-1.115-.779-2.125-1.148-.776.333-1.339.703-1.688 1.109-.349.4-.523.883-.523 1.445zm2.453-7.648c-.651 0-1.161.156-1.531.468-.37.313-.555.73-.555 1.25 0 .48.154.891.461 1.235.307.344.875.687 1.703 1.031.745-.312 1.271-.648 1.578-1.008.313-.36.469-.778.469-1.258 0-.526-.19-.942-.57-1.25-.375-.312-.894-.468-1.555-.468zm7.344 8.672l.117.18c-.135.52-.331 1.124-.586 1.812a25.389 25.389 0 01-.797 1.93h-.976c.14-.542.294-1.211.461-2.008.171-.797.291-1.435.359-1.914h1.422zm-1.586-5.868c0-.703.31-1.054.929-1.054.641 0 .961.351.961 1.054 0 .339-.085.6-.257.782-.172.182-.407.273-.704.273-.302 0-.533-.091-.695-.273-.156-.183-.234-.443-.234-.782zM457.141 68v-5.54c0-.697-.159-1.218-.477-1.562-.318-.343-.815-.515-1.492-.515-.896 0-1.552.242-1.969.726-.417.485-.625 1.284-.625 2.399V68h-1.297v-8.563h1.055l.211 1.172h.062a2.622 2.622 0 011.118-.976 3.594 3.594 0 011.601-.352c1.031 0 1.807.25 2.328.75.521.495.782 1.29.782 2.383V68h-1.297zm7.679-6.703v-1.07h7.266v1.07h-7.266zm0 3.195v-1.07h7.266v1.07h-7.266zM482.789 68h-1.266v-8.14c0-.678.021-1.318.063-1.922-.109.109-.232.223-.367.343-.136.12-.755.628-1.86 1.524l-.687-.89 3.023-2.337h1.094V68zm11.43-8.734c0 .729-.206 1.325-.617 1.789-.407.463-.985.773-1.735.93v.062c.917.114 1.597.406 2.039.875.443.469.664 1.083.664 1.844 0 1.088-.377 1.927-1.132 2.515-.756.584-1.829.875-3.219.875a9.135 9.135 0 01-1.664-.14 5.58 5.58 0 01-1.461-.477v-1.234a7.289 7.289 0 003.172.75c1.974 0 2.961-.774 2.961-2.32 0-1.386-1.089-2.079-3.266-2.079h-1.125V61.54h1.141c.89 0 1.596-.195 2.117-.586.521-.396.781-.943.781-1.64 0-.558-.193-.995-.578-1.313-.38-.318-.899-.477-1.555-.477-.5 0-.971.068-1.414.204-.443.135-.948.385-1.516.75l-.656-.875a5.42 5.42 0 011.617-.868 5.864 5.864 0 011.938-.32c1.109 0 1.971.255 2.586.766.614.505.922 1.2.922 2.086zm5.39 4.351c0 1.37-.203 2.646-.609 3.828-.401 1.183-.982 2.211-1.742 3.086h-1.25a11.277 11.277 0 001.664-3.258 11.93 11.93 0 00.578-3.671c0-1.271-.19-2.508-.57-3.711a10.947 10.947 0 00-1.688-3.313h1.266a9.588 9.588 0 011.75 3.18c.401 1.203.601 2.49.601 3.86zM360.135 42.305h-5.893V26.17l.057-2.651.095-2.9c-.979.98-1.659 1.622-2.04 1.927l-3.204 2.575-2.842-3.548 8.983-7.152h4.844v27.884zm27.083-13.942c0 4.87-.801 8.474-2.403 10.814-1.59 2.34-4.044 3.51-7.362 3.51-3.217 0-5.646-1.209-7.286-3.624-1.627-2.416-2.441-5.983-2.441-10.7 0-4.92.795-8.544 2.384-10.871 1.589-2.34 4.037-3.51 7.343-3.51 3.217 0 5.645 1.221 7.285 3.663 1.653 2.44 2.48 6.014 2.48 10.718zm-13.637 0c0 3.42.293 5.874.877 7.362.598 1.475 1.596 2.212 2.995 2.212 1.373 0 2.365-.75 2.975-2.25.61-1.5.915-3.942.915-7.324 0-3.42-.311-5.874-.934-7.362-.61-1.5-1.596-2.25-2.956-2.25-1.386 0-2.378.75-2.976 2.25-.597 1.488-.896 3.942-.896 7.362zm17.28 11.215c0-1.068.286-1.876.858-2.423.572-.546 1.405-.82 2.498-.82 1.056 0 1.869.28 2.442.84.584.559.877 1.36.877 2.403 0 1.004-.293 1.799-.877 2.384-.585.572-1.399.858-2.442.858-1.068 0-1.894-.28-2.479-.84-.585-.572-.877-1.372-.877-2.402zm20.083-25.52c2.67 0 4.819.611 6.446 1.832 1.64 1.208 2.46 2.842 2.46 4.901 0 1.424-.394 2.696-1.182 3.815-.788 1.106-2.06 2.098-3.815 2.975 2.086 1.119 3.58 2.289 4.482 3.51.916 1.207 1.374 2.536 1.374 3.986 0 2.288-.897 4.132-2.69 5.53-1.792 1.386-4.151 2.08-7.075 2.08-3.052 0-5.449-.65-7.191-1.946-1.742-1.297-2.612-3.134-2.612-5.512 0-1.59.419-3 1.258-4.234.852-1.233 2.213-2.32 4.082-3.261-1.59-1.005-2.734-2.08-3.433-3.224a7.063 7.063 0 01-1.049-3.757c0-1.996.826-3.61 2.479-4.844 1.653-1.233 3.808-1.85 6.466-1.85zm-4.349 20.828c0 1.093.382 1.945 1.145 2.555.762.61 1.805.916 3.127.916 1.463 0 2.556-.312 3.281-.935.725-.635 1.087-1.468 1.087-2.498 0-.852-.362-1.647-1.087-2.384-.712-.75-1.876-1.545-3.49-2.384-2.709 1.246-4.063 2.823-4.063 4.73zm4.311-16.517c-1.005 0-1.819.26-2.442.782-.61.509-.915 1.195-.915 2.06 0 .763.241 1.45.725 2.06.495.597 1.385 1.214 2.67 1.85 1.246-.585 2.117-1.183 2.613-1.793.495-.61.743-1.316.743-2.117 0-.877-.317-1.57-.953-2.079-.636-.509-1.45-.763-2.441-.763zM430.097 19.65c0 1.729.188 3.026.565 3.89.376.865.986 1.297 1.831 1.297 1.668 0 2.502-1.729 2.502-5.188 0-3.438-.834-5.157-2.502-5.157-.845 0-1.455.427-1.831 1.282-.377.854-.565 2.146-.565 3.875zm6.989 0c0 2.319-.392 4.074-1.175 5.264-.773 1.18-1.913 1.77-3.418 1.77-1.424 0-2.533-.606-3.327-1.816-.783-1.21-1.175-2.95-1.175-5.219 0-2.309.377-4.048 1.13-5.218.762-1.17 1.887-1.755 3.372-1.755 1.475 0 2.609.605 3.402 1.816.794 1.21 1.191 2.93 1.191 5.157zm6.439 8.941c0 1.74.188 3.042.564 3.906.377.855.992 1.282 1.847 1.282.854 0 1.485-.422 1.892-1.266.407-.855.61-2.162.61-3.922 0-1.74-.203-3.026-.61-3.86-.407-.845-1.038-1.267-1.892-1.267-.855 0-1.47.422-1.847 1.267-.376.834-.564 2.12-.564 3.86zm7.004 0c0 2.31-.392 4.059-1.175 5.25-.773 1.18-1.913 1.77-3.418 1.77-1.445 0-2.559-.606-3.342-1.817-.773-1.21-1.16-2.945-1.16-5.203 0-2.31.377-4.049 1.13-5.218.762-1.17 1.887-1.755 3.372-1.755 1.444 0 2.568.6 3.372 1.8.814 1.19 1.221 2.915 1.221 5.173zm-3.937-15.594l-12.375 22.308h-2.243l12.375-22.308h2.243zM505.575 55.305h-.81v-5.21c0-.434.013-.843.04-1.23-.07.07-.148.143-.235.22a77.52 77.52 0 01-1.19.975l-.44-.57 1.935-1.495h.7v7.31zm4.035-1.19l.075.115c-.087.333-.212.72-.375 1.16-.163.443-.333.855-.51 1.235h-.625c.09-.347.188-.775.295-1.285.11-.51.187-.919.23-1.225h.91zm6.065 1.19h-4.805v-.715l1.925-1.935c.587-.593.973-1.017 1.16-1.27.187-.253.327-.5.42-.74.093-.24.14-.498.14-.775 0-.39-.118-.698-.355-.925-.237-.23-.565-.345-.985-.345-.303 0-.592.05-.865.15-.27.1-.572.282-.905.545l-.44-.565c.673-.56 1.407-.84 2.2-.84.687 0 1.225.176 1.615.53.39.35.585.822.585 1.415 0 .463-.13.922-.39 1.375-.26.453-.747 1.026-1.46 1.72l-1.6 1.565v.04h3.76v.77zM462.908 38.307c-1.569 0-2.81.524-3.721 1.572-.905 1.042-1.357 2.47-1.357 4.287 0 1.869.436 3.314 1.308 4.336.879 1.016 2.129 1.524 3.75 1.524.996 0 2.132-.18 3.408-.538v1.456c-.989.37-2.21.556-3.662.556-2.103 0-3.727-.638-4.873-1.914-1.139-1.276-1.709-3.089-1.709-5.44 0-1.47.274-2.76.82-3.867.554-1.106 1.348-1.96 2.383-2.558 1.042-.599 2.266-.898 3.672-.898 1.498 0 2.806.273 3.926.82l-.703 1.426c-1.081-.508-2.162-.762-3.242-.762zm8.164 7.06v5.938h-1.66V37.028h3.916c1.751 0 3.043.335 3.877 1.005.839.671 1.259 1.68 1.259 3.028 0 1.888-.957 3.164-2.871 3.828l3.877 6.416h-1.963l-3.457-5.938h-2.978zm0-1.425h2.275c1.172 0 2.031-.231 2.578-.694.547-.468.821-1.168.821-2.1 0-.943-.28-1.624-.84-2.04-.554-.417-1.446-.625-2.676-.625h-2.158v5.459z" fill="#7E7E7E"/><path d="M40.64 142.617c0-1.38.201-2.672.602-3.875.406-1.203.99-2.258 1.75-3.164h1.266a11.086 11.086 0 00-1.696 3.313 12.398 12.398 0 00-.562 3.711c0 1.25.193 2.471.578 3.664.386 1.192.94 2.281 1.664 3.265h-1.25a9.203 9.203 0 01-1.75-3.101c-.4-1.183-.601-2.453-.601-3.813zm12.383-2.164c0 4.469-1.729 6.703-5.187 6.703-.604 0-1.083-.052-1.438-.156v-1.117c.417.135.891.203 1.422.203 1.25 0 2.193-.385 2.828-1.156.641-.776.99-1.964 1.047-3.563h-.093a2.81 2.81 0 01-1.141.992 3.703 3.703 0 01-1.602.336c-1.01 0-1.812-.302-2.406-.906-.594-.604-.89-1.448-.89-2.531 0-1.188.33-2.125.992-2.813.666-.687 1.541-1.031 2.625-1.031.776 0 1.453.201 2.03.602.584.395 1.032.976 1.345 1.742.312.76.468 1.659.468 2.695zm-3.843-3.93c-.745 0-1.32.24-1.727.719-.406.479-.61 1.146-.61 2 0 .75.188 1.341.563 1.774.375.427.946.64 1.711.64.474 0 .909-.096 1.305-.289.4-.193.716-.456.945-.789.23-.333.344-.682.344-1.047 0-.547-.107-1.052-.32-1.515a2.631 2.631 0 00-.899-1.094 2.233 2.233 0 00-1.312-.399zm9.062 3.5c1.203 0 2.149.3 2.836.899.693.594 1.04 1.409 1.04 2.445 0 1.182-.378 2.11-1.134 2.781-.75.672-1.786 1.008-3.109 1.008-1.286 0-2.268-.205-2.945-.617v-1.25c.364.234.817.419 1.36.555.54.13 1.075.195 1.6.195.917 0 1.628-.216 2.133-.648.51-.433.766-1.058.766-1.875 0-1.594-.977-2.391-2.93-2.391-.494 0-1.156.076-1.984.227l-.672-.43.43-5.344h5.68v1.195h-4.57l-.29 3.43a9.088 9.088 0 011.79-.18zm6.696-1.039c0 .886.096 1.55.289 1.993.192.442.505.664.937.664.854 0 1.281-.886 1.281-2.657 0-1.76-.427-2.64-1.28-2.64-.433 0-.746.218-.938.656-.193.438-.29 1.099-.29 1.984zm3.578 0c0 1.188-.2 2.086-.602 2.696-.396.604-.98.906-1.75.906-.73 0-1.297-.31-1.703-.93-.401-.62-.602-1.51-.602-2.672 0-1.182.193-2.073.578-2.672.391-.598.967-.898 1.727-.898.755 0 1.336.31 1.742.93.406.62.61 1.5.61 2.64zm3.296 4.578c0 .891.097 1.558.29 2 .192.438.507.657.945.657.437 0 .76-.216.969-.649.208-.437.312-1.106.312-2.008 0-.89-.104-1.549-.312-1.976-.209-.432-.532-.648-.97-.648-.437 0-.752.216-.944.648-.193.427-.29 1.086-.29 1.976zm3.586 0c0 1.183-.2 2.079-.601 2.688-.396.604-.98.906-1.75.906-.74 0-1.31-.31-1.711-.929-.396-.62-.594-1.508-.594-2.665 0-1.182.193-2.072.578-2.671.39-.599.967-.899 1.727-.899.74 0 1.315.307 1.726.922.417.609.625 1.492.625 2.648zm-2.015-7.984L67.047 147h-1.149l6.336-11.422h1.149zm13.453 1.024c-1.255 0-2.248.419-2.977 1.257-.724.834-1.086 1.977-1.086 3.43 0 1.495.35 2.651 1.047 3.469.703.812 1.703 1.219 3 1.219.797 0 1.706-.144 2.727-.43v1.164c-.792.297-1.768.445-2.93.445-1.682 0-2.982-.51-3.898-1.531-.912-1.021-1.367-2.471-1.367-4.352 0-1.177.218-2.208.656-3.093a4.766 4.766 0 011.906-2.047c.833-.479 1.813-.719 2.938-.719 1.197 0 2.244.219 3.14.656l-.562 1.141c-.865-.406-1.73-.609-2.594-.609zM92.039 147v-11.422h1.328V147H92.04zm5.633-1.859l.117.179c-.135.521-.33 1.125-.586 1.813-.255.693-.52 1.336-.797 1.929h-.976c.14-.541.294-1.21.46-2.007a28.45 28.45 0 00.36-1.914h1.422zm10.93 1.859h-1.266v-8.141c0-.677.021-1.317.062-1.921a8.077 8.077 0 01-.367.343c-.135.12-.755.628-1.859 1.524l-.688-.891 3.024-2.336h1.094V147zm8.132-11.586c1.042 0 1.868.242 2.477.727.609.484.914 1.153.914 2.007 0 .563-.174 1.076-.523 1.54-.349.463-.907.885-1.672 1.265.927.443 1.586.909 1.976 1.399.391.484.586 1.046.586 1.687 0 .948-.331 1.706-.992 2.273-.661.563-1.568.844-2.719.844-1.219 0-2.156-.265-2.812-.797-.657-.536-.985-1.294-.985-2.273 0-1.307.797-2.326 2.391-3.055-.719-.406-1.234-.843-1.547-1.312a2.824 2.824 0 01-.469-1.586c0-.828.305-1.487.914-1.977.615-.495 1.435-.742 2.461-.742zm-2.468 8.703c0 .625.216 1.112.648 1.461.438.349 1.05.524 1.836.524.776 0 1.38-.183 1.812-.547.433-.365.649-.865.649-1.5 0-.506-.203-.953-.609-1.344-.407-.396-1.115-.779-2.125-1.149-.776.334-1.339.704-1.688 1.11-.349.401-.523.883-.523 1.445zm2.453-7.648c-.651 0-1.162.156-1.531.469-.37.312-.555.729-.555 1.25 0 .479.153.89.461 1.234.307.344.875.687 1.703 1.031.745-.312 1.271-.648 1.578-1.008.313-.359.469-.778.469-1.257 0-.527-.19-.943-.571-1.25-.375-.313-.893-.469-1.554-.469zm5.797 9.703c0-.349.078-.612.234-.789.161-.182.391-.274.688-.274.302 0 .536.092.703.274.171.177.257.44.257.789 0 .338-.086.599-.257.781-.172.182-.407.274-.703.274a.95.95 0 01-.665-.243c-.171-.166-.257-.437-.257-.812zm10.937-7.906c0 .729-.206 1.325-.617 1.789-.406.463-.984.773-1.734.929v.063c.916.114 1.596.406 2.039.875.442.469.664 1.083.664 1.844 0 1.088-.378 1.927-1.133 2.515-.755.584-1.828.875-3.219.875a9.21 9.21 0 01-1.664-.14 5.604 5.604 0 01-1.461-.477v-1.234a7.32 7.32 0 003.172.75c1.974 0 2.961-.774 2.961-2.321 0-1.385-1.089-2.078-3.266-2.078h-1.125v-1.117h1.141c.891 0 1.596-.195 2.117-.586.521-.396.781-.943.781-1.641 0-.557-.192-.994-.578-1.312-.38-.318-.898-.477-1.554-.477-.5 0-.972.068-1.415.204-.442.135-.947.385-1.515.75l-.656-.875a5.408 5.408 0 011.617-.868 5.87 5.87 0 011.937-.32c1.11 0 1.972.255 2.586.766.615.505.922 1.2.922 2.086zm1.953 5.039v-1.188h3.836v1.188h-3.836zm12.36-5.039c0 .729-.206 1.325-.618 1.789-.406.463-.984.773-1.734.929v.063c.917.114 1.596.406 2.039.875.443.469.664 1.083.664 1.844 0 1.088-.377 1.927-1.133 2.515-.755.584-1.828.875-3.218.875a9.201 9.201 0 01-1.664-.14 5.604 5.604 0 01-1.461-.477v-1.234a7.282 7.282 0 003.171.75c1.974 0 2.961-.774 2.961-2.321 0-1.385-1.088-2.078-3.265-2.078h-1.125v-1.117h1.14c.891 0 1.597-.195 2.118-.586.52-.396.781-.943.781-1.641 0-.557-.193-.994-.578-1.312-.38-.318-.899-.477-1.555-.477-.5 0-.971.068-1.414.204-.443.135-.948.385-1.516.75l-.656-.875a5.433 5.433 0 011.617-.868 5.88 5.88 0 011.938-.32c1.109 0 1.971.255 2.586.766.614.505.922 1.2.922 2.086zm10.125 6.109h-1.696V147h-1.242v-2.625h-5.555v-1.133l5.422-7.726h1.375v7.679h1.696v1.18zm-2.938-1.18v-3.797c0-.744.026-1.586.078-2.523h-.062c-.25.5-.485.914-.703 1.242l-3.571 5.078h4.258zm4.453 2.977c0-.349.078-.612.235-.789.161-.182.39-.274.687-.274.302 0 .537.092.703.274.172.177.258.44.258.789 0 .338-.086.599-.258.781-.172.182-.406.274-.703.274a.946.946 0 01-.664-.243c-.172-.166-.258-.437-.258-.812zm3.992-4.055c0-2.245.435-3.922 1.305-5.031.875-1.115 2.167-1.672 3.875-1.672.589 0 1.052.05 1.391.148v1.118a4.427 4.427 0 00-1.375-.196c-1.224 0-2.159.383-2.805 1.149-.646.76-1 1.958-1.062 3.594h.093c.573-.896 1.479-1.344 2.719-1.344 1.026 0 1.833.31 2.422.929.594.62.891 1.461.891 2.524 0 1.187-.326 2.122-.977 2.805-.646.677-1.521 1.015-2.625 1.015-1.182 0-2.12-.442-2.812-1.328-.693-.89-1.04-2.127-1.04-3.711zm3.836 3.938c.74 0 1.313-.232 1.719-.696.412-.468.617-1.143.617-2.023 0-.755-.19-1.349-.57-1.781-.38-.433-.948-.649-1.703-.649a2.88 2.88 0 00-1.289.289 2.427 2.427 0 00-.938.797c-.229.339-.343.69-.343 1.055 0 .536.104 1.036.312 1.5.208.463.503.831.883 1.101.385.271.823.407 1.312.407zm7.141-.914l.117.179a19.16 19.16 0 01-.586 1.813 25.2 25.2 0 01-.797 1.929h-.976c.14-.541.294-1.21.461-2.007.172-.797.291-1.435.359-1.914h1.422zm-1.586-5.868c0-.703.31-1.054.93-1.054.64 0 .961.351.961 1.054 0 .339-.086.599-.258.782-.172.182-.406.273-.703.273-.302 0-.534-.091-.696-.273-.156-.183-.234-.443-.234-.782zM187.297 147v-5.539c0-.698-.159-1.219-.477-1.563-.317-.343-.815-.515-1.492-.515-.896 0-1.552.242-1.969.726-.416.485-.625 1.284-.625 2.399V147h-1.296v-8.562h1.054l.211 1.171h.063a2.623 2.623 0 011.117-.976 3.587 3.587 0 011.601-.352c1.032 0 1.808.25 2.328.75.521.495.782 1.289.782 2.383V147h-1.297zm7.68-6.703v-1.07h7.265v1.07h-7.265zm0 3.195v-1.07h7.265v1.07h-7.265zm20.242-5.226c0 .729-.206 1.325-.617 1.789-.407.463-.985.773-1.735.929v.063c.917.114 1.597.406 2.039.875.443.469.664 1.083.664 1.844 0 1.088-.377 1.927-1.132 2.515-.756.584-1.829.875-3.219.875a9.21 9.21 0 01-1.664-.14 5.604 5.604 0 01-1.461-.477v-1.234a7.32 7.32 0 003.172.75c1.974 0 2.961-.774 2.961-2.321 0-1.385-1.089-2.078-3.266-2.078h-1.125v-1.117h1.141c.89 0 1.596-.195 2.117-.586.521-.396.781-.943.781-1.641 0-.557-.193-.994-.578-1.312-.38-.318-.899-.477-1.555-.477-.5 0-.971.068-1.414.204-.443.135-.948.385-1.516.75l-.656-.875a5.433 5.433 0 011.617-.868 5.88 5.88 0 011.938-.32c1.109 0 1.971.255 2.586.766.614.505.922 1.2.922 2.086zm6.883 8.734h-1.266v-8.141c0-.677.021-1.317.062-1.921a8.077 8.077 0 01-.367.343c-.135.12-.755.628-1.859 1.524l-.688-.891 3.024-2.336h1.094V147zm7.664-4.383c0 1.37-.204 2.646-.61 3.828-.401 1.183-.982 2.211-1.742 3.086h-1.25a11.248 11.248 0 001.664-3.258 11.89 11.89 0 00.578-3.671c0-1.271-.19-2.508-.57-3.711a10.948 10.948 0 00-1.688-3.313h1.266c.766.912 1.349 1.971 1.75 3.18.401 1.203.602 2.489.602 3.859zM236.575 134.305h-.81v-5.21c0-.433.013-.843.04-1.23a5.3 5.3 0 01-.235.22c-.087.077-.483.402-1.19.975l-.44-.57 1.935-1.495h.7v7.31zm4.035-1.19l.075.115c-.087.333-.212.72-.375 1.16-.163.443-.333.855-.51 1.235h-.625c.09-.347.188-.775.295-1.285.11-.51.187-.918.23-1.225h.91zm8.725 1.19h-4.805v-.715l1.925-1.935c.587-.593.973-1.017 1.16-1.27.187-.253.327-.5.42-.74.093-.24.14-.498.14-.775 0-.39-.118-.698-.355-.925-.237-.23-.565-.345-.985-.345-.303 0-.592.05-.865.15-.27.1-.572.282-.905.545l-.44-.565c.673-.56 1.407-.84 2.2-.84.687 0 1.225.177 1.615.53.39.35.585.822.585 1.415 0 .463-.13.922-.39 1.375-.26.453-.747 1.027-1.46 1.72l-1.6 1.565v.04h3.76v.77zm2.305-1.19l.075.115c-.087.333-.212.72-.375 1.16-.163.443-.333.855-.51 1.235h-.625c.09-.347.188-.775.295-1.285.11-.51.187-.918.23-1.225h.91zm7.945-3.805l-1.76-.155.245 5.15h-.98l.245-5.15-1.66.155v-.85l1.66.15-.245-2.085h.98l-.245 2.085 1.76-.15v.85zM10.314 19.555v4.75H8.986V12.883h3.133c1.4 0 2.435.268 3.101.805.672.536 1.008 1.343 1.008 2.422 0 1.51-.765 2.53-2.297 3.062l3.102 5.133h-1.57l-2.766-4.75h-2.383zm0-1.14h1.82c.938 0 1.625-.186 2.063-.555.438-.375.656-.935.656-1.68 0-.755-.224-1.3-.672-1.633-.442-.333-1.156-.5-2.14-.5h-1.727v4.367zM22.3 24.46c-1.266 0-2.266-.385-3-1.156-.73-.77-1.094-1.841-1.094-3.211 0-1.38.338-2.477 1.015-3.29.683-.812 1.597-1.218 2.743-1.218 1.072 0 1.921.354 2.546 1.063.625.703.938 1.633.938 2.789v.82h-5.898c.026 1.005.278 1.768.757 2.29.485.52 1.164.78 2.04.78.921 0 1.833-.192 2.734-.578v1.157a6.634 6.634 0 01-1.305.421 7.046 7.046 0 01-1.476.133zm-.352-7.789c-.688 0-1.237.224-1.648.672-.407.448-.646 1.068-.72 1.86h4.477c0-.818-.182-1.443-.547-1.876-.364-.437-.885-.656-1.562-.656zm11.242 5.297c0 .797-.297 1.412-.89 1.844-.594.432-1.427.648-2.5.648-1.136 0-2.021-.18-2.657-.539V22.72a6.45 6.45 0 001.32.492c.475.12.93.18 1.368.18.677 0 1.198-.107 1.562-.32.365-.22.547-.55.547-.993 0-.333-.146-.617-.437-.851-.287-.24-.85-.521-1.688-.844-.797-.297-1.364-.555-1.703-.773-.333-.224-.583-.477-.75-.758-.161-.281-.242-.617-.242-1.008 0-.698.284-1.247.851-1.648.568-.407 1.347-.61 2.336-.61.922 0 1.823.188 2.704.563l-.461 1.054c-.86-.354-1.639-.53-2.336-.53-.615 0-1.079.096-1.391.288-.313.193-.469.459-.469.797 0 .23.057.425.172.586.12.162.31.315.57.46.26.147.76.358 1.5.634 1.016.37 1.7.742 2.055 1.117.36.375.54.846.54 1.414zm6.102 2.492a3.774 3.774 0 01-1.531-.304 2.91 2.91 0 01-1.157-.954h-.093c.062.5.093.974.093 1.422v3.524h-1.297V15.742h1.055l.18 1.172h.062c.334-.468.722-.807 1.164-1.015.443-.209.95-.313 1.524-.313 1.135 0 2.01.388 2.625 1.164.62.776.93 1.865.93 3.266 0 1.406-.316 2.5-.946 3.281-.625.776-1.495 1.164-2.61 1.164zm-.188-7.773c-.875 0-1.508.242-1.898.726-.39.485-.591 1.255-.602 2.313v.289c0 1.203.2 2.065.602 2.586.4.515 1.044.773 1.93.773.74 0 1.317-.3 1.734-.898.422-.6.633-1.425.633-2.477 0-1.067-.211-1.885-.633-2.453-.417-.573-1.005-.86-1.766-.86zm13.407 3.328c0 1.396-.352 2.487-1.055 3.273-.703.782-1.675 1.172-2.914 1.172-.766 0-1.446-.18-2.04-.539-.593-.36-1.051-.875-1.374-1.547-.323-.672-.485-1.458-.485-2.36 0-1.395.35-2.48 1.047-3.257.698-.781 1.667-1.172 2.906-1.172 1.198 0 2.149.399 2.852 1.196.708.796 1.063 1.875 1.063 3.234zm-6.524 0c0 1.094.219 1.927.656 2.5.438.573 1.081.86 1.93.86s1.492-.285 1.93-.852c.442-.573.664-1.41.664-2.508 0-1.089-.222-1.914-.664-2.477-.438-.567-1.086-.851-1.946-.851-.849 0-1.49.278-1.921.836-.433.557-.649 1.388-.649 2.492zm14.664 4.289v-5.54c0-.697-.159-1.218-.476-1.562-.318-.343-.816-.515-1.493-.515-.895 0-1.552.242-1.968.726-.417.485-.625 1.284-.625 2.399v4.492H54.79v-8.563h1.054l.211 1.172h.063a2.622 2.622 0 011.117-.976 3.597 3.597 0 011.602-.352c1.03 0 1.807.25 2.328.75.52.495.781 1.29.781 2.383v5.586H60.65zm9.492-2.336c0 .797-.297 1.412-.89 1.844-.594.432-1.427.648-2.5.648-1.136 0-2.021-.18-2.657-.539V22.72a6.45 6.45 0 001.32.492c.475.12.93.18 1.368.18.677 0 1.198-.107 1.562-.32.365-.22.547-.55.547-.993 0-.333-.145-.617-.437-.851-.287-.24-.85-.521-1.688-.844-.797-.297-1.364-.555-1.703-.773-.333-.224-.583-.477-.75-.758-.161-.281-.242-.617-.242-1.008 0-.698.284-1.247.852-1.648.567-.407 1.346-.61 2.335-.61.922 0 1.823.188 2.704.563l-.461 1.054c-.86-.354-1.638-.53-2.336-.53-.615 0-1.078.096-1.39.288-.313.193-.47.459-.47.797 0 .23.058.425.172.586.12.162.31.315.57.46.261.147.761.358 1.5.634 1.016.37 1.701.742 2.055 1.117.36.375.54.846.54 1.414zm5.735 2.492c-1.266 0-2.266-.385-3-1.156-.73-.77-1.094-1.841-1.094-3.211 0-1.38.338-2.477 1.016-3.29.682-.812 1.596-1.218 2.742-1.218 1.073 0 1.922.354 2.547 1.063.625.703.937 1.633.937 2.789v.82h-5.898c.026 1.005.278 1.768.758 2.29.484.52 1.164.78 2.039.78.921 0 1.833-.192 2.734-.578v1.157a6.634 6.634 0 01-1.305.421 7.046 7.046 0 01-1.476.133zm-.352-7.789c-.687 0-1.237.224-1.648.672-.407.448-.646 1.068-.72 1.86h4.478c0-.818-.183-1.443-.547-1.876-.365-.437-.886-.656-1.563-.656zm13.781-1.086c.38 0 .722.031 1.024.094l-.18 1.203a4.413 4.413 0 00-.937-.117c-.693 0-1.287.281-1.782.844-.49.562-.734 1.263-.734 2.101v4.594H85.4v-8.563h1.07l.149 1.586h.062c.318-.557.7-.987 1.149-1.289.448-.302.94-.453 1.476-.453zm7.891 8.719l-.258-1.219h-.062c-.427.537-.855.901-1.282 1.094-.421.187-.95.281-1.585.281-.85 0-1.516-.219-2-.656-.48-.438-.72-1.06-.72-1.867 0-1.73 1.384-2.636 4.15-2.719l1.452-.047v-.531c0-.672-.145-1.167-.437-1.484-.287-.323-.748-.485-1.383-.485-.714 0-1.52.219-2.422.656l-.398-.992c.422-.229.883-.409 1.383-.539a6.052 6.052 0 011.515-.195c1.02 0 1.776.226 2.266.68.495.453.742 1.18.742 2.18v5.843h-.961zm-2.93-.914c.808 0 1.44-.221 1.899-.664.463-.443.695-1.063.695-1.86v-.773l-1.297.055c-1.031.036-1.776.198-2.234.484-.453.281-.68.721-.68 1.32 0 .47.14.826.422 1.07.286.245.685.368 1.195.368zm9.336 0c.229 0 .451-.016.664-.047.214-.037.383-.073.508-.11v.993c-.141.067-.349.122-.625.164-.271.047-.516.07-.734.07-1.657 0-2.485-.872-2.485-2.617V16.75h-1.226v-.625l1.226-.539.547-1.828h.75v1.984h2.485v1.008h-2.485v5.04c0 .515.123.91.367 1.187.245.276.581.414 1.008.414zm6.508 1.07c-1.266 0-2.266-.385-3-1.156-.729-.77-1.094-1.841-1.094-3.211 0-1.38.339-2.477 1.016-3.29.682-.812 1.596-1.218 2.742-1.218 1.073 0 1.922.354 2.547 1.063.625.703.937 1.633.937 2.789v.82h-5.898c.026 1.005.279 1.768.758 2.29.484.52 1.164.78 2.039.78.922 0 1.833-.192 2.734-.578v1.157a6.633 6.633 0 01-1.304.421 7.057 7.057 0 01-1.477.133zm-.352-7.789c-.687 0-1.236.224-1.648.672-.406.448-.646 1.068-.719 1.86h4.477c0-.818-.182-1.443-.547-1.876-.365-.437-.885-.656-1.563-.656zM93.8 37.305h-.81v-5.21c0-.433.013-.843.04-1.23a5.23 5.23 0 01-.235.22c-.087.077-.484.402-1.19.975l-.44-.57 1.935-1.495h.7v7.31zm4.035-1.19l.075.115c-.087.333-.212.72-.375 1.16-.164.443-.334.855-.51 1.235H96.4c.09-.347.188-.775.295-1.285.11-.51.186-.918.23-1.225h.91zm6.065 1.19h-4.805v-.715l1.925-1.935c.586-.593.973-1.017 1.16-1.27.186-.253.326-.5.42-.74.093-.24.14-.498.14-.775 0-.39-.119-.698-.355-.925-.237-.23-.565-.345-.985-.345-.304 0-.592.05-.865.15-.27.1-.572.282-.905.545l-.44-.565c.673-.56 1.406-.84 2.2-.84.686 0 1.225.177 1.615.53.39.35.585.822.585 1.415 0 .463-.13.922-.39 1.375-.26.453-.747 1.027-1.46 1.72l-1.6 1.565v.04h3.76v.77zM8.056 41.852c0-1.38.2-2.671.602-3.875.406-1.203.99-2.258 1.75-3.164h1.266a11.084 11.084 0 00-1.696 3.313 12.399 12.399 0 00-.562 3.71c0 1.25.192 2.472.578 3.665.385 1.193.94 2.281 1.664 3.265h-1.25a9.207 9.207 0 01-1.75-3.101c-.401-1.182-.602-2.453-.602-3.813zm14.586 4.383h-1.515l-6.242-9.586h-.063a42.16 42.16 0 01.125 3.094v6.492H13.72V34.813h1.5l6.227 9.547h.063a86.52 86.52 0 01-.07-1.351 23.638 23.638 0 01-.04-1.641v-6.555h1.242v11.422zm6.657-6.703v-1.07h7.265v1.07H29.3zm0 3.195v-1.07h7.265v1.07H29.3zm17.968 3.508h-1.265v-8.14c0-.678.02-1.318.062-1.922-.11.109-.232.224-.367.343-.135.12-.755.628-1.86 1.524l-.687-.89 3.024-2.337h1.093v11.422zm11.86 0h-7.508v-1.117l3.008-3.024c.916-.927 1.52-1.588 1.812-1.984.292-.396.51-.781.656-1.156a3.31 3.31 0 00.22-1.211c0-.61-.186-1.091-.555-1.445-.37-.36-.883-.54-1.54-.54-.474 0-.924.079-1.351.235-.422.156-.893.44-1.414.851l-.688-.882c1.052-.875 2.198-1.313 3.438-1.313 1.073 0 1.914.276 2.523.828.61.547.914 1.284.914 2.211 0 .724-.203 1.44-.61 2.149-.405.708-1.166 1.604-2.28 2.687l-2.5 2.445v.063h5.875v1.203zm9.218-5.726c0 1.974-.312 3.447-.937 4.422-.62.973-1.57 1.46-2.852 1.46-1.229 0-2.164-.497-2.804-1.492-.64-1-.961-2.463-.961-4.39 0-1.99.31-3.467.93-4.43.62-.964 1.565-1.445 2.835-1.445 1.24 0 2.18.502 2.82 1.507.646 1.006.97 2.461.97 4.368zm-6.242 0c0 1.661.196 2.872.586 3.632.39.756 1.013 1.133 1.867 1.133.865 0 1.49-.383 1.875-1.148.391-.771.586-1.977.586-3.617 0-1.641-.195-2.842-.586-3.602-.385-.766-1.01-1.148-1.875-1.148-.854 0-1.476.377-1.867 1.132-.39.75-.586 1.956-.586 3.618zm11.14 1.343c0 1.37-.202 2.646-.608 3.829-.402 1.182-.982 2.21-1.743 3.085h-1.25a11.265 11.265 0 001.664-3.257c.386-1.198.579-2.422.579-3.672 0-1.271-.19-2.508-.57-3.711a10.945 10.945 0 00-1.688-3.313h1.265c.766.912 1.35 1.972 1.75 3.18.401 1.203.602 2.49.602 3.86z" fill="#000"/><path d="M76.904 107.305h-30.46v-6.408l10.938-11.058c3.24-3.318 5.355-5.613 6.349-6.885.993-1.291 1.708-2.483 2.146-3.576a9.066 9.066 0 00.655-3.398c0-1.748-.486-3.05-1.46-3.904-.954-.855-2.235-1.282-3.845-1.282-1.689 0-3.328.388-4.918 1.163-1.59.775-3.248 1.877-4.977 3.308l-5.007-5.931c2.146-1.828 3.924-3.12 5.335-3.875a19.138 19.138 0 014.62-1.729c1.669-.417 3.536-.625 5.603-.625 2.722 0 5.126.496 7.212 1.49 2.087.993 3.706 2.384 4.859 4.172 1.152 1.789 1.728 3.835 1.728 6.14 0 2.007-.357 3.895-1.073 5.663-.695 1.749-1.788 3.547-3.278 5.395-1.47 1.848-4.073 4.48-7.809 7.898l-5.603 5.275v.418h18.985v7.749zm20.268-27.838c4.212 0 7.56 1.183 10.044 3.547 2.503 2.365 3.755 5.603 3.755 9.716 0 4.868-1.5 8.614-4.5 11.237-3.001 2.623-7.293 3.934-12.876 3.934-4.848 0-8.763-.785-11.743-2.355v-7.957c1.57.834 3.398 1.52 5.484 2.056 2.086.517 4.063.775 5.931.775 5.623 0 8.435-2.305 8.435-6.915 0-4.39-2.911-6.587-8.733-6.587-1.053 0-2.215.11-3.487.328-1.272.2-2.305.418-3.1.656l-3.666-1.967 1.64-22.205h23.635v7.81H92.433l-.805 8.553 1.043-.208c1.212-.279 2.712-.418 4.5-.418zm20.058 23.576c0-1.669.447-2.931 1.341-3.785.894-.855 2.196-1.282 3.905-1.282 1.649 0 2.921.437 3.815 1.311.914.875 1.371 2.127 1.371 3.756 0 1.57-.457 2.811-1.371 3.725-.914.895-2.186 1.342-3.815 1.342-1.669 0-2.961-.437-3.875-1.312-.914-.894-1.371-2.146-1.371-3.755zm31.384-39.879c4.173 0 7.531.954 10.074 2.861 2.564 1.888 3.845 4.441 3.845 7.66 0 2.226-.616 4.213-1.848 5.961-1.232 1.729-3.219 3.279-5.961 4.65 3.259 1.748 5.594 3.576 7.005 5.484 1.43 1.887 2.145 3.964 2.145 6.229 0 3.576-1.4 6.458-4.202 8.643-2.802 2.166-6.487 3.249-11.058 3.249-4.768 0-8.514-1.013-11.236-3.04-2.722-2.027-4.083-4.898-4.083-8.614 0-2.483.656-4.689 1.967-6.616 1.331-1.928 3.457-3.627 6.378-5.097-2.484-1.57-4.272-3.249-5.365-5.037-1.093-1.788-1.639-3.745-1.639-5.871 0-3.12 1.292-5.643 3.875-7.57 2.583-1.928 5.951-2.892 10.103-2.892zm-6.795 32.547c0 1.709.596 3.04 1.788 3.994 1.192.953 2.822 1.43 4.888 1.43 2.285 0 3.994-.486 5.127-1.46 1.132-.994 1.699-2.295 1.699-3.904 0-1.332-.567-2.574-1.699-3.726-1.113-1.172-2.931-2.414-5.455-3.726-4.232 1.948-6.348 4.411-6.348 7.392zm6.736-25.811c-1.57 0-2.842.407-3.815 1.222-.954.795-1.431 1.868-1.431 3.219 0 1.192.378 2.265 1.133 3.219.775.934 2.166 1.897 4.172 2.89 1.948-.913 3.309-1.847 4.084-2.8.775-.955 1.162-2.057 1.162-3.31 0-1.37-.497-2.453-1.49-3.248-.994-.795-2.265-1.192-3.815-1.192zM176.332 64.842c0 2.702.294 4.73.882 6.08.588 1.351 1.542 2.027 2.861 2.027 2.607 0 3.91-2.702 3.91-8.107 0-5.372-1.303-8.059-3.91-8.059-1.319 0-2.273.668-2.861 2.003-.588 1.335-.882 3.354-.882 6.056zm10.92 0c0 3.624-.612 6.366-1.836 8.226-1.208 1.844-2.988 2.766-5.341 2.766-2.225 0-3.958-.946-5.198-2.838-1.224-1.891-1.836-4.61-1.836-8.154 0-3.608.589-6.326 1.765-8.154 1.192-1.828 2.948-2.742 5.269-2.742 2.305 0 4.077.946 5.317 2.837 1.24 1.892 1.86 4.578 1.86 8.06zm10.061 13.972c0 2.718.294 4.753.883 6.104.588 1.335 1.549 2.003 2.885 2.003 1.335 0 2.32-.66 2.956-1.98.636-1.335.954-3.377.954-6.127 0-2.718-.318-4.729-.954-6.032-.636-1.32-1.621-1.98-2.956-1.98-1.336 0-2.297.66-2.885 1.98-.589 1.303-.883 3.314-.883 6.032zm10.944 0c0 3.608-.612 6.342-1.836 8.202-1.208 1.844-2.988 2.766-5.34 2.766-2.258 0-3.998-.946-5.222-2.837-1.208-1.892-1.812-4.602-1.812-8.13 0-3.61.588-6.327 1.764-8.155 1.192-1.828 2.949-2.742 5.27-2.742 2.257 0 4.013.938 5.269 2.813 1.271 1.86 1.907 4.554 1.907 8.083zm-6.151-24.367l-19.337 34.858h-3.505l19.337-34.858h3.505zM193.618 108.12c0 3.693-.916 6.531-2.747 8.515-1.831 1.983-4.455 2.975-7.873 2.975s-6.043-.992-7.874-2.975c-1.831-1.984-2.746-4.832-2.746-8.545s.915-6.546 2.746-8.5c1.841-1.963 4.476-2.944 7.904-2.944s6.048.986 7.858 2.96c1.821 1.973 2.732 4.811 2.732 8.514zm-16.281 0c0 2.493.473 4.369 1.419 5.631.946 1.261 2.36 1.892 4.242 1.892 3.774 0 5.661-2.508 5.661-7.523 0-5.025-1.877-7.538-5.631-7.538-1.882 0-3.301.636-4.257 1.908-.956 1.261-1.434 3.138-1.434 5.63zm25.634-1.22h1.526c1.496 0 2.599-.25 3.311-.748.713-.499 1.069-1.282 1.069-2.35 0-1.058-.367-1.811-1.099-2.258-.722-.448-1.846-.672-3.372-.672h-1.435v6.028zm0 3.845v8.56h-4.73V96.997h6.5c3.032 0 5.275.554 6.73 1.663 1.454 1.098 2.182 2.772 2.182 5.02 0 1.312-.362 2.482-1.084 3.509-.722 1.018-1.744 1.816-3.067 2.396 3.357 5.015 5.544 8.255 6.561 9.72h-5.249l-5.325-8.56h-2.518zm20.63-3.845h1.526c1.496 0 2.599-.25 3.311-.748.712-.499 1.068-1.282 1.068-2.35 0-1.058-.366-1.811-1.098-2.258-.722-.448-1.846-.672-3.372-.672h-1.435v6.028zm0 3.845v8.56h-4.73V96.997h6.5c3.032 0 5.275.554 6.729 1.663 1.455 1.098 2.182 2.772 2.182 5.02 0 1.312-.361 2.482-1.083 3.509-.722 1.018-1.744 1.816-3.067 2.396 3.357 5.015 5.544 8.255 6.561 9.72h-5.249l-5.325-8.56h-2.518z" fill="#442A8B"/><path stroke="#7E7E7E" d="M274.882.305v157M.5.305v157M274.382 76.805h274.382M274.382.805h274.382M0 .805h274.382M549.382.305v157.5M550 157.805H274.382M275.618 157.805H0"/></svg>