<svg xmlns="http://www.w3.org/2000/svg" xmlns:xlink="http://www.w3.org/1999/xlink" width="186.86" height="78.59" viewBox="0 0 186.86 78.59">
  <defs>
    <linearGradient id="linear-gradient" x1="112.43" y1="-6383.09" x2="112.43" y2="-6461.68" gradientTransform="matrix(1, 0, 0, -1, -19, -6383.09)" gradientUnits="userSpaceOnUse">
      <stop offset="0" stop-color="#1d819e" stop-opacity="0.5"/>
      <stop offset="0.01" stop-color="#1d819e" stop-opacity="0.5"/>
      <stop offset="1" stop-color="#1d819e"/>
    </linearGradient>
  </defs>
  <g id="Layer_2" data-name="Layer 2">
    <g id="Layer_1-2" data-name="Layer 1">
      <path d="M110.62,78.59h-.27a3.82,3.82,0,0,1-3.55-3.31l-5.45-42.66L97,63.37a3.87,3.87,0,0,1-7.36,1l-2.13-5-6.58,0A11.78,11.78,0,0,1,72,55.91c-1.37-1.21-2.26-2-6.06-2s-4.84.93-6.42,2.34A12.41,12.41,0,0,1,50.24,60H3.86a3.8,3.8,0,1,1,0-7.6H50.23c2.1,0,2.68-.52,4.06-1.75,2-1.82,4.83-4.31,11.59-4.31,6.25,0,8.88,1.88,11.24,4a4.34,4.34,0,0,0,3.78,1.48c7.8,0,9.32.08,9.32.08a3.53,3.53,0,0,1,.59.07L97.73,3.28A3.85,3.85,0,0,1,101.55,0h0a3.83,3.83,0,0,1,3.8,3.32L112,55.26l0-.09a3.86,3.86,0,0,1,3.73-2.8h12.4c2.24,0,3.82-1,6.43-2.79,3-2.07,6.8-4.64,12.65-4.64s9.27,2.57,12,4.63c2.23,1.68,3.69,2.79,6.34,2.79H183a3.8,3.8,0,1,1,0,7.6H165.56c-5.27,0-8.47-2.42-11-4.36-2.33-1.78-4-3.06-7.28-3.06-3.44,0-5.67,1.52-8.24,3.29-2.85,1.94-6.07,4.14-10.83,4.14h-9.45l-4.36,15.82A3.89,3.89,0,0,1,110.62,78.59Z" fill-rule="evenodd" fill="url(#linear-gradient)"/>
    </g>
  </g>
</svg>
