<svg xmlns="http://www.w3.org/2000/svg" xmlns:xlink="http://www.w3.org/1999/xlink" width="799.35" height="304.25" viewBox="0 0 799.35 304.25">
  <defs>
    <linearGradient id="linear-gradient" x1="97.31" y1="192.73" x2="97.31" y2="251.36" gradientUnits="userSpaceOnUse">
      <stop offset="0" stop-color="#430298" stop-opacity="0.7"/>
      <stop offset="1" stop-color="#430298"/>
    </linearGradient>
    <linearGradient id="linear-gradient-2" x1="218.36" y1="192.73" x2="218.36" y2="251.36" xlink:href="#linear-gradient"/>
    <linearGradient id="linear-gradient-3" x1="339.33" y1="123.24" x2="339.33" y2="251.36" xlink:href="#linear-gradient"/>
    <linearGradient id="linear-gradient-4" x1="460.3" y1="161.69" x2="460.3" y2="251.36" xlink:href="#linear-gradient"/>
    <linearGradient id="linear-gradient-5" x1="581.35" y1="214.63" x2="581.35" y2="251.36" xlink:href="#linear-gradient"/>
    <linearGradient id="linear-gradient-6" x1="143" y1="214.63" x2="143" y2="251.36" gradientUnits="userSpaceOnUse">
      <stop offset="0" stop-color="#1d819e" stop-opacity="0.7"/>
      <stop offset="1" stop-color="#1d819e"/>
    </linearGradient>
    <linearGradient id="linear-gradient-7" x1="263.97" y1="218.42" x2="263.97" y2="251.36" xlink:href="#linear-gradient-6"/>
    <linearGradient id="linear-gradient-8" x1="384.94" y1="141.51" x2="384.94" y2="251.36" xlink:href="#linear-gradient-6"/>
    <linearGradient id="linear-gradient-9" x1="506" y1="185.49" x2="506" y2="251.36" xlink:href="#linear-gradient-6"/>
    <linearGradient id="linear-gradient-10" x1="626.97" y1="243.95" x2="626.97" y2="251.36" xlink:href="#linear-gradient-6"/>
    <linearGradient id="linear-gradient-11" x1="691.54" y1="66.5" x2="691.54" y2="78.51" xlink:href="#linear-gradient"/>
    <linearGradient id="linear-gradient-12" x1="691.54" y1="85.67" x2="691.54" y2="97.68" xlink:href="#linear-gradient-6"/>
  </defs>
  <g id="Layer_2" data-name="Layer 2">
    <g id="Layer_1-2" data-name="Layer 1">
      <g>
        <g>
          <text transform="translate(0 24.99)" font-size="21" fill="#0e404f" font-family="OpenSans-Semibold, Open Sans" font-weight="600">Survival outcomes by PTCL subtype</text>
          <text transform="translate(357.33 18) scale(0.58)" font-size="21" fill="#0e404f" font-family="OpenSans-Semibold, Open Sans" font-weight="600">1</text>
        </g>
        <g>
          <text transform="translate(703.01 78.74)" font-size="12" fill="#4d4d4f" font-family="OpenSans, Open Sans">5</text>
          <text transform="translate(709.73 78.74)" font-size="12" fill="#4d4d4f" font-family="OpenSans, Open Sans">-</text>
          <text transform="translate(714.18 78.74)" font-size="12" fill="#4d4d4f" font-family="OpenSans, Open Sans" letter-spacing="0em">y<tspan x="6.02" y="0" letter-spacing="0em">ea</tspan><tspan x="19.45" y="0" letter-spacing="0.01em">r</tspan><tspan x="24.41" y="0" letter-spacing="-0.01em"> </tspan><tspan x="27.44" y="0" letter-spacing="0em">OS</tspan></text>
          <text transform="translate(703.01 94.46)" font-size="12" fill="#4d4d4f" font-family="OpenSans, Open Sans">5</text>
          <text transform="translate(709.73 94.46)" font-size="12" fill="#4d4d4f" font-family="OpenSans, Open Sans">-</text>
          <text transform="translate(714.18 94.46)" font-size="12" fill="#4d4d4f" font-family="OpenSans, Open Sans"><tspan letter-spacing="0em">y</tspan><tspan x="6.02" y="0" letter-spacing="0em">ea</tspan><tspan x="19.45" y="0" letter-spacing="0.01em">r</tspan><tspan x="24.41" y="0" letter-spacing="-0.01em"> </tspan><tspan x="27.44" y="0" letter-spacing="0em">fa</tspan><tspan x="38.21" y="0" letter-spacing="0em">il</tspan><tspan x="44.4" y="0" letter-spacing="0em">u</tspan><tspan x="51.8" y="0" letter-spacing="-0.01em">r</tspan><tspan x="56.53" y="0">e</tspan></text>
          <text transform="translate(769.49 94.46)" font-size="12" fill="#4d4d4f" font-family="OpenSans, Open Sans">-</text>
          <text transform="translate(773.93 94.46)" font-size="12" fill="#4d4d4f" font-family="OpenSans, Open Sans"><tspan letter-spacing="0em">f</tspan><tspan x="4.08" y="0" letter-spacing="-0.01em">r</tspan><tspan x="8.81" y="0" letter-spacing="0em">ee</tspan><tspan x="22.3" y="0"> </tspan></text>
          <text transform="translate(703.01 108.14)" font-size="12" fill="#4d4d4f" font-family="OpenSans, Open Sans">s<tspan x="5.72" y="0" letter-spacing="0em">u</tspan><tspan x="13.13" y="0" letter-spacing="0.01em">r</tspan><tspan x="18.08" y="0" letter-spacing="0em">v</tspan><tspan x="24.07" y="0" letter-spacing="0.01em">i</tspan><tspan x="27.17" y="0" letter-spacing="0em">v</tspan><tspan x="33.15" y="0" letter-spacing="0em">a</tspan><tspan x="39.84" y="0" letter-spacing="0.01em">l</tspan><tspan x="42.94" y="0"> </tspan></text>
        </g>
        <g>
          <path d="M59.63,214.63H664.56M59.63,178.07H664.56M59.63,141.51H664.56M59.63,105H664.56M59.63,68.23H664.56" fill="none" stroke="#e4e4e5" stroke-linejoin="round" stroke-width="1.08"/>
          <polygon points="74.46 192.73 120.16 192.73 120.16 251.36 74.46 251.36 74.46 192.73 74.46 192.73" fill-rule="evenodd" fill="url(#linear-gradient)"/>
          <polygon points="195.51 192.73 241.21 192.73 241.21 251.36 195.51 251.36 195.51 192.73 195.51 192.73" fill-rule="evenodd" fill="url(#linear-gradient-2)"/>
          <polygon points="316.57 123.23 362.09 123.23 362.09 251.36 316.57 251.36 316.57 123.23 316.57 123.23" fill-rule="evenodd" fill="url(#linear-gradient-3)"/>
          <polygon points="437.45 161.69 483.15 161.69 483.15 251.36 437.45 251.36 437.45 161.69 437.45 161.69" fill-rule="evenodd" fill="url(#linear-gradient-4)"/>
          <polygon points="558.51 214.63 604.2 214.63 604.2 251.36 558.51 251.36 558.51 214.63 558.51 214.63" fill-rule="evenodd" fill="url(#linear-gradient-5)"/>
          <polygon points="120.16 214.63 165.85 214.63 165.85 251.36 120.16 251.36 120.16 214.63 120.16 214.63" fill-rule="evenodd" fill="url(#linear-gradient-6)"/>
          <polygon points="241.21 218.42 286.74 218.42 286.74 251.36 241.21 251.36 241.21 218.42 241.21 218.42" fill-rule="evenodd" fill="url(#linear-gradient-7)"/>
          <polygon points="362.09 141.51 407.79 141.51 407.79 251.36 362.09 251.36 362.09 141.51 362.09 141.51" fill-rule="evenodd" fill="url(#linear-gradient-8)"/>
          <polygon points="483.15 185.49 528.85 185.49 528.85 251.36 483.15 251.36 483.15 185.49 483.15 185.49" fill-rule="evenodd" fill="url(#linear-gradient-9)"/>
          <polygon points="604.2 243.94 649.73 243.94 649.73 251.36 604.2 251.36 604.2 243.94 604.2 243.94" fill-rule="evenodd" fill="url(#linear-gradient-10)"/>
          <line x1="59.63" y1="251.36" x2="664.56" y2="251.36" fill="none" stroke="#e4e4e5" stroke-linejoin="round" stroke-width="1.08"/>
          <text transform="translate(19.13 256.92)" font-size="17.24" fill="#4d4d4f" font-family="OpenSans, Open Sans"><tspan letter-spacing="-0.01em">0</tspan><tspan x="9.77" y="0">%</tspan></text>
          <text transform="translate(9.57 220.32)" font-size="17.24" fill="#4d4d4f" font-family="OpenSans, Open Sans"><tspan letter-spacing="-0.01em">2</tspan><tspan x="9.77" y="0" letter-spacing="0em">0</tspan><tspan x="19.7" y="0">%</tspan></text>
          <text transform="translate(9.57 183.72)" font-size="17.24" fill="#4d4d4f" font-family="OpenSans, Open Sans"><tspan letter-spacing="-0.01em">4</tspan><tspan x="9.77" y="0" letter-spacing="0em">0</tspan><tspan x="19.7" y="0">%</tspan></text>
          <text transform="translate(9.57 147.12)" font-size="17.24" fill="#4d4d4f" font-family="OpenSans, Open Sans"><tspan letter-spacing="-0.01em">6</tspan><tspan x="9.77" y="0" letter-spacing="0em">0</tspan><tspan x="19.7" y="0">%</tspan></text>
          <text transform="translate(9.57 110.52)" font-size="17.24" fill="#4d4d4f" font-family="OpenSans, Open Sans"><tspan letter-spacing="-0.01em">8</tspan><tspan x="9.77" y="0" letter-spacing="0em">0</tspan><tspan x="19.7" y="0">%</tspan></text>
          <text transform="translate(0 73.92)" font-size="17.24" fill="#4d4d4f" font-family="OpenSans, Open Sans"><tspan letter-spacing="-0.01em">1</tspan><tspan x="9.77" y="0" letter-spacing="0em">0</tspan><tspan x="19.7" y="0" letter-spacing="0em">0</tspan><tspan x="29.48" y="0">%</tspan></text>
          <text transform="translate(78.28 278.93)" font-size="17.24" fill="#4d4d4f" font-family="OpenSans, Open Sans">P<tspan x="10.38" y="0" letter-spacing="0em">T</tspan><tspan x="19.84" y="0" letter-spacing="0.01em">C</tspan><tspan x="30.82" y="0" letter-spacing="-0.01em">L</tspan><tspan x="39.67" y="0">-</tspan><tspan x="45.21" y="0" letter-spacing="0em">N</tspan><tspan x="58.16" y="0" letter-spacing="0em">OS</tspan></text>
          <text transform="translate(224.43 278.93)" font-size="17.24" fill="#4d4d4f" font-family="OpenSans, Open Sans">A<tspan x="10.91" y="0" letter-spacing="0em">I</tspan><tspan x="15.7" y="0" letter-spacing="-0.01em">T</tspan><tspan x="25.16" y="0" letter-spacing="0em">L</tspan></text>
          <text transform="translate(315.34 278.93)" font-size="17.24" fill="#4d4d4f" font-family="OpenSans, Open Sans">A<tspan x="10.91" y="0" letter-spacing="-0.01em">L</tspan><tspan x="19.76" y="0" letter-spacing="0em">K</tspan><tspan x="30.38" y="0">-</tspan><tspan x="35.93" y="0" letter-spacing="0em">p</tspan><tspan x="46.44" y="0" letter-spacing="0em">o</tspan><tspan x="56.93" y="0">s</tspan><tspan x="65.15" y="0" letter-spacing="0em">i</tspan><tspan x="69.45" y="0" letter-spacing="0em">t</tspan><tspan x="75.6" y="0" letter-spacing="0em">i</tspan><tspan x="79.9" y="0" letter-spacing="0em">v</tspan><tspan x="88.5" y="0" letter-spacing="0em">e</tspan></text>
          <text transform="translate(341.44 299.58)" font-size="17.24" fill="#4d4d4f" font-family="OpenSans, Open Sans">A<tspan x="10.91" y="0" letter-spacing="-0.01em">L</tspan><tspan x="19.76" y="0" letter-spacing="0.01em">C</tspan><tspan x="30.74" y="0" letter-spacing="0em">L</tspan></text>
          <text transform="translate(433.44 278.93)" font-size="17.24" fill="#4d4d4f" font-family="OpenSans, Open Sans">A<tspan x="10.91" y="0" letter-spacing="-0.01em">L</tspan><tspan x="19.76" y="0" letter-spacing="0em">K</tspan><tspan x="30.38" y="0">-</tspan><tspan x="35.93" y="0" letter-spacing="0em">n</tspan><tspan x="46.56" y="0" letter-spacing="-0.01em">e</tspan><tspan x="56.1" y="0" letter-spacing="0em">g</tspan><tspan x="65.62" y="0" letter-spacing="0em">a</tspan><tspan x="75.22" y="0" letter-spacing="0em">t</tspan><tspan x="81.22" y="0" letter-spacing="0.01em">i</tspan><tspan x="85.67" y="0" letter-spacing="0em">v</tspan><tspan x="94.28" y="0" letter-spacing="0em">e</tspan></text>
          <text transform="translate(462.43 299.58)" font-size="17.24" fill="#4d4d4f" font-family="OpenSans, Open Sans">A<tspan x="10.91" y="0" letter-spacing="-0.01em">L</tspan><tspan x="19.76" y="0" letter-spacing="0.01em">C</tspan><tspan x="30.74" y="0" letter-spacing="0em">L</tspan></text>
          <text transform="translate(584.22 278.93)" font-size="17.24" fill="#4d4d4f" font-family="OpenSans, Open Sans"><tspan letter-spacing="0em">E</tspan><tspan x="9.56" y="0" letter-spacing="0em">A</tspan><tspan x="20.47" y="0" letter-spacing="-0.01em">T</tspan><tspan x="29.92" y="0">L</tspan></text>
          <polygon points="0.14 58.22 55.32 58.22 55.32 74.78 0.14 74.78 0.14 58.22 0.14 58.22" fill="#fff" fill-rule="evenodd"/>
          <text transform="translate(0.09 74)" font-size="17.24" fill="#4d4d4f" font-family="OpenSans, Open Sans"><tspan letter-spacing="0em">100</tspan><tspan x="29.79" y="0">%</tspan></text>
        </g>
        <rect x="685.53" y="66.5" width="12.01" height="12.01" fill="url(#linear-gradient-11)"/>
        <rect x="685.53" y="85.67" width="12.01" height="12.01" fill="url(#linear-gradient-12)"/>
      </g>
    </g>
  </g>
</svg>
