<svg xmlns="http://www.w3.org/2000/svg" width="526.51" height="991.46" viewBox="0 0 526.51 991.46">
  <g id="Layer_2" data-name="Layer 2">
    <g id="Layer_1-2" data-name="Layer 1">
      <rect y="523.26" width="526.51" height="36.61" fill="#430298" opacity="0.15"/>
      <rect y="91.67" width="526.51" height="36.61" fill="#430298" opacity="0.15"/>
      <rect y="163.6" width="526.51" height="36.61" fill="#430298" opacity="0.15"/>
      <rect y="235.53" width="526.51" height="36.61" fill="#430298" opacity="0.15"/>
      <rect y="307.46" width="526.51" height="36.61" fill="#430298" opacity="0.15"/>
      <rect y="379.4" width="526.51" height="36.61" fill="#430298" opacity="0.15"/>
      <rect y="451.33" width="526.51" height="36.61" fill="#430298" opacity="0.15"/>
      <rect y="595.19" width="526.51" height="36.61" fill="#430298" opacity="0.15"/>
      <rect y="667.12" width="526.51" height="36.61" fill="#430298" opacity="0.15"/>
      <rect y="739.05" width="526.51" height="36.61" fill="#430298" opacity="0.15"/>
      <rect y="810.99" width="526.51" height="36.61" fill="#430298" opacity="0.15"/>
      <rect y="882.92" width="526.51" height="36.61" fill="#430298" opacity="0.15"/>
      <rect y="954.85" width="526.51" height="36.61" fill="#430298" opacity="0.15"/>
      <text transform="translate(21.94 116.06)" font-size="18" fill="#4d4d4f" font-family="OpenSans, Open Sans">All AEs<tspan x="0" y="36" letter-spacing="1.74em">	</tspan><tspan x="36" y="36">Nausea</tspan><tspan x="0" y="72" letter-spacing="1.74em">	</tspan><tspan x="36" y="72">Fatigue</tspan><tspan x="0" y="108" letter-spacing="1.74em">	</tspan><tspan x="36" y="108">Pyrexia</tspan><tspan x="0" y="144" letter-spacing="1.74em">	</tspan><tspan x="36" y="144">Anemia</tspan><tspan x="0" y="180" letter-spacing="1.74em">	</tspan><tspan x="36" y="180">Vomiting</tspan><tspan x="0" y="216" letter-spacing="1.74em">	</tspan><tspan x="36" y="216">Constipation</tspan><tspan x="0" y="252" letter-spacing="1.74em">	</tspan><tspan x="36" y="252">Diarrhea</tspan><tspan x="0" y="288" letter-spacing="1.74em">	</tspan><tspan x="36" y="288">Dyspnea</tspan><tspan x="0" y="324" letter-spacing="1.74em">	</tspan><tspan x="36" y="324">Rash</tspan><tspan x="0" y="360" letter-spacing="1.74em">	</tspan><tspan x="36" y="360">Peripheral edema</tspan><tspan x="0" y="396" letter-spacing="1.74em">	</tspan><tspan x="36" y="396">Cough</tspan><tspan x="0" y="432" letter-spacing="1.74em">	</tspan><tspan x="36" y="432">Thrombocytopenia</tspan><tspan x="0" y="468" letter-spacing="1.74em">	</tspan><tspan x="36" y="468">Pruritus</tspan><tspan x="0" y="504" letter-spacing="1.74em">	</tspan><tspan x="36" y="504">Chills</tspan><tspan x="0" y="540" letter-spacing="1.74em">	</tspan><tspan x="36" y="540">Increased blood LDH</tspan><tspan x="0" y="576" letter-spacing="1.74em">	</tspan><tspan x="36" y="576">Decreased appetite</tspan><tspan x="0" y="612" letter-spacing="1.74em">	</tspan><tspan x="36" y="612">Headache</tspan><tspan x="0" y="648" letter-spacing="1.74em">	</tspan><tspan x="36" y="648">Infusion site pain</tspan><tspan x="0" y="684" letter-spacing="1.74em">	</tspan><tspan x="36" y="684">Hypokalemia</tspan><tspan x="0" y="720" letter-spacing="1.74em">	</tspan><tspan x="36" y="720">Prolonged QT interval</tspan><tspan x="0" y="756" letter-spacing="1.74em">	</tspan><tspan x="36" y="756">Abominal pain</tspan><tspan x="0" y="792" letter-spacing="1.74em">	</tspan><tspan x="36" y="792">Hypotension</tspan><tspan x="0" y="828" letter-spacing="1.74em">	</tspan><tspan x="36" y="828">Phlebitis</tspan><tspan x="0" y="864" letter-spacing="1.74em">	</tspan><tspan x="36" y="864">Dizziness</tspan></text>
      <text transform="translate(333.25 116.06)" font-size="18" fill="#4d4d4f" font-family="OpenSans, Open Sans">97<tspan x="0" y="36">42</tspan><tspan x="0" y="72">37</tspan><tspan x="0" y="108">35</tspan><tspan x="0" y="144">32</tspan><tspan x="0" y="180">29</tspan><tspan x="0" y="216">23</tspan><tspan x="0" y="252">23</tspan><tspan x="0" y="288">22</tspan><tspan x="0" y="324">20</tspan><tspan x="0" y="360">20</tspan><tspan x="0" y="396">19</tspan><tspan x="0" y="432">16</tspan><tspan x="0" y="468">16</tspan><tspan x="0" y="504">16</tspan><tspan x="0" y="540">16</tspan><tspan x="0" y="576">15</tspan><tspan x="0" y="612">15</tspan><tspan x="0" y="648">14</tspan><tspan x="0" y="684">12</tspan><tspan x="0" y="720">11</tspan><tspan x="0" y="756">11</tspan><tspan x="0" y="792">10</tspan><tspan x="0" y="828">10</tspan><tspan x="0" y="864">10</tspan></text>
      <text transform="translate(447.64 116.06)" font-size="18" fill="#4d4d4f" font-family="OpenSans, Open Sans">61<tspan x="5.15" y="36">1</tspan><tspan x="5.15" y="72">5</tspan><tspan x="5.15" y="108">2</tspan><tspan x="0" y="144">11</tspan><tspan x="5.15" y="180">1</tspan><tspan x="5.15" y="216">1</tspan><tspan x="5.15" y="252">2</tspan><tspan x="5.15" y="288">6</tspan><tspan x="5.15" y="324">1</tspan><tspan x="5.15" y="360">0</tspan><tspan x="5.15" y="396">0</tspan><tspan x="5.15" y="432">7</tspan><tspan x="5.15" y="468">3</tspan><tspan x="5.15" y="504">1</tspan><tspan x="5.15" y="540">2</tspan><tspan x="5.15" y="576">2</tspan><tspan x="5.15" y="612">0</tspan><tspan x="5.15" y="648">0</tspan><tspan x="5.15" y="684">4</tspan><tspan x="5.15" y="720">3</tspan><tspan x="5.15" y="756">1</tspan><tspan x="5.15" y="792">3</tspan><tspan x="5.15" y="828">1</tspan><tspan x="5.15" y="864">0</tspan></text>
      <text transform="translate(21.94 62.57)" font-size="18" fill="#4d4d4f" font-family="OpenSans-Semibold, Open Sans" font-weight="600">AEs</text>
      <text transform="translate(327.83 51.77)" font-size="18" fill="#4d4d4f" font-family="OpenSans-Semibold, Open Sans" font-weight="600">ALL<tspan x="-19.11" y="21.6">GRADES</tspan></text>
      <text transform="translate(423.12 51.77)" font-size="18" fill="#4d4d4f" font-family="OpenSans-Semibold, Open Sans" font-weight="600">GRADES<tspan x="7.69" y="21.6">3 TO 4</tspan></text>
      <text transform="translate(306.56 12)" font-size="14" fill="#430298" font-family="OpenSans-Semibold, Open Sans" font-weight="600">PERCENTAGE OF PATIENTS</text>
      <line y1="23.53" x2="526.51" y2="23.53" fill="none" stroke="#430298" stroke-miterlimit="10"/>
      <line y1="90.35" x2="526.51" y2="90.35" fill="none" stroke="#430298" stroke-miterlimit="10"/>
    </g>
  </g>
</svg>
