<svg width="542" height="157" viewBox="0 0 542 157" fill="none" xmlns="http://www.w3.org/2000/svg">
<g clip-path="url(#clip0)">
<path d="M272.55 35.9584V140.072" stroke="#BCBEC0" stroke-width="0.6935" stroke-miterlimit="8"/>
<path d="M541 6H1V145H541V6Z" stroke="#1D819E" stroke-width="1.2446" stroke-miterlimit="8"/>
<path d="M101.276 47.6125H97.6663V53.8264H91.4729V47.6125H78.6761V43.2034L91.8216 23.844H97.6663V42.6907H101.276V47.6125ZM91.4729 42.6907V37.6047C91.4729 36.7571 91.5071 35.5266 91.5755 33.9133C91.6438 32.3 91.6985 31.3635 91.7395 31.1038H91.5755C91.0696 32.2249 90.4612 33.3186 89.7503 34.385L84.2542 42.6907H91.4729ZM114.544 34.6721C117.443 34.6721 119.746 35.4856 121.455 37.1125C123.178 38.7395 124.039 40.968 124.039 43.7981C124.039 47.1477 123.007 49.7249 120.943 51.5295C118.878 53.3342 115.925 54.2366 112.083 54.2366C108.747 54.2366 106.054 53.6965 104.003 52.6165V47.1409C105.083 47.7151 106.341 48.1868 107.777 48.5559C109.212 48.9114 110.573 49.0891 111.858 49.0891C115.727 49.0891 117.661 47.5032 117.661 44.3313C117.661 41.3098 115.658 39.7991 111.653 39.7991C110.928 39.7991 110.128 39.8743 109.253 40.0247C108.378 40.1614 107.667 40.3118 107.12 40.4758L104.598 39.1223L105.726 23.844H121.989V29.217H111.283L110.73 35.1028L111.448 34.9592C112.282 34.7678 113.314 34.6721 114.544 34.6721ZM128.346 50.8938C128.346 49.7454 128.654 48.8772 129.269 48.2893C129.884 47.7014 130.78 47.4075 131.955 47.4075C133.09 47.4075 133.965 47.7083 134.58 48.3098C135.209 48.9114 135.524 49.7727 135.524 50.8938C135.524 51.9739 135.209 52.8284 134.58 53.4573C133.951 54.0725 133.076 54.3801 131.955 54.3801C130.807 54.3801 129.918 54.0793 129.289 53.4778C128.66 52.8625 128.346 52.0012 128.346 50.8938ZM150.515 34.6721C153.413 34.6721 155.717 35.4856 157.426 37.1125C159.149 38.7395 160.01 40.968 160.01 43.7981C160.01 47.1477 158.978 49.7249 156.913 51.5295C154.849 53.3342 151.896 54.2366 148.054 54.2366C144.718 54.2366 142.025 53.6965 139.974 52.6165V47.1409C141.054 47.7151 142.312 48.1868 143.747 48.5559C145.183 48.9114 146.543 49.0891 147.828 49.0891C151.698 49.0891 153.632 47.5032 153.632 44.3313C153.632 41.3098 151.629 39.7991 147.623 39.7991C146.899 39.7991 146.099 39.8743 145.224 40.0247C144.349 40.1614 143.638 40.3118 143.091 40.4758L140.569 39.1223L141.697 23.844H157.959V29.217H147.254L146.7 35.1028L147.418 34.9592C148.252 34.7678 149.284 34.6721 150.515 34.6721Z" fill="#166176"/>
<path d="M165.637 27.2587C165.637 28.271 165.725 29.0282 165.9 29.5303C166.084 30.0245 166.375 30.2716 166.773 30.2716C167.538 30.2716 167.921 29.2673 167.921 27.2587C167.921 25.266 167.538 24.2697 166.773 24.2697C166.375 24.2697 166.084 24.5168 165.9 25.0109C165.725 25.4972 165.637 26.2464 165.637 27.2587ZM170.934 27.2348C170.934 29.068 170.579 30.447 169.87 31.3716C169.16 32.2882 168.12 32.7465 166.749 32.7465C165.434 32.7465 164.418 32.2762 163.7 31.3357C162.983 30.3872 162.624 29.0202 162.624 27.2348C162.624 23.5922 163.999 21.7708 166.749 21.7708C168.096 21.7708 169.128 22.2451 169.846 23.1936C170.571 24.1342 170.934 25.4812 170.934 27.2348ZM179.16 22.0219L169.463 39.5017H166.594L176.29 22.0219H179.16ZM177.88 34.241C177.88 35.2533 177.968 36.0105 178.143 36.5127C178.327 37.0068 178.618 37.2539 179.016 37.2539C179.781 37.2539 180.164 36.2496 180.164 34.241C180.164 32.2483 179.781 31.252 179.016 31.252C178.618 31.252 178.327 31.4991 178.143 31.9933C177.968 32.4795 177.88 33.2287 177.88 34.241ZM183.177 34.2171C183.177 36.0424 182.822 37.4173 182.113 38.3419C181.403 39.2586 180.363 39.7169 178.992 39.7169C177.677 39.7169 176.661 39.2466 175.943 38.3061C175.226 37.3576 174.867 35.9946 174.867 34.2171C174.867 30.5745 176.242 28.7532 178.992 28.7532C180.339 28.7532 181.371 29.2274 182.089 30.176C182.814 31.1165 183.177 32.4635 183.177 34.2171Z" fill="#166176"/>
<path d="M171.773 56.0868C171.773 57.0621 171.609 57.9143 171.281 58.6435C170.952 59.3681 170.488 59.9218 169.886 60.3046C169.284 60.6874 168.583 60.8788 167.781 60.8788C166.997 60.8788 166.302 60.6874 165.696 60.3046C165.089 59.9172 164.618 59.3681 164.281 58.6571C163.948 57.9416 163.777 57.1145 163.768 56.1757V55.4579C163.768 54.5009 163.934 53.6555 164.267 52.9218C164.6 52.1881 165.069 51.6275 165.675 51.2401C166.286 50.8482 166.983 50.6523 167.767 50.6523C168.564 50.6523 169.266 50.8459 169.872 51.2333C170.483 51.6161 170.952 52.1744 171.281 52.9081C171.609 53.6373 171.773 54.4872 171.773 55.4579V56.0868ZM170.467 55.4442C170.467 54.2639 170.23 53.3593 169.756 52.7304C169.282 52.0969 168.619 51.7802 167.767 51.7802C166.937 51.7802 166.284 52.0969 165.805 52.7304C165.331 53.3593 165.087 54.2343 165.074 55.3554V56.0868C165.074 57.2307 165.313 58.1308 165.791 58.787C166.274 59.4387 166.937 59.7646 167.781 59.7646C168.628 59.7646 169.284 59.4569 169.749 58.8417C170.214 58.2219 170.453 57.3355 170.467 56.1825V55.4442ZM177.392 56.7157H175.054V60.7421H173.735V50.789H177.03C178.151 50.789 179.012 51.0442 179.614 51.5546C180.22 52.065 180.523 52.8079 180.523 53.7831C180.523 54.4029 180.354 54.9429 180.017 55.4032C179.684 55.8635 179.219 56.2076 178.622 56.4355L180.96 60.6601V60.7421H179.552L177.392 56.7157ZM175.054 55.6425H177.071C177.722 55.6425 178.24 55.4739 178.622 55.1366C179.01 54.7994 179.203 54.3482 179.203 53.7831C179.203 53.1679 179.019 52.6962 178.65 52.3681C178.285 52.0399 177.756 51.8736 177.064 51.869H175.054V55.6425ZM186.019 56.7157H183.681V60.7421H182.362V50.789H185.657C186.778 50.789 187.639 51.0442 188.241 51.5546C188.847 52.065 189.15 52.8079 189.15 53.7831C189.15 54.4029 188.981 54.9429 188.644 55.4032C188.311 55.8635 187.846 56.2076 187.249 56.4355L189.587 60.6601V60.7421H188.179L186.019 56.7157ZM183.681 55.6425H185.698C186.349 55.6425 186.867 55.4739 187.249 55.1366C187.637 54.7994 187.83 54.3482 187.83 53.7831C187.83 53.1679 187.646 52.6962 187.277 52.3681C186.912 52.0399 186.383 51.8736 185.691 51.869H183.681V55.6425Z" fill="#166176"/>
<path d="M40.147 80.165C40.147 78.9574 40.3225 77.8271 40.6734 76.7744C41.0289 75.7217 41.5393 74.7988 42.2047 74.0059H42.9771C42.3026 74.8353 41.7854 75.7764 41.4254 76.8291C41.0653 77.8773 40.8853 78.9847 40.8853 80.1514C40.8853 82.3525 41.578 84.3737 42.9634 86.2148H42.2047C41.5347 85.4401 41.0243 84.5355 40.6734 83.501C40.3225 82.4665 40.147 81.3545 40.147 80.165ZM50.483 78.2441C50.483 79.5566 50.3098 80.6549 49.9634 81.5391C49.6216 82.4232 49.1203 83.0771 48.4595 83.501C47.8033 83.9248 47.008 84.1367 46.0738 84.1367C45.5998 84.1367 45.1623 84.0775 44.7613 83.959V83.3711C44.9573 83.4349 45.192 83.485 45.4654 83.5215C45.7434 83.5534 45.9553 83.5693 46.1011 83.5693C47.2268 83.5693 48.1086 83.1637 48.7466 82.3525C49.3847 81.5368 49.7401 80.3496 49.813 78.791H49.731C49.3983 79.2285 49.0019 79.5658 48.5416 79.8027C48.0813 80.0352 47.6005 80.1514 47.0992 80.1514C46.1741 80.1514 45.4517 79.8962 44.9322 79.3857C44.4172 78.8753 44.1597 78.1507 44.1597 77.2119C44.1597 76.2093 44.4423 75.3981 45.0074 74.7783C45.577 74.1585 46.3153 73.8486 47.2222 73.8486C47.8785 73.8486 48.4527 74.0218 48.9449 74.3682C49.4371 74.71 49.8153 75.2135 50.0797 75.8789C50.3485 76.5443 50.483 77.3327 50.483 78.2441ZM47.2222 74.4502C46.5022 74.4502 45.928 74.694 45.4996 75.1816C45.0712 75.6647 44.857 76.3278 44.857 77.1709C44.857 77.9639 45.0552 78.5654 45.4517 78.9756C45.8482 79.3857 46.4156 79.5908 47.1539 79.5908C47.6142 79.5908 48.0425 79.4883 48.439 79.2832C48.8401 79.0781 49.1568 78.807 49.3892 78.4697C49.6262 78.1279 49.7447 77.7816 49.7447 77.4307C49.7447 76.8975 49.6376 76.3984 49.4234 75.9336C49.2138 75.4688 48.9175 75.1064 48.5347 74.8467C48.1565 74.5824 47.719 74.4502 47.2222 74.4502ZM55.0699 77.9912C56.1363 77.9912 56.9748 78.2487 57.5855 78.7637C58.2007 79.2786 58.5084 79.9873 58.5084 80.8896C58.5084 81.915 58.1894 82.7126 57.5513 83.2822C56.9133 83.8519 56.0338 84.1367 54.9127 84.1367C54.4159 84.1367 53.9442 84.0889 53.4976 83.9932C53.051 83.8929 52.6773 83.7516 52.3765 83.5693V82.8652C52.8687 83.1159 53.3062 83.2913 53.689 83.3916C54.0718 83.4873 54.4797 83.5352 54.9127 83.5352C55.7877 83.5352 56.4895 83.305 57.0181 82.8447C57.5468 82.3799 57.8111 81.7533 57.8111 80.9648C57.8111 80.222 57.5536 79.6387 57.0386 79.2148C56.5237 78.791 55.8241 78.5791 54.94 78.5791C54.3476 78.5791 53.7278 78.668 53.0806 78.8457L52.6705 78.5791L53.067 74.0059H57.8795V74.6621H53.7095L53.4019 78.1895C54.1129 78.0573 54.6688 77.9912 55.0699 77.9912ZM60.8394 76.9863C60.8394 77.834 60.942 78.472 61.147 78.9004C61.3521 79.3242 61.6734 79.5361 62.1109 79.5361C62.9905 79.5361 63.4302 78.6862 63.4302 76.9863C63.4302 76.1478 63.3163 75.5189 63.0884 75.0996C62.8651 74.6758 62.5393 74.4639 62.1109 74.4639C61.6734 74.4639 61.3521 74.6758 61.147 75.0996C60.942 75.5189 60.8394 76.1478 60.8394 76.9863ZM64.1002 76.9863C64.1002 78.0163 63.9293 78.8001 63.5875 79.3379C63.2457 79.8711 62.7535 80.1377 62.1109 80.1377C61.5048 80.1377 61.0285 79.8643 60.6822 79.3174C60.3404 78.766 60.1695 77.9889 60.1695 76.9863C60.1695 75.9701 60.3336 75.1953 60.6617 74.6621C60.9898 74.1289 61.4729 73.8623 62.1109 73.8623C62.7444 73.8623 63.2343 74.138 63.5806 74.6895C63.927 75.2363 64.1002 76.002 64.1002 76.9863ZM66.6636 81.0059C66.6636 81.849 66.7662 82.4824 66.9713 82.9062C67.1763 83.3255 67.4976 83.5352 67.9351 83.5352C68.8147 83.5352 69.2545 82.6921 69.2545 81.0059C69.2545 79.3242 68.8147 78.4834 67.9351 78.4834C67.4976 78.4834 67.1763 78.693 66.9713 79.1123C66.7662 79.527 66.6636 80.1582 66.6636 81.0059ZM69.9244 81.0059C69.9244 82.0358 69.7558 82.8197 69.4185 83.3574C69.0813 83.8906 68.5914 84.1572 67.9488 84.1572C67.329 84.1572 66.8482 83.8815 66.5064 83.3301C66.1646 82.7741 65.9937 81.9993 65.9937 81.0059C65.9937 79.9805 66.1601 79.2035 66.4927 78.6748C66.83 78.1462 67.3153 77.8818 67.9488 77.8818C68.5731 77.8818 69.0585 78.1553 69.4048 78.7021C69.7512 79.249 69.9244 80.0169 69.9244 81.0059ZM68.147 74.0059L62.6031 84H61.9468L67.4908 74.0059H68.147ZM80.0211 74.4912C78.7678 74.4912 77.7811 74.8923 77.0611 75.6943C76.341 76.4964 75.981 77.5947 75.981 78.9893C75.981 80.4157 76.3205 81.5231 76.9996 82.3115C77.6786 83.0999 78.6493 83.4941 79.9117 83.4941C80.7502 83.4941 81.5204 83.387 82.2222 83.1729V83.7881C81.5614 84.0205 80.7366 84.1367 79.7476 84.1367C78.344 84.1367 77.2388 83.6833 76.4322 82.7764C75.6255 81.8695 75.2222 80.6025 75.2222 78.9756C75.2222 77.9593 75.4136 77.0638 75.7964 76.2891C76.1838 75.5143 76.7375 74.9173 77.4576 74.498C78.1822 74.0742 79.023 73.8623 79.98 73.8623C80.9553 73.8623 81.828 74.0446 82.5982 74.4092L82.3179 75.0381C81.5888 74.6735 80.8231 74.4912 80.0211 74.4912ZM84.4507 84V74.0059H85.148V84H84.4507ZM88.5797 82.373L88.6617 82.5166C88.3199 83.7243 87.9234 84.8203 87.4722 85.8047H87.0279C87.3788 84.5514 87.6295 83.4076 87.7798 82.373H88.5797ZM100.235 84H93.98V83.3984L96.6392 80.623C97.3866 79.8483 97.9107 79.2559 98.2115 78.8457C98.5123 78.4355 98.7333 78.0436 98.8746 77.6699C99.0158 77.2962 99.0865 76.9043 99.0865 76.4941C99.0865 75.8971 98.8905 75.4118 98.4986 75.0381C98.1067 74.6644 97.5985 74.4775 96.9742 74.4775C96.1402 74.4775 95.3427 74.7806 94.5816 75.3867L94.2125 74.915C95.0464 74.2132 95.9716 73.8623 96.9879 73.8623C97.8583 73.8623 98.5419 74.0947 99.0386 74.5596C99.5399 75.0244 99.7906 75.6647 99.7906 76.4805C99.7906 77.1413 99.622 77.7816 99.2847 78.4014C98.952 79.0166 98.3414 79.7777 97.4527 80.6846L94.8892 83.3164V83.3438H100.235V84ZM109.005 81.4502H107.283V84H106.64V81.4502H101.5V80.9922L106.456 73.9512H107.283V80.8623H109.005V81.4502ZM106.64 80.8623V78.0049C106.64 76.6286 106.672 75.4733 106.736 74.5391H106.681C106.59 74.7077 106.31 75.1361 105.84 75.8242L102.313 80.8623H106.64ZM110.311 83.4668C110.311 83.0202 110.493 82.7969 110.858 82.7969C111.232 82.7969 111.419 83.0202 111.419 83.4668C111.419 83.9134 111.232 84.1367 110.858 84.1367C110.493 84.1367 110.311 83.9134 110.311 83.4668ZM120.339 81.4502H118.617V84H117.974V81.4502H112.834V80.9922L117.79 73.9512H118.617V80.8623H120.339V81.4502ZM117.974 80.8623V78.0049C117.974 76.6286 118.006 75.4733 118.07 74.5391H118.015C117.924 74.7077 117.644 75.1361 117.174 75.8242L113.647 80.8623H117.974ZM121.167 80.5V79.9395H124.414V80.5H121.167ZM125.945 79.7412C125.945 78.4424 126.12 77.3509 126.471 76.4668C126.827 75.5781 127.328 74.9196 127.975 74.4912C128.627 74.0628 129.411 73.8486 130.327 73.8486C130.755 73.8486 131.147 73.901 131.503 74.0059V74.6074C131.17 74.4844 130.769 74.4229 130.299 74.4229C129.174 74.4229 128.296 74.8285 127.668 75.6396C127.043 76.4508 126.692 77.6312 126.615 79.1807H126.704C127.05 78.734 127.447 78.3968 127.893 78.1689C128.34 77.9411 128.811 77.8271 129.308 77.8271C130.242 77.8271 130.972 78.0938 131.496 78.627C132.024 79.1602 132.289 79.8962 132.289 80.835C132.289 81.8558 132.011 82.6624 131.455 83.2549C130.903 83.8428 130.158 84.1367 129.219 84.1367C128.208 84.1367 127.408 83.7516 126.82 82.9814C126.237 82.2067 125.945 81.1266 125.945 79.7412ZM129.219 83.5352C129.967 83.5352 130.548 83.3005 130.962 82.8311C131.377 82.3617 131.585 81.6917 131.585 80.8213C131.585 80.0557 131.379 79.4587 130.969 79.0303C130.559 78.6019 130.001 78.3877 129.294 78.3877C128.83 78.3877 128.397 78.4902 127.996 78.6953C127.599 78.9004 127.282 79.1738 127.045 79.5156C126.808 79.8529 126.69 80.1992 126.69 80.5547C126.69 81.0605 126.802 81.5482 127.025 82.0176C127.253 82.4824 127.558 82.8516 127.941 83.125C128.328 83.3984 128.754 83.5352 129.219 83.5352ZM135.331 84L139.446 74.6621H133.793V74.0059H140.259V74.5049L136.13 84H135.331ZM142.153 83.4668C142.153 83.0202 142.335 82.7969 142.7 82.7969C143.073 82.7969 143.26 83.0202 143.26 83.4668C143.26 83.9134 143.073 84.1367 142.7 84.1367C142.335 84.1367 142.153 83.9134 142.153 83.4668ZM148.36 73.835C149.208 73.835 149.889 74.0514 150.404 74.4844C150.923 74.9173 151.183 75.5029 151.183 76.2412C151.183 76.7516 151.021 77.2028 150.698 77.5947C150.379 77.9867 149.859 78.349 149.139 78.6816C150.014 79.0417 150.629 79.4359 150.985 79.8643C151.34 80.2926 151.518 80.8122 151.518 81.4229C151.518 82.2477 151.229 82.9062 150.65 83.3984C150.076 83.8906 149.303 84.1367 148.333 84.1367C147.325 84.1367 146.553 83.9066 146.015 83.4463C145.477 82.986 145.209 82.3161 145.209 81.4365C145.209 80.8395 145.398 80.3154 145.776 79.8643C146.154 79.4131 146.74 79.028 147.533 78.709C146.799 78.3626 146.282 77.998 145.981 77.6152C145.68 77.2279 145.53 76.7653 145.53 76.2275C145.53 75.749 145.651 75.3298 145.892 74.9697C146.134 74.6051 146.471 74.3249 146.904 74.1289C147.341 73.9329 147.827 73.835 148.36 73.835ZM145.906 81.5391C145.906 82.168 146.118 82.6556 146.542 83.002C146.97 83.3483 147.567 83.5215 148.333 83.5215C149.08 83.5215 149.682 83.3392 150.137 82.9746C150.593 82.6055 150.821 82.1064 150.821 81.4775C150.821 80.9124 150.641 80.4544 150.281 80.1035C149.925 79.748 149.237 79.3766 148.216 78.9893C147.378 79.3128 146.783 79.6706 146.432 80.0625C146.081 80.4544 145.906 80.9466 145.906 81.5391ZM148.346 74.4502C147.704 74.4502 147.186 74.6097 146.794 74.9287C146.407 75.2432 146.213 75.6761 146.213 76.2275C146.213 76.5465 146.284 76.8291 146.425 77.0752C146.571 77.3167 146.779 77.5378 147.047 77.7383C147.321 77.9342 147.777 78.1644 148.415 78.4287C149.157 78.1416 149.691 77.8249 150.014 77.4785C150.338 77.1322 150.5 76.7152 150.5 76.2275C150.5 75.6807 150.306 75.2477 149.919 74.9287C149.536 74.6097 149.012 74.4502 148.346 74.4502ZM154.451 82.373L154.533 82.5166C154.191 83.7243 153.794 84.8203 153.343 85.8047H152.899C153.031 85.3626 153.172 84.8021 153.323 84.123C153.473 83.4486 153.583 82.8652 153.651 82.373H154.451ZM153.487 77.3623C153.487 76.9157 153.669 76.6924 154.034 76.6924C154.407 76.6924 154.594 76.9157 154.594 77.3623C154.594 77.6038 154.54 77.777 154.43 77.8818C154.325 77.9867 154.193 78.0391 154.034 78.0391C153.879 78.0391 153.749 77.9867 153.644 77.8818C153.539 77.777 153.487 77.6038 153.487 77.3623ZM165.778 84V79.1807C165.778 78.4333 165.621 77.891 165.306 77.5537C164.992 77.2119 164.504 77.041 163.843 77.041C162.955 77.041 162.303 77.2666 161.888 77.7178C161.478 78.1644 161.273 78.8913 161.273 79.8984V84H160.596V76.5693H161.17L161.3 77.5879H161.341C161.824 76.8132 162.683 76.4258 163.919 76.4258C165.605 76.4258 166.448 77.3304 166.448 79.1396V84H165.778ZM172.005 77.9502V77.3896H178.486V77.9502H172.005ZM172.005 80.7393V80.1787H178.486V80.7393H172.005ZM187.544 84H186.874V76.7197C186.874 76.0589 186.901 75.373 186.956 74.6621C186.887 74.7305 186.817 74.7965 186.744 74.8604C186.671 74.9242 185.967 75.4779 184.631 76.5215L184.242 76.0361L186.956 74.0059H187.544V84ZM198.091 78.9756C198.091 80.7301 197.822 82.029 197.285 82.8721C196.752 83.7152 195.943 84.1367 194.858 84.1367C193.814 84.1367 193.021 83.7038 192.479 82.8379C191.937 81.9674 191.666 80.68 191.666 78.9756C191.666 77.2347 191.928 75.945 192.452 75.1064C192.98 74.2679 193.782 73.8486 194.858 73.8486C195.911 73.8486 196.713 74.2839 197.264 75.1543C197.816 76.0202 198.091 77.2939 198.091 78.9756ZM192.404 78.9756C192.404 80.5251 192.607 81.6712 193.012 82.4141C193.418 83.1523 194.033 83.5215 194.858 83.5215C195.719 83.5215 196.346 83.1387 196.738 82.373C197.134 81.6074 197.333 80.4749 197.333 78.9756C197.333 77.499 197.134 76.3779 196.738 75.6123C196.346 74.8467 195.719 74.4639 194.858 74.4639C193.997 74.4639 193.372 74.8467 192.985 75.6123C192.598 76.3779 192.404 77.499 192.404 78.9756ZM202.125 80.165C202.125 81.3636 201.947 82.4801 201.591 83.5146C201.24 84.5492 200.732 85.4492 200.067 86.2148H199.308C200.694 84.3737 201.386 82.3525 201.386 80.1514C201.386 78.9801 201.206 77.8704 200.846 76.8223C200.486 75.7695 199.969 74.8307 199.294 74.0059H200.067C200.737 74.8034 201.247 75.7308 201.598 76.7881C201.949 77.8408 202.125 78.9665 202.125 80.165Z" fill="#4D4D4F"/>
<path d="M41.2777 112.463H40.6009V105.032H41.2777V112.463ZM40.5052 102.968C40.5052 102.53 40.6488 102.311 40.9359 102.311C41.0772 102.311 41.1865 102.368 41.264 102.482C41.346 102.596 41.3871 102.758 41.3871 102.968C41.3871 103.173 41.346 103.334 41.264 103.453C41.1865 103.571 41.0772 103.631 40.9359 103.631C40.6488 103.631 40.5052 103.41 40.5052 102.968ZM48.9544 112.463V107.643C48.9544 106.896 48.7972 106.354 48.4828 106.016C48.1683 105.675 47.6807 105.504 47.0199 105.504C46.1312 105.504 45.4795 105.729 45.0648 106.18C44.6546 106.627 44.4496 107.354 44.4496 108.361V112.463H43.7728V105.032H44.347L44.4769 106.051H44.5179C45.001 105.276 45.86 104.888 47.0951 104.888C48.7813 104.888 49.6244 105.793 49.6244 107.602V112.463H48.9544ZM82.9085 110.836L82.9906 110.979C82.6488 112.187 82.2523 113.283 81.8011 114.267H81.3568C81.7077 113.014 81.9583 111.87 82.1087 110.836H82.9085ZM90.7425 111.998C91.1709 111.998 91.5446 111.961 91.8636 111.888V112.435C91.5355 112.545 91.1572 112.599 90.7289 112.599C90.0726 112.599 89.5872 112.424 89.2728 112.073C88.9629 111.722 88.808 111.171 88.808 110.419V105.62H87.7074V105.223L88.808 104.916L89.1497 103.234H89.4984V105.032H91.679V105.62H89.4984V110.323C89.4984 110.893 89.5986 111.314 89.7992 111.588C89.9997 111.861 90.3141 111.998 90.7425 111.998ZM98.6517 112.463V107.643C98.6517 106.896 98.4945 106.354 98.18 106.016C97.8656 105.675 97.3779 105.504 96.7171 105.504C95.8285 105.504 95.1768 105.729 94.7621 106.18C94.3519 106.627 94.1468 107.354 94.1468 108.361V112.463H93.4701V101.826H94.1468V105.21L94.1126 106.16H94.1605C94.4385 105.713 94.7894 105.39 95.2132 105.189C95.6371 104.989 96.1634 104.888 96.7923 104.888C98.4785 104.888 99.3216 105.793 99.3216 107.602V112.463H98.6517ZM104.729 112.599C103.649 112.599 102.806 112.267 102.2 111.601C101.598 110.936 101.297 110.004 101.297 108.805C101.297 107.621 101.589 106.673 102.172 105.962C102.756 105.246 103.542 104.888 104.531 104.888C105.406 104.888 106.096 105.194 106.602 105.804C107.108 106.415 107.361 107.245 107.361 108.293V108.84H102.008C102.017 109.86 102.254 110.64 102.719 111.178C103.188 111.715 103.858 111.984 104.729 111.984C105.153 111.984 105.524 111.955 105.843 111.895C106.167 111.836 106.575 111.708 107.067 111.512V112.128C106.647 112.31 106.26 112.433 105.905 112.497C105.549 112.565 105.157 112.599 104.729 112.599ZM104.531 105.49C103.815 105.49 103.241 105.727 102.808 106.201C102.375 106.67 102.122 107.349 102.049 108.238H106.643C106.643 107.377 106.456 106.705 106.082 106.221C105.709 105.734 105.191 105.49 104.531 105.49ZM117.656 110.528C117.656 111.193 117.403 111.706 116.897 112.066C116.391 112.422 115.673 112.599 114.743 112.599C113.75 112.599 112.962 112.447 112.378 112.141V111.41C113.126 111.784 113.914 111.97 114.743 111.97C115.477 111.97 116.033 111.85 116.411 111.608C116.794 111.362 116.986 111.036 116.986 110.631C116.986 110.257 116.833 109.942 116.528 109.687C116.227 109.432 115.73 109.181 115.037 108.935C114.295 108.666 113.773 108.436 113.472 108.245C113.171 108.049 112.943 107.83 112.788 107.589C112.638 107.343 112.563 107.044 112.563 106.693C112.563 106.137 112.795 105.697 113.26 105.374C113.73 105.05 114.383 104.888 115.222 104.888C116.024 104.888 116.785 105.039 117.505 105.34L117.252 105.955C116.523 105.654 115.846 105.504 115.222 105.504C114.616 105.504 114.135 105.604 113.78 105.804C113.424 106.005 113.246 106.283 113.246 106.638C113.246 107.026 113.383 107.336 113.657 107.568C113.935 107.801 114.475 108.06 115.277 108.347C115.947 108.589 116.434 108.808 116.74 109.004C117.045 109.195 117.273 109.414 117.423 109.66C117.578 109.906 117.656 110.195 117.656 110.528ZM122.571 112.599C121.491 112.599 120.647 112.267 120.041 111.601C119.44 110.936 119.139 110.004 119.139 108.805C119.139 107.621 119.431 106.673 120.014 105.962C120.597 105.246 121.383 104.888 122.372 104.888C123.247 104.888 123.938 105.194 124.444 105.804C124.95 106.415 125.202 107.245 125.202 108.293V108.84H119.85C119.859 109.86 120.096 110.64 120.561 111.178C121.03 111.715 121.7 111.984 122.571 111.984C122.994 111.984 123.366 111.955 123.685 111.895C124.008 111.836 124.416 111.708 124.909 111.512V112.128C124.489 112.31 124.102 112.433 123.746 112.497C123.391 112.565 122.999 112.599 122.571 112.599ZM122.372 105.49C121.657 105.49 121.083 105.727 120.65 106.201C120.217 106.67 119.964 107.349 119.891 108.238H124.485C124.485 107.377 124.298 106.705 123.924 106.221C123.55 105.734 123.033 105.49 122.372 105.49ZM130.22 112.599C129.158 112.599 128.327 112.264 127.725 111.595C127.123 110.925 126.823 109.99 126.823 108.792C126.823 107.561 127.135 106.604 127.759 105.921C128.383 105.233 129.238 104.888 130.323 104.888C130.965 104.888 131.58 105 132.168 105.223L131.984 105.825C131.341 105.611 130.783 105.504 130.309 105.504C129.397 105.504 128.707 105.786 128.238 106.351C127.768 106.912 127.534 107.721 127.534 108.778C127.534 109.781 127.768 110.567 128.238 111.137C128.707 111.702 129.363 111.984 130.206 111.984C130.881 111.984 131.507 111.863 132.086 111.622V112.251C131.612 112.483 130.99 112.599 130.22 112.599ZM140.057 108.737C140.057 109.949 139.763 110.897 139.175 111.581C138.587 112.26 137.776 112.599 136.742 112.599C136.09 112.599 135.516 112.442 135.019 112.128C134.522 111.813 134.142 111.362 133.877 110.774C133.613 110.186 133.481 109.507 133.481 108.737C133.481 107.525 133.775 106.581 134.363 105.907C134.951 105.228 135.757 104.888 136.783 104.888C137.803 104.888 138.603 105.233 139.182 105.921C139.765 106.604 140.057 107.543 140.057 108.737ZM134.192 108.737C134.192 109.758 134.415 110.555 134.862 111.13C135.313 111.699 135.949 111.984 136.769 111.984C137.589 111.984 138.223 111.699 138.669 111.13C139.12 110.555 139.346 109.758 139.346 108.737C139.346 107.712 139.118 106.916 138.662 106.351C138.211 105.786 137.576 105.504 136.755 105.504C135.935 105.504 135.301 105.786 134.855 106.351C134.413 106.912 134.192 107.707 134.192 108.737ZM147.296 112.463V107.643C147.296 106.896 147.139 106.354 146.825 106.016C146.51 105.675 146.022 105.504 145.362 105.504C144.473 105.504 143.821 105.729 143.407 106.18C142.996 106.627 142.791 107.354 142.791 108.361V112.463H142.115V105.032H142.689L142.819 106.051H142.86C143.343 105.276 144.202 104.888 145.437 104.888C147.123 104.888 147.966 105.793 147.966 107.602V112.463H147.296ZM153.093 104.888C153.631 104.888 154.096 104.986 154.488 105.182C154.88 105.378 155.23 105.713 155.54 106.187H155.581C155.554 105.613 155.54 105.05 155.54 104.499V101.826H156.21V112.463H155.766L155.595 111.328H155.54C154.975 112.176 154.164 112.599 153.107 112.599C152.081 112.599 151.298 112.28 150.755 111.642C150.213 111.004 149.942 110.075 149.942 108.853C149.942 107.568 150.211 106.586 150.748 105.907C151.286 105.228 152.068 104.888 153.093 104.888ZM153.093 105.504C152.282 105.504 151.671 105.789 151.261 106.358C150.855 106.928 150.653 107.755 150.653 108.84C150.653 110.945 151.471 111.998 153.107 111.998C153.945 111.998 154.561 111.754 154.952 111.266C155.344 110.779 155.54 109.974 155.54 108.853V108.737C155.54 107.589 155.347 106.764 154.959 106.262C154.577 105.757 153.954 105.504 153.093 105.504ZM171.632 112.463V107.589C171.632 106.864 171.491 106.335 171.208 106.003C170.926 105.67 170.493 105.504 169.91 105.504C169.148 105.504 168.586 105.713 168.221 106.133C167.856 106.552 167.674 107.21 167.674 108.108V112.463H166.984V107.384C166.984 106.13 166.41 105.504 165.261 105.504C164.482 105.504 163.914 105.732 163.559 106.187C163.203 106.638 163.026 107.363 163.026 108.361V112.463H162.349V105.032H162.91L163.053 106.051H163.094C163.299 105.681 163.591 105.397 163.969 105.196C164.347 104.991 164.764 104.888 165.22 104.888C166.391 104.888 167.143 105.328 167.476 106.208H167.503C167.745 105.784 168.068 105.458 168.474 105.23C168.884 105.002 169.349 104.888 169.868 104.888C170.68 104.888 171.288 105.105 171.694 105.538C172.099 105.971 172.302 106.659 172.302 107.602V112.463H171.632ZM180.854 108.737C180.854 109.949 180.56 110.897 179.972 111.581C179.384 112.26 178.573 112.599 177.538 112.599C176.887 112.599 176.313 112.442 175.816 112.128C175.319 111.813 174.938 111.362 174.674 110.774C174.41 110.186 174.278 109.507 174.278 108.737C174.278 107.525 174.572 106.581 175.16 105.907C175.747 105.228 176.554 104.888 177.579 104.888C178.6 104.888 179.4 105.233 179.979 105.921C180.562 106.604 180.854 107.543 180.854 108.737ZM174.989 108.737C174.989 109.758 175.212 110.555 175.659 111.13C176.11 111.699 176.745 111.984 177.566 111.984C178.386 111.984 179.02 111.699 179.466 111.13C179.917 110.555 180.143 109.758 180.143 108.737C180.143 107.712 179.915 106.916 179.459 106.351C179.008 105.786 178.372 105.504 177.552 105.504C176.732 105.504 176.098 105.786 175.652 106.351C175.21 106.912 174.989 107.707 174.989 108.737ZM187.519 110.528C187.519 111.193 187.266 111.706 186.76 112.066C186.254 112.422 185.536 112.599 184.607 112.599C183.613 112.599 182.825 112.447 182.242 112.141V111.41C182.989 111.784 183.777 111.97 184.607 111.97C185.341 111.97 185.896 111.85 186.275 111.608C186.658 111.362 186.849 111.036 186.849 110.631C186.849 110.257 186.696 109.942 186.391 109.687C186.09 109.432 185.593 109.181 184.901 108.935C184.158 108.666 183.636 108.436 183.335 108.245C183.035 108.049 182.807 107.83 182.652 107.589C182.501 107.343 182.426 107.044 182.426 106.693C182.426 106.137 182.659 105.697 183.123 105.374C183.593 105.05 184.247 104.888 185.085 104.888C185.887 104.888 186.648 105.039 187.368 105.34L187.116 105.955C186.386 105.654 185.71 105.504 185.085 105.504C184.479 105.504 183.998 105.604 183.643 105.804C183.287 106.005 183.11 106.283 183.11 106.638C183.11 107.026 183.246 107.336 183.52 107.568C183.798 107.801 184.338 108.06 185.14 108.347C185.81 108.589 186.298 108.808 186.603 109.004C186.908 109.195 187.136 109.414 187.286 109.66C187.441 109.906 187.519 110.195 187.519 110.528ZM191.395 111.998C191.823 111.998 192.197 111.961 192.516 111.888V112.435C192.188 112.545 191.81 112.599 191.381 112.599C190.725 112.599 190.24 112.424 189.925 112.073C189.615 111.722 189.46 111.171 189.46 110.419V105.62H188.36V105.223L189.46 104.916L189.802 103.234H190.151V105.032H192.331V105.62H190.151V110.323C190.151 110.893 190.251 111.314 190.452 111.588C190.652 111.861 190.966 111.998 191.395 111.998ZM204.158 105.62H202.408V112.463H201.731V105.62H200.35V105.223L201.731 104.97V104.396C201.731 103.485 201.897 102.817 202.23 102.393C202.567 101.965 203.116 101.751 203.877 101.751C204.287 101.751 204.698 101.812 205.108 101.935L204.951 102.523C204.586 102.409 204.224 102.352 203.864 102.352C203.335 102.352 202.959 102.51 202.736 102.824C202.517 103.134 202.408 103.64 202.408 104.342V105.032H204.158V105.62ZM208.519 104.888C208.833 104.888 209.171 104.92 209.531 104.984L209.401 105.634C209.091 105.556 208.77 105.517 208.437 105.517C207.803 105.517 207.284 105.786 206.878 106.324C206.473 106.862 206.27 107.541 206.27 108.361V112.463H205.593V105.032H206.167L206.236 106.372H206.284C206.589 105.825 206.915 105.442 207.261 105.223C207.607 105 208.027 104.888 208.519 104.888ZM214.049 112.599C212.969 112.599 212.126 112.267 211.52 111.601C210.918 110.936 210.618 110.004 210.618 108.805C210.618 107.621 210.909 106.673 211.493 105.962C212.076 105.246 212.862 104.888 213.851 104.888C214.726 104.888 215.416 105.194 215.922 105.804C216.428 106.415 216.681 107.245 216.681 108.293V108.84H211.328C211.338 109.86 211.575 110.64 212.039 111.178C212.509 111.715 213.179 111.984 214.049 111.984C214.473 111.984 214.844 111.955 215.163 111.895C215.487 111.836 215.895 111.708 216.387 111.512V112.128C215.968 112.31 215.58 112.433 215.225 112.497C214.869 112.565 214.478 112.599 214.049 112.599ZM213.851 105.49C213.135 105.49 212.561 105.727 212.128 106.201C211.695 106.67 211.442 107.349 211.369 108.238H215.963C215.963 107.377 215.776 106.705 215.403 106.221C215.029 105.734 214.512 105.49 213.851 105.49ZM221.377 112.599C220.402 112.599 219.646 112.276 219.108 111.629C218.57 110.982 218.301 110.047 218.301 108.826C218.301 107.573 218.57 106.604 219.108 105.921C219.646 105.233 220.416 104.888 221.418 104.888C222.494 104.888 223.298 105.285 223.831 106.078H223.872L223.995 105.032H224.57V115.826H223.9V112.996C223.9 112.44 223.913 111.875 223.941 111.301H223.9C223.362 112.166 222.521 112.599 221.377 112.599ZM221.391 111.998C222.293 111.998 222.936 111.749 223.319 111.253C223.706 110.756 223.9 109.922 223.9 108.751V108.669C223.9 107.552 223.706 106.746 223.319 106.249C222.931 105.752 222.314 105.504 221.466 105.504C220.664 105.504 220.053 105.786 219.634 106.351C219.219 106.916 219.012 107.746 219.012 108.84C219.012 109.883 219.215 110.672 219.62 111.205C220.031 111.734 220.621 111.998 221.391 111.998ZM227.66 105.032V109.845C227.66 110.592 227.817 111.137 228.131 111.478C228.446 111.816 228.933 111.984 229.594 111.984C230.478 111.984 231.128 111.761 231.542 111.314C231.962 110.868 232.171 110.141 232.171 109.134V105.032H232.841V112.463H232.267L232.144 111.437H232.103C231.62 112.212 230.761 112.599 229.526 112.599C227.835 112.599 226.99 111.695 226.99 109.886V105.032H227.66ZM238.33 112.599C237.25 112.599 236.407 112.267 235.801 111.601C235.2 110.936 234.899 110.004 234.899 108.805C234.899 107.621 235.19 106.673 235.774 105.962C236.357 105.246 237.143 104.888 238.132 104.888C239.007 104.888 239.698 105.194 240.203 105.804C240.709 106.415 240.962 107.245 240.962 108.293V108.84H235.61C235.619 109.86 235.856 110.64 236.321 111.178C236.79 111.715 237.46 111.984 238.33 111.984C238.754 111.984 239.126 111.955 239.445 111.895C239.768 111.836 240.176 111.708 240.668 111.512V112.128C240.249 112.31 239.862 112.433 239.506 112.497C239.151 112.565 238.759 112.599 238.33 112.599ZM238.132 105.49C237.417 105.49 236.842 105.727 236.41 106.201C235.977 106.67 235.724 107.349 235.651 108.238H240.244C240.244 107.377 240.058 106.705 239.684 106.221C239.31 105.734 238.793 105.49 238.132 105.49ZM248.195 112.463V107.643C248.195 106.896 248.037 106.354 247.723 106.016C247.409 105.675 246.921 105.504 246.26 105.504C245.371 105.504 244.72 105.729 244.305 106.18C243.895 106.627 243.69 107.354 243.69 108.361V112.463H243.013V105.032H243.587L243.717 106.051H243.758C244.241 105.276 245.1 104.888 246.335 104.888C248.021 104.888 248.865 105.793 248.865 107.602V112.463H248.195ZM253.233 111.998C253.661 111.998 254.035 111.961 254.354 111.888V112.435C254.026 112.545 253.647 112.599 253.219 112.599C252.563 112.599 252.077 112.424 251.763 112.073C251.453 111.722 251.298 111.171 251.298 110.419V105.62H250.198V105.223L251.298 104.916L251.64 103.234H251.989V105.032H254.169V105.62H251.989V110.323C251.989 110.893 252.089 111.314 252.289 111.588C252.49 111.861 252.804 111.998 253.233 111.998ZM256.637 112.463H255.96V101.826H256.637V112.463ZM257.888 105.032H258.585L260.158 109.202C260.636 110.483 260.939 111.346 261.067 111.793H261.108C261.299 111.205 261.611 110.328 262.044 109.161L263.617 105.032H264.314L260.985 113.666C260.716 114.368 260.49 114.842 260.308 115.088C260.126 115.334 259.911 115.518 259.665 115.641C259.424 115.764 259.13 115.826 258.784 115.826C258.524 115.826 258.234 115.778 257.915 115.682V115.095C258.18 115.167 258.465 115.204 258.77 115.204C259.002 115.204 259.207 115.149 259.385 115.04C259.563 114.93 259.722 114.76 259.864 114.527C260.009 114.299 260.176 113.935 260.363 113.433C260.554 112.937 260.677 112.613 260.732 112.463L257.888 105.032ZM46.7464 127.737C46.7464 128.949 46.4525 129.897 45.8646 130.581C45.2767 131.26 44.4655 131.599 43.431 131.599C42.7793 131.599 42.2051 131.442 41.7083 131.128C41.2116 130.813 40.8311 130.362 40.5667 129.774C40.3024 129.186 40.1703 128.507 40.1703 127.737C40.1703 126.525 40.4642 125.581 41.0521 124.907C41.64 124.228 42.4466 123.888 43.472 123.888C44.4928 123.888 45.2927 124.233 45.8714 124.921C46.4548 125.604 46.7464 126.543 46.7464 127.737ZM40.8812 127.737C40.8812 128.758 41.1045 129.555 41.5511 130.13C42.0023 130.699 42.638 130.984 43.4583 130.984C44.2787 130.984 44.9121 130.699 45.3587 130.13C45.8099 129.555 46.0355 128.758 46.0355 127.737C46.0355 126.712 45.8076 125.916 45.3519 125.351C44.9007 124.786 44.265 124.504 43.4447 124.504C42.6244 124.504 41.9909 124.786 41.5443 125.351C41.1022 125.912 40.8812 126.707 40.8812 127.737ZM51.7708 131.599C50.709 131.599 49.8773 131.264 49.2757 130.595C48.6742 129.925 48.3734 128.99 48.3734 127.792C48.3734 126.561 48.6856 125.604 49.3099 124.921C49.9343 124.233 50.7887 123.888 51.8734 123.888C52.516 123.888 53.1312 124 53.7191 124.223L53.5345 124.825C52.8919 124.611 52.3337 124.504 51.8597 124.504C50.9483 124.504 50.2578 124.786 49.7884 125.351C49.319 125.912 49.0843 126.721 49.0843 127.778C49.0843 128.781 49.319 129.567 49.7884 130.137C50.2578 130.702 50.9141 130.984 51.7572 130.984C52.4317 130.984 53.0583 130.863 53.6371 130.622V131.251C53.1631 131.483 52.541 131.599 51.7708 131.599ZM58.429 131.599C57.3672 131.599 56.5355 131.264 55.9339 130.595C55.3324 129.925 55.0316 128.99 55.0316 127.792C55.0316 126.561 55.3438 125.604 55.9681 124.921C56.5925 124.233 57.447 123.888 58.5316 123.888C59.1742 123.888 59.7894 124 60.3773 124.223L60.1927 124.825C59.5501 124.611 58.9919 124.504 58.5179 124.504C57.6065 124.504 56.916 124.786 56.4466 125.351C55.9772 125.912 55.7425 126.721 55.7425 127.778C55.7425 128.781 55.9772 129.567 56.4466 130.137C56.916 130.702 57.5723 130.984 58.4154 130.984C59.0899 130.984 59.7165 130.863 60.2953 130.622V131.251C59.8213 131.483 59.1992 131.599 58.429 131.599ZM62.7083 124.032V128.845C62.7083 129.592 62.8656 130.137 63.18 130.478C63.4945 130.816 63.9821 130.984 64.6429 130.984C65.527 130.984 66.1764 130.761 66.5912 130.314C67.0104 129.868 67.2201 129.141 67.2201 128.134V124.032H67.89V131.463H67.3158L67.1927 130.437H67.1517C66.6686 131.212 65.8096 131.599 64.5746 131.599C62.8838 131.599 62.0384 130.695 62.0384 128.886V124.032H62.7083ZM73.304 123.888C73.6185 123.888 73.9557 123.92 74.3158 123.984L74.1859 124.634C73.876 124.556 73.5547 124.517 73.222 124.517C72.5886 124.517 72.069 124.786 71.6634 125.324C71.2578 125.862 71.055 126.541 71.055 127.361V131.463H70.3783V124.032H70.9525L71.0208 125.372H71.0687C71.374 124.825 71.6999 124.442 72.0462 124.223C72.3926 124 72.8119 123.888 73.304 123.888ZM78.7591 123.888C79.0736 123.888 79.4108 123.92 79.7708 123.984L79.641 124.634C79.3311 124.556 79.0098 124.517 78.6771 124.517C78.0436 124.517 77.5241 124.786 77.1185 125.324C76.7129 125.862 76.5101 126.541 76.5101 127.361V131.463H75.8333V124.032H76.4076L76.4759 125.372H76.5238C76.8291 124.825 77.155 124.442 77.5013 124.223C77.8477 124 78.2669 123.888 78.7591 123.888ZM81.9652 131.463H81.2884V124.032H81.9652V131.463ZM81.1927 121.968C81.1927 121.53 81.3363 121.311 81.6234 121.311C81.7647 121.311 81.874 121.368 81.9515 121.482C82.0335 121.596 82.0746 121.758 82.0746 121.968C82.0746 122.173 82.0335 122.334 81.9515 122.453C81.874 122.571 81.7647 122.631 81.6234 122.631C81.3363 122.631 81.1927 122.41 81.1927 121.968ZM89.6419 131.463V126.643C89.6419 125.896 89.4847 125.354 89.1703 125.016C88.8558 124.675 88.3682 124.504 87.7074 124.504C86.8187 124.504 86.167 124.729 85.7523 125.18C85.3421 125.627 85.1371 126.354 85.1371 127.361V131.463H84.4603V124.032H85.0345L85.1644 125.051H85.2054C85.6885 124.276 86.5475 123.888 87.7826 123.888C89.4688 123.888 90.3119 124.793 90.3119 126.602V131.463H89.6419ZM98.515 124.032V124.504L96.9769 124.599C97.3871 125.11 97.5921 125.67 97.5921 126.281C97.5921 126.997 97.3529 127.578 96.8744 128.024C96.4004 128.466 95.7624 128.687 94.9603 128.687C94.6231 128.687 94.3861 128.674 94.2494 128.646C93.9805 128.788 93.7754 128.954 93.6341 129.145C93.4928 129.337 93.4222 129.539 93.4222 129.754C93.4222 129.991 93.5111 130.164 93.6888 130.273C93.8711 130.383 94.1742 130.437 94.598 130.437H95.8968C96.7035 130.437 97.321 130.601 97.7494 130.929C98.1777 131.253 98.3919 131.734 98.3919 132.372C98.3919 133.156 98.0729 133.76 97.4349 134.183C96.8014 134.612 95.8968 134.826 94.721 134.826C93.7868 134.826 93.0622 134.646 92.5472 134.286C92.0368 133.926 91.7816 133.425 91.7816 132.782C91.7816 132.272 91.9388 131.848 92.2533 131.511C92.5723 131.173 93.0029 130.943 93.5453 130.82C93.322 130.724 93.1419 130.59 93.0052 130.417C92.8731 130.239 92.807 130.036 92.807 129.808C92.807 129.312 93.1237 128.874 93.7572 128.496C93.3242 128.318 92.987 128.04 92.7455 127.662C92.5039 127.279 92.3831 126.842 92.3831 126.349C92.3831 125.607 92.6178 125.012 93.0872 124.565C93.5612 124.114 94.1992 123.888 95.0013 123.888C95.4889 123.888 95.8672 123.936 96.1361 124.032H98.515ZM92.4994 132.72C92.4994 133.741 93.2581 134.252 94.7757 134.252C96.7262 134.252 97.7015 133.63 97.7015 132.386C97.7015 131.939 97.5488 131.615 97.2435 131.415C96.9382 131.214 96.4437 131.114 95.7601 131.114H94.5433C93.1807 131.114 92.4994 131.65 92.4994 132.72ZM93.0667 126.349C93.0667 126.924 93.2399 127.37 93.5863 127.689C93.9372 128.004 94.4043 128.161 94.9876 128.161C95.6074 128.161 96.0814 128.004 96.4095 127.689C96.7422 127.375 96.9085 126.919 96.9085 126.322C96.9085 125.689 96.7376 125.215 96.3958 124.9C96.0586 124.581 95.5846 124.422 94.974 124.422C94.3815 124.422 93.9144 124.593 93.5726 124.934C93.2354 125.272 93.0667 125.743 93.0667 126.349ZM111.927 129.528C111.927 130.193 111.674 130.706 111.168 131.066C110.662 131.422 109.945 131.599 109.015 131.599C108.021 131.599 107.233 131.447 106.65 131.141V130.41C107.397 130.784 108.186 130.97 109.015 130.97C109.749 130.97 110.305 130.85 110.683 130.608C111.066 130.362 111.257 130.036 111.257 129.631C111.257 129.257 111.105 128.942 110.799 128.687C110.498 128.432 110.002 128.181 109.309 127.935C108.566 127.666 108.044 127.436 107.743 127.245C107.443 127.049 107.215 126.83 107.06 126.589C106.91 126.343 106.834 126.044 106.834 125.693C106.834 125.137 107.067 124.697 107.532 124.374C108.001 124.05 108.655 123.888 109.493 123.888C110.296 123.888 111.057 124.039 111.777 124.34L111.524 124.955C110.795 124.654 110.118 124.504 109.493 124.504C108.887 124.504 108.407 124.604 108.051 124.804C107.696 125.005 107.518 125.283 107.518 125.638C107.518 126.026 107.655 126.336 107.928 126.568C108.206 126.801 108.746 127.06 109.548 127.347C110.218 127.589 110.706 127.808 111.011 128.004C111.316 128.195 111.544 128.414 111.695 128.66C111.85 128.906 111.927 129.195 111.927 129.528ZM114.429 124.032V128.845C114.429 129.592 114.586 130.137 114.901 130.478C115.215 130.816 115.703 130.984 116.364 130.984C117.248 130.984 117.897 130.761 118.312 130.314C118.731 129.868 118.941 129.141 118.941 128.134V124.032H119.611V131.463H119.036L118.913 130.437H118.872C118.389 131.212 117.53 131.599 116.295 131.599C114.605 131.599 113.759 130.695 113.759 128.886V124.032H114.429ZM125.237 123.888C126.276 123.888 127.057 124.217 127.581 124.873C128.11 125.525 128.374 126.479 128.374 127.737C128.374 128.972 128.096 129.925 127.54 130.595C126.989 131.264 126.212 131.599 125.209 131.599C124.681 131.599 124.204 131.49 123.781 131.271C123.357 131.053 123.022 130.743 122.776 130.342H122.714L122.523 131.463H122.099V120.826H122.776V123.499C122.776 123.9 122.767 124.269 122.748 124.606L122.728 125.187H122.776C123.058 124.741 123.398 124.413 123.794 124.203C124.195 123.993 124.676 123.888 125.237 123.888ZM125.223 124.504C124.348 124.504 123.721 124.754 123.343 125.256C122.965 125.757 122.776 126.584 122.776 127.737V127.853C122.776 128.974 122.972 129.779 123.364 130.266C123.76 130.754 124.375 130.998 125.209 130.998C126.021 130.998 126.631 130.715 127.041 130.15C127.452 129.581 127.657 128.772 127.657 127.723C127.657 125.577 126.845 124.504 125.223 124.504ZM132.401 130.998C132.829 130.998 133.203 130.961 133.522 130.888V131.435C133.194 131.545 132.815 131.599 132.387 131.599C131.731 131.599 131.245 131.424 130.931 131.073C130.621 130.722 130.466 130.171 130.466 129.419V124.62H129.366V124.223L130.466 123.916L130.808 122.234H131.157V124.032H133.337V124.62H131.157V129.323C131.157 129.893 131.257 130.314 131.457 130.588C131.658 130.861 131.972 130.998 132.401 130.998ZM133.884 124.032H134.581L136.154 128.202C136.632 129.483 136.935 130.346 137.063 130.793H137.104C137.295 130.205 137.607 129.328 138.04 128.161L139.613 124.032H140.31L136.981 132.666C136.712 133.368 136.486 133.842 136.304 134.088C136.122 134.334 135.908 134.518 135.661 134.641C135.42 134.764 135.126 134.826 134.78 134.826C134.52 134.826 134.23 134.778 133.911 134.682V134.095C134.176 134.167 134.461 134.204 134.766 134.204C134.998 134.204 135.203 134.149 135.381 134.04C135.559 133.93 135.718 133.76 135.86 133.527C136.006 133.299 136.172 132.935 136.359 132.433C136.55 131.937 136.673 131.613 136.728 131.463L133.884 124.032ZM144.733 131.599C143.589 131.599 142.755 131.171 142.231 130.314H142.183L142.203 130.888C142.222 131.226 142.231 131.595 142.231 131.996V134.826H141.554V124.032H142.128L142.258 125.092H142.299C142.81 124.289 143.625 123.888 144.746 123.888C145.749 123.888 146.512 124.219 147.036 124.88C147.565 125.536 147.829 126.493 147.829 127.751C147.829 128.972 147.551 129.92 146.995 130.595C146.444 131.264 145.69 131.599 144.733 131.599ZM144.719 130.998C145.48 130.998 146.068 130.715 146.483 130.15C146.902 129.585 147.112 128.794 147.112 127.778C147.112 125.595 146.323 124.504 144.746 124.504C143.881 124.504 143.245 124.743 142.839 125.221C142.434 125.695 142.231 126.47 142.231 127.546V127.764C142.231 128.927 142.424 129.756 142.812 130.253C143.204 130.749 143.84 130.998 144.719 130.998ZM152.895 131.599C151.815 131.599 150.972 131.267 150.366 130.601C149.764 129.936 149.463 129.004 149.463 127.805C149.463 126.621 149.755 125.673 150.338 124.962C150.922 124.246 151.708 123.888 152.697 123.888C153.572 123.888 154.262 124.194 154.768 124.804C155.274 125.415 155.527 126.245 155.527 127.293V127.84H150.174C150.183 128.86 150.42 129.64 150.885 130.178C151.355 130.715 152.024 130.984 152.895 130.984C153.319 130.984 153.69 130.955 154.009 130.895C154.333 130.836 154.741 130.708 155.233 130.512V131.128C154.813 131.31 154.426 131.433 154.071 131.497C153.715 131.565 153.323 131.599 152.895 131.599ZM152.697 124.49C151.981 124.49 151.407 124.727 150.974 125.201C150.541 125.67 150.288 126.349 150.215 127.238H154.809C154.809 126.377 154.622 125.705 154.248 125.221C153.875 124.734 153.357 124.49 152.697 124.49ZM167.36 127.737C167.36 128.949 167.066 129.897 166.478 130.581C165.89 131.26 165.079 131.599 164.044 131.599C163.393 131.599 162.818 131.442 162.322 131.128C161.825 130.813 161.444 130.362 161.18 129.774C160.916 129.186 160.784 128.507 160.784 127.737C160.784 126.525 161.077 125.581 161.665 124.907C162.253 124.228 163.06 123.888 164.085 123.888C165.106 123.888 165.906 124.233 166.485 124.921C167.068 125.604 167.36 126.543 167.36 127.737ZM161.494 127.737C161.494 128.758 161.718 129.555 162.164 130.13C162.616 130.699 163.251 130.984 164.072 130.984C164.892 130.984 165.525 130.699 165.972 130.13C166.423 129.555 166.649 128.758 166.649 127.737C166.649 126.712 166.421 125.916 165.965 125.351C165.514 124.786 164.878 124.504 164.058 124.504C163.238 124.504 162.604 124.786 162.158 125.351C161.716 125.912 161.494 126.707 161.494 127.737ZM172.179 124.62H170.429V131.463H169.752V124.62H168.371V124.223L169.752 123.97V123.396C169.752 122.485 169.919 121.817 170.251 121.393C170.589 120.965 171.138 120.751 171.899 120.751C172.309 120.751 172.719 120.812 173.129 120.935L172.972 121.523C172.607 121.409 172.245 121.352 171.885 121.352C171.356 121.352 170.98 121.51 170.757 121.824C170.538 122.134 170.429 122.64 170.429 123.342V124.032H172.179V124.62ZM183.438 124.34C183.438 125.306 183.11 126.046 182.453 126.561C181.797 127.076 180.868 127.334 179.664 127.334H178.119V131.463H177.422V121.469H179.869C182.248 121.469 183.438 122.426 183.438 124.34ZM178.119 126.732H179.493C180.619 126.732 181.433 126.548 181.934 126.178C182.435 125.805 182.686 125.201 182.686 124.367C182.686 123.597 182.449 123.027 181.975 122.658C181.501 122.284 180.767 122.097 179.774 122.097H178.119V126.732ZM188.216 131.463H187.512V122.125H184.265V121.469H191.463V122.125H188.216V131.463ZM197.219 121.954C195.966 121.954 194.979 122.355 194.259 123.157C193.539 123.959 193.179 125.057 193.179 126.452C193.179 127.878 193.519 128.986 194.198 129.774C194.877 130.563 195.847 130.957 197.11 130.957C197.948 130.957 198.718 130.85 199.42 130.636V131.251C198.759 131.483 197.935 131.599 196.946 131.599C195.542 131.599 194.437 131.146 193.63 130.239C192.824 129.332 192.42 128.065 192.42 126.438C192.42 125.422 192.612 124.526 192.994 123.752C193.382 122.977 193.936 122.38 194.656 121.961C195.38 121.537 196.221 121.325 197.178 121.325C198.153 121.325 199.026 121.507 199.796 121.872L199.516 122.501C198.787 122.136 198.021 121.954 197.219 121.954ZM201.649 131.463V121.469H202.346V130.806H207.111V131.463H201.649Z" fill="#4D4D4F"/>
<path d="M60.6507 108.935H56.5902L55.1956 112.463H54.4232L58.4427 102.428H58.8871L62.8246 112.463H62.0384L60.6507 108.935ZM56.8431 108.306H60.4183L59.058 104.704C58.944 104.421 58.8073 104.029 58.6478 103.528C58.5247 103.966 58.3903 104.362 58.2445 104.718L56.8431 108.306ZM64.2464 112.463V102.469H64.9437V112.463H64.2464ZM70.3783 112.463H69.6742V103.125H66.4271V102.469H73.6253V103.125H70.3783V112.463ZM75.1156 112.463V102.469H75.8128V111.806H80.5775V112.463H75.1156Z" fill="#166176"/>
<path d="M371.335 53.8264H350.376V49.4172L357.902 41.8088C360.131 39.5256 361.587 37.9465 362.27 37.0715C362.954 36.1829 363.446 35.3625 363.747 34.6106C364.048 33.8586 364.198 33.0793 364.198 32.2727C364.198 31.0696 363.863 30.1741 363.193 29.5862C362.537 28.9983 361.655 28.7043 360.548 28.7043C359.386 28.7043 358.258 28.9709 357.164 29.5042C356.07 30.0374 354.929 30.7961 353.739 31.7805L350.294 27.6995C351.77 26.4417 352.994 25.553 353.965 25.0334C354.935 24.5139 355.995 24.1174 357.143 23.844C358.292 23.5569 359.577 23.4133 360.999 23.4133C362.872 23.4133 364.526 23.7551 365.962 24.4387C367.397 25.1223 368.512 26.0793 369.305 27.3098C370.098 28.5403 370.494 29.9485 370.494 31.5344C370.494 32.9153 370.248 34.2141 369.756 35.4309C369.277 36.634 368.525 37.8713 367.5 39.1428C366.488 40.4143 364.697 42.2258 362.127 44.5774L358.271 48.2073V48.4944H371.335V53.8264ZM394.16 30.55C394.16 32.4231 393.593 34.0159 392.458 35.3284C391.323 36.6409 389.73 37.5432 387.68 38.0354V38.1584C390.099 38.4592 391.932 39.1975 393.176 40.3733C394.42 41.5354 395.042 43.1077 395.042 45.0901C395.042 47.9749 393.996 50.2239 391.904 51.8372C389.812 53.4368 386.825 54.2366 382.942 54.2366C379.688 54.2366 376.804 53.6965 374.288 52.6165V47.2229C375.45 47.8108 376.728 48.2893 378.123 48.6584C379.517 49.0276 380.898 49.2122 382.266 49.2122C384.357 49.2122 385.902 48.8567 386.9 48.1458C387.898 47.4348 388.397 46.2932 388.397 44.7209C388.397 43.3127 387.823 42.3147 386.675 41.7268C385.526 41.1389 383.694 40.845 381.179 40.845H378.902V35.9846H381.22C383.544 35.9846 385.239 35.6838 386.306 35.0823C387.386 34.467 387.926 33.4211 387.926 31.9446C387.926 29.675 386.504 28.5403 383.66 28.5403C382.676 28.5403 381.671 28.7043 380.645 29.0325C379.634 29.3606 378.506 29.928 377.262 30.7346L374.329 26.3665C377.063 24.3977 380.324 23.4133 384.111 23.4133C387.215 23.4133 389.662 24.0422 391.453 25.3C393.258 26.5579 394.16 28.3079 394.16 30.55ZM399.082 50.8938C399.082 49.7454 399.39 48.8772 400.005 48.2893C400.62 47.7014 401.516 47.4075 402.691 47.4075C403.826 47.4075 404.701 47.7083 405.316 48.3098C405.945 48.9114 406.26 49.7727 406.26 50.8938C406.26 51.9739 405.945 52.8284 405.316 53.4573C404.687 54.0725 403.812 54.3801 402.691 54.3801C401.543 54.3801 400.654 54.0793 400.025 53.4778C399.396 52.8625 399.082 52.0012 399.082 50.8938ZM431.976 47.6125H428.367V53.8264H422.174V47.6125H409.377V43.2034L422.522 23.844H428.367V42.6907H431.976V47.6125ZM422.174 42.6907V37.6047C422.174 36.7571 422.208 35.5266 422.276 33.9133C422.345 32.3 422.399 31.3635 422.44 31.1038H422.276C421.77 32.2249 421.162 33.3186 420.451 34.385L414.955 42.6907H422.174Z" fill="#3A92A7"/>
<path d="M436.373 26.4865C436.373 27.4988 436.461 28.256 436.636 28.7582C436.82 29.2524 437.111 29.4994 437.509 29.4994C438.274 29.4994 438.657 28.4951 438.657 26.4865C438.657 24.4938 438.274 23.4975 437.509 23.4975C437.111 23.4975 436.82 23.7446 436.636 24.2388C436.461 24.725 436.373 25.4742 436.373 26.4865ZM441.67 26.4626C441.67 28.2959 441.315 29.6748 440.606 30.5994C439.896 31.516 438.856 31.9744 437.485 31.9744C436.17 31.9744 435.154 31.5041 434.436 30.5635C433.719 29.615 433.36 28.248 433.36 26.4626C433.36 22.82 434.735 20.9987 437.485 20.9987C438.832 20.9987 439.864 21.473 440.582 22.4215C441.307 23.362 441.67 24.7091 441.67 26.4626ZM449.896 21.2498L440.199 38.7295H437.33L447.026 21.2498H449.896ZM448.616 33.4689C448.616 34.4811 448.704 35.2384 448.879 35.7405C449.063 36.2347 449.354 36.4818 449.752 36.4818C450.517 36.4818 450.9 35.4775 450.9 33.4689C450.9 31.4762 450.517 30.4798 449.752 30.4798C449.354 30.4798 449.063 30.7269 448.879 31.2211C448.704 31.7073 448.616 32.4566 448.616 33.4689ZM453.913 33.4449C453.913 35.2702 453.558 36.6452 452.849 37.5698C452.139 38.4864 451.099 38.9447 449.728 38.9447C448.413 38.9447 447.397 38.4745 446.679 37.5339C445.962 36.5854 445.603 35.2224 445.603 33.4449C445.603 29.8023 446.978 27.981 449.728 27.981C451.075 27.981 452.107 28.4553 452.825 29.4038C453.55 30.3443 453.913 31.6914 453.913 33.4449Z" fill="#3A92A7"/>
<path d="M442.507 49.6596C442.507 50.6349 442.343 51.4871 442.015 52.2163C441.687 52.9409 441.222 53.4946 440.62 53.8774C440.019 54.2602 439.317 54.4516 438.515 54.4516C437.731 54.4516 437.036 54.2602 436.43 53.8774C435.824 53.49 435.352 52.9409 435.015 52.2299C434.682 51.5145 434.511 50.6873 434.502 49.7485V49.0307C434.502 48.0737 434.669 47.2283 435.001 46.4946C435.334 45.7609 435.803 45.2003 436.41 44.813C437.02 44.421 437.717 44.2251 438.501 44.2251C439.299 44.2251 440.001 44.4188 440.607 44.8061C441.217 45.1889 441.687 45.7472 442.015 46.4809C442.343 47.2101 442.507 48.06 442.507 49.0307V49.6596ZM441.202 49.0171C441.202 47.8367 440.965 46.9321 440.491 46.3032C440.017 45.6697 439.354 45.353 438.501 45.353C437.672 45.353 437.018 45.6697 436.539 46.3032C436.065 46.9321 435.822 47.8071 435.808 48.9282V49.6596C435.808 50.8035 436.047 51.7036 436.526 52.3598C437.009 53.0115 437.672 53.3374 438.515 53.3374C439.363 53.3374 440.019 53.0298 440.484 52.4145C440.949 51.7947 441.188 50.9083 441.202 49.7553V49.0171ZM448.126 50.2885H445.788V54.3149H444.469V44.3618H447.764C448.885 44.3618 449.746 44.617 450.348 45.1274C450.954 45.6378 451.257 46.3807 451.257 47.3559C451.257 47.9757 451.089 48.5158 450.751 48.976C450.419 49.4363 449.954 49.7804 449.357 50.0083L451.695 54.2329V54.3149H450.286L448.126 50.2885ZM445.788 49.2153H447.805C448.457 49.2153 448.974 49.0467 449.357 48.7094C449.744 48.3722 449.938 47.921 449.938 47.3559C449.938 46.7407 449.753 46.269 449.384 45.9409C449.02 45.6128 448.491 45.4464 447.798 45.4419H445.788V49.2153ZM456.753 50.2885H454.415V54.3149H453.096V44.3618H456.391C457.512 44.3618 458.373 44.617 458.975 45.1274C459.581 45.6378 459.884 46.3807 459.884 47.3559C459.884 47.9757 459.716 48.5158 459.378 48.976C459.046 49.4363 458.581 49.7804 457.984 50.0083L460.322 54.2329V54.3149H458.913L456.753 50.2885ZM454.415 49.2153H456.432C457.084 49.2153 457.601 49.0467 457.984 48.7094C458.371 48.3722 458.565 47.921 458.565 47.3559C458.565 46.7407 458.38 46.269 458.011 45.9409C457.647 45.6128 457.118 45.4464 456.425 45.4419H454.415V49.2153Z" fill="#3A92A7"/>
<path d="M303.322 104H302.645V96.5693H303.322V104ZM302.549 94.5049C302.549 94.0674 302.693 93.8486 302.98 93.8486C303.121 93.8486 303.231 93.9056 303.308 94.0195C303.39 94.1335 303.431 94.2952 303.431 94.5049C303.431 94.71 303.39 94.8717 303.308 94.9902C303.231 95.1087 303.121 95.168 302.98 95.168C302.693 95.168 302.549 94.9469 302.549 94.5049ZM310.999 104V99.1807C310.999 98.4333 310.841 97.891 310.527 97.5537C310.213 97.2119 309.725 97.041 309.064 97.041C308.175 97.041 307.524 97.2666 307.109 97.7178C306.699 98.1644 306.494 98.8913 306.494 99.8984V104H305.817V96.5693H306.391L306.521 97.5879H306.562C307.045 96.8132 307.904 96.4258 309.139 96.4258C310.825 96.4258 311.669 97.3304 311.669 99.1396V104H310.999ZM390.685 103.535C391.114 103.535 391.487 103.499 391.806 103.426V103.973C391.478 104.082 391.1 104.137 390.672 104.137C390.015 104.137 389.53 103.961 389.215 103.61C388.906 103.259 388.751 102.708 388.751 101.956V97.1572H387.65V96.7607L388.751 96.4531L389.092 94.7715H389.441V96.5693H391.622V97.1572H389.441V101.86C389.441 102.43 389.541 102.852 389.742 103.125C389.942 103.398 390.257 103.535 390.685 103.535ZM398.594 104V99.1807C398.594 98.4333 398.437 97.891 398.123 97.5537C397.808 97.2119 397.321 97.041 396.66 97.041C395.771 97.041 395.119 97.2666 394.705 97.7178C394.295 98.1644 394.089 98.8913 394.089 99.8984V104H393.413V93.3633H394.089V96.7471L394.055 97.6973H394.103C394.381 97.2507 394.732 96.9271 395.156 96.7266C395.58 96.526 396.106 96.4258 396.735 96.4258C398.421 96.4258 399.264 97.3304 399.264 99.1396V104H398.594ZM404.672 104.137C403.591 104.137 402.748 103.804 402.142 103.139C401.541 102.473 401.24 101.541 401.24 100.343C401.24 99.1579 401.532 98.21 402.115 97.499C402.698 96.7835 403.484 96.4258 404.473 96.4258C405.348 96.4258 406.039 96.7311 406.545 97.3418C407.05 97.9525 407.303 98.7819 407.303 99.8301V100.377H401.951C401.96 101.398 402.197 102.177 402.662 102.715C403.131 103.253 403.801 103.521 404.672 103.521C405.095 103.521 405.467 103.492 405.786 103.433C406.109 103.373 406.517 103.246 407.009 103.05V103.665C406.59 103.847 406.203 103.97 405.847 104.034C405.492 104.103 405.1 104.137 404.672 104.137ZM404.473 97.0273C403.758 97.0273 403.184 97.2643 402.751 97.7383C402.318 98.2077 402.065 98.8867 401.992 99.7754H406.586C406.586 98.9141 406.399 98.2419 406.025 97.7588C405.651 97.2712 405.134 97.0273 404.473 97.0273ZM422.274 104V99.126C422.274 98.4014 422.133 97.8727 421.85 97.54C421.568 97.2074 421.135 97.041 420.551 97.041C419.79 97.041 419.227 97.2507 418.863 97.6699C418.498 98.0892 418.316 98.7477 418.316 99.6455V104H417.626V98.9209C417.626 97.6676 417.051 97.041 415.903 97.041C415.124 97.041 414.556 97.2689 414.201 97.7246C413.845 98.1758 413.668 98.9004 413.668 99.8984V104H412.991V96.5693H413.551L413.695 97.5879H413.736C413.941 97.2188 414.233 96.9339 414.611 96.7334C414.989 96.5283 415.406 96.4258 415.862 96.4258C417.033 96.4258 417.785 96.8656 418.118 97.7451H418.145C418.387 97.3213 418.71 96.9954 419.116 96.7676C419.526 96.5397 419.991 96.4258 420.51 96.4258C421.322 96.4258 421.93 96.6423 422.336 97.0752C422.741 97.5081 422.944 98.1963 422.944 99.1396V104H422.274ZM431.496 100.274C431.496 101.487 431.202 102.435 430.614 103.118C430.026 103.797 429.215 104.137 428.18 104.137C427.529 104.137 426.954 103.979 426.458 103.665C425.961 103.351 425.58 102.899 425.316 102.312C425.052 101.724 424.92 101.045 424.92 100.274C424.92 99.0622 425.214 98.1188 425.801 97.4443C426.389 96.7653 427.196 96.4258 428.221 96.4258C429.242 96.4258 430.042 96.7699 430.621 97.458C431.204 98.1416 431.496 99.0804 431.496 100.274ZM425.63 100.274C425.63 101.295 425.854 102.093 426.3 102.667C426.752 103.237 427.387 103.521 428.208 103.521C429.028 103.521 429.661 103.237 430.108 102.667C430.559 102.093 430.785 101.295 430.785 100.274C430.785 99.249 430.557 98.4538 430.101 97.8887C429.65 97.3236 429.014 97.041 428.194 97.041C427.374 97.041 426.74 97.3236 426.294 97.8887C425.852 98.4492 425.63 99.2445 425.63 100.274ZM438.161 102.065C438.161 102.731 437.908 103.243 437.402 103.604C436.896 103.959 436.178 104.137 435.249 104.137C434.255 104.137 433.467 103.984 432.883 103.679V102.947C433.631 103.321 434.419 103.508 435.249 103.508C435.982 103.508 436.538 103.387 436.917 103.146C437.299 102.899 437.491 102.574 437.491 102.168C437.491 101.794 437.338 101.48 437.033 101.225C436.732 100.969 436.235 100.719 435.543 100.473C434.8 100.204 434.278 99.9736 433.977 99.7822C433.676 99.5863 433.449 99.3675 433.294 99.126C433.143 98.8799 433.068 98.5814 433.068 98.2305C433.068 97.6745 433.3 97.2347 433.765 96.9111C434.235 96.5876 434.889 96.4258 435.727 96.4258C436.529 96.4258 437.29 96.5762 438.01 96.877L437.757 97.4922C437.028 97.1914 436.352 97.041 435.727 97.041C435.121 97.041 434.64 97.1413 434.285 97.3418C433.929 97.5423 433.752 97.8203 433.752 98.1758C433.752 98.5632 433.888 98.873 434.162 99.1055C434.44 99.3379 434.98 99.5977 435.782 99.8848C436.452 100.126 436.939 100.345 437.245 100.541C437.55 100.732 437.778 100.951 437.928 101.197C438.083 101.443 438.161 101.733 438.161 102.065ZM442.037 103.535C442.465 103.535 442.839 103.499 443.158 103.426V103.973C442.83 104.082 442.451 104.137 442.023 104.137C441.367 104.137 440.881 103.961 440.567 103.61C440.257 103.259 440.102 102.708 440.102 101.956V97.1572H439.002V96.7607L440.102 96.4531L440.444 94.7715H440.793V96.5693H442.973V97.1572H440.793V101.86C440.793 102.43 440.893 102.852 441.093 103.125C441.294 103.398 441.608 103.535 442.037 103.535ZM454.799 97.1572H453.049V104H452.373V97.1572H450.992V96.7607L452.373 96.5078V95.9336C452.373 95.0221 452.539 94.3545 452.872 93.9307C453.209 93.5023 453.758 93.2881 454.519 93.2881C454.929 93.2881 455.339 93.3496 455.75 93.4727L455.592 94.0605C455.228 93.9466 454.866 93.8896 454.505 93.8896C453.977 93.8896 453.601 94.0469 453.378 94.3613C453.159 94.6712 453.049 95.1771 453.049 95.8789V96.5693H454.799V97.1572ZM459.161 96.4258C459.475 96.4258 459.812 96.4577 460.172 96.5215L460.043 97.1709C459.733 97.0934 459.411 97.0547 459.079 97.0547C458.445 97.0547 457.926 97.3236 457.52 97.8613C457.115 98.3991 456.912 99.0781 456.912 99.8984V104H456.235V96.5693H456.809L456.878 97.9092H456.925C457.231 97.3623 457.557 96.9795 457.903 96.7607C458.249 96.5374 458.669 96.4258 459.161 96.4258ZM464.691 104.137C463.611 104.137 462.768 103.804 462.162 103.139C461.56 102.473 461.259 101.541 461.259 100.343C461.259 99.1579 461.551 98.21 462.134 97.499C462.718 96.7835 463.504 96.4258 464.493 96.4258C465.368 96.4258 466.058 96.7311 466.564 97.3418C467.07 97.9525 467.323 98.7819 467.323 99.8301V100.377H461.97C461.979 101.398 462.216 102.177 462.681 102.715C463.151 103.253 463.821 103.521 464.691 103.521C465.115 103.521 465.486 103.492 465.805 103.433C466.129 103.373 466.537 103.246 467.029 103.05V103.665C466.61 103.847 466.222 103.97 465.867 104.034C465.511 104.103 465.119 104.137 464.691 104.137ZM464.493 97.0273C463.777 97.0273 463.203 97.2643 462.77 97.7383C462.337 98.2077 462.084 98.8867 462.011 99.7754H466.605C466.605 98.9141 466.418 98.2419 466.045 97.7588C465.671 97.2712 465.154 97.0273 464.493 97.0273ZM472.019 104.137C471.044 104.137 470.287 103.813 469.75 103.166C469.212 102.519 468.943 101.585 468.943 100.363C468.943 99.11 469.212 98.1416 469.75 97.458C470.287 96.7699 471.058 96.4258 472.06 96.4258C473.136 96.4258 473.94 96.8223 474.473 97.6152H474.514L474.637 96.5693H475.212V107.363H474.542V104.533C474.542 103.977 474.555 103.412 474.583 102.838H474.542C474.004 103.704 473.163 104.137 472.019 104.137ZM472.033 103.535C472.935 103.535 473.578 103.287 473.961 102.79C474.348 102.293 474.542 101.459 474.542 100.288V100.206C474.542 99.0895 474.348 98.2829 473.961 97.7861C473.573 97.2894 472.956 97.041 472.108 97.041C471.306 97.041 470.695 97.3236 470.276 97.8887C469.861 98.4538 469.654 99.2832 469.654 100.377C469.654 101.421 469.857 102.209 470.262 102.742C470.672 103.271 471.263 103.535 472.033 103.535ZM478.301 96.5693V101.382C478.301 102.129 478.459 102.674 478.773 103.016C479.088 103.353 479.575 103.521 480.236 103.521C481.12 103.521 481.769 103.298 482.184 102.852C482.603 102.405 482.813 101.678 482.813 100.671V96.5693H483.483V104H482.909L482.786 102.975H482.745C482.262 103.749 481.403 104.137 480.168 104.137C478.477 104.137 477.631 103.232 477.631 101.423V96.5693H478.301ZM488.972 104.137C487.892 104.137 487.049 103.804 486.443 103.139C485.841 102.473 485.541 101.541 485.541 100.343C485.541 99.1579 485.832 98.21 486.416 97.499C486.999 96.7835 487.785 96.4258 488.774 96.4258C489.649 96.4258 490.339 96.7311 490.845 97.3418C491.351 97.9525 491.604 98.7819 491.604 99.8301V100.377H486.252C486.261 101.398 486.498 102.177 486.963 102.715C487.432 103.253 488.102 103.521 488.972 103.521C489.396 103.521 489.768 103.492 490.087 103.433C490.41 103.373 490.818 103.246 491.31 103.05V103.665C490.891 103.847 490.504 103.97 490.148 104.034C489.793 104.103 489.401 104.137 488.972 104.137ZM488.774 97.0273C488.059 97.0273 487.484 97.2643 487.051 97.7383C486.618 98.2077 486.366 98.8867 486.293 99.7754H490.886C490.886 98.9141 490.7 98.2419 490.326 97.7588C489.952 97.2712 489.435 97.0273 488.774 97.0273ZM498.837 104V99.1807C498.837 98.4333 498.679 97.891 498.365 97.5537C498.05 97.2119 497.563 97.041 496.902 97.041C496.013 97.041 495.362 97.2666 494.947 97.7178C494.537 98.1644 494.332 98.8913 494.332 99.8984V104H493.655V96.5693H494.229L494.359 97.5879H494.4C494.883 96.8132 495.742 96.4258 496.977 96.4258C498.663 96.4258 499.506 97.3304 499.506 99.1396V104H498.837ZM503.875 103.535C504.303 103.535 504.677 103.499 504.996 103.426V103.973C504.668 104.082 504.289 104.137 503.861 104.137C503.205 104.137 502.719 103.961 502.405 103.61C502.095 103.259 501.94 102.708 501.94 101.956V97.1572H500.839V96.7607L501.94 96.4531L502.282 94.7715H502.63V96.5693H504.811V97.1572H502.63V101.86C502.63 102.43 502.731 102.852 502.931 103.125C503.132 103.398 503.446 103.535 503.875 103.535ZM507.279 104H506.602V93.3633H507.279V104ZM508.53 96.5693H509.227L510.799 100.739C511.278 102.02 511.581 102.883 511.709 103.33H511.75C511.941 102.742 512.253 101.865 512.686 100.698L514.258 96.5693H514.956L511.627 105.203C511.358 105.905 511.132 106.379 510.95 106.625C510.768 106.871 510.553 107.056 510.307 107.179C510.066 107.302 509.772 107.363 509.425 107.363C509.166 107.363 508.876 107.315 508.557 107.22V106.632C508.822 106.705 509.106 106.741 509.412 106.741C509.644 106.741 509.849 106.687 510.027 106.577C510.205 106.468 510.364 106.297 510.505 106.064C510.651 105.837 510.818 105.472 511.005 104.971C511.196 104.474 511.319 104.15 511.374 104L508.53 96.5693ZM308.791 119.274C308.791 120.487 308.497 121.435 307.909 122.118C307.321 122.797 306.51 123.137 305.475 123.137C304.824 123.137 304.249 122.979 303.753 122.665C303.256 122.351 302.875 121.899 302.611 121.312C302.347 120.724 302.214 120.045 302.214 119.274C302.214 118.062 302.508 117.119 303.096 116.444C303.684 115.765 304.491 115.426 305.516 115.426C306.537 115.426 307.337 115.77 307.916 116.458C308.499 117.142 308.791 118.08 308.791 119.274ZM302.925 119.274C302.925 120.295 303.149 121.093 303.595 121.667C304.047 122.237 304.682 122.521 305.503 122.521C306.323 122.521 306.956 122.237 307.403 121.667C307.854 121.093 308.08 120.295 308.08 119.274C308.08 118.249 307.852 117.454 307.396 116.889C306.945 116.324 306.309 116.041 305.489 116.041C304.669 116.041 304.035 116.324 303.589 116.889C303.146 117.449 302.925 118.244 302.925 119.274ZM313.815 123.137C312.753 123.137 311.922 122.802 311.32 122.132C310.718 121.462 310.418 120.528 310.418 119.329C310.418 118.099 310.73 117.142 311.354 116.458C311.978 115.77 312.833 115.426 313.918 115.426C314.56 115.426 315.175 115.537 315.763 115.761L315.579 116.362C314.936 116.148 314.378 116.041 313.904 116.041C312.992 116.041 312.302 116.324 311.833 116.889C311.363 117.449 311.129 118.258 311.129 119.315C311.129 120.318 311.363 121.104 311.833 121.674C312.302 122.239 312.958 122.521 313.801 122.521C314.476 122.521 315.102 122.401 315.681 122.159V122.788C315.207 123.021 314.585 123.137 313.815 123.137ZM320.473 123.137C319.411 123.137 318.58 122.802 317.978 122.132C317.377 121.462 317.076 120.528 317.076 119.329C317.076 118.099 317.388 117.142 318.012 116.458C318.637 115.77 319.491 115.426 320.576 115.426C321.218 115.426 321.834 115.537 322.422 115.761L322.237 116.362C321.594 116.148 321.036 116.041 320.562 116.041C319.651 116.041 318.96 116.324 318.491 116.889C318.021 117.449 317.787 118.258 317.787 119.315C317.787 120.318 318.021 121.104 318.491 121.674C318.96 122.239 319.616 122.521 320.46 122.521C321.134 122.521 321.761 122.401 322.339 122.159V122.788C321.866 123.021 321.243 123.137 320.473 123.137ZM324.753 115.569V120.382C324.753 121.129 324.91 121.674 325.224 122.016C325.539 122.353 326.026 122.521 326.687 122.521C327.571 122.521 328.221 122.298 328.635 121.852C329.055 121.405 329.264 120.678 329.264 119.671V115.569H329.934V123H329.36L329.237 121.975H329.196C328.713 122.749 327.854 123.137 326.619 123.137C324.928 123.137 324.083 122.232 324.083 120.423V115.569H324.753ZM335.348 115.426C335.663 115.426 336 115.458 336.36 115.521L336.23 116.171C335.92 116.093 335.599 116.055 335.266 116.055C334.633 116.055 334.113 116.324 333.708 116.861C333.302 117.399 333.099 118.078 333.099 118.898V123H332.422V115.569H332.997L333.065 116.909H333.113C333.418 116.362 333.744 115.979 334.09 115.761C334.437 115.537 334.856 115.426 335.348 115.426ZM340.803 115.426C341.118 115.426 341.455 115.458 341.815 115.521L341.685 116.171C341.375 116.093 341.054 116.055 340.721 116.055C340.088 116.055 339.568 116.324 339.163 116.861C338.757 117.399 338.554 118.078 338.554 118.898V123H337.878V115.569H338.452L338.52 116.909H338.568C338.873 116.362 339.199 115.979 339.546 115.761C339.892 115.537 340.311 115.426 340.803 115.426ZM344.009 123H343.333V115.569H344.009V123ZM343.237 113.505C343.237 113.067 343.38 112.849 343.668 112.849C343.809 112.849 343.918 112.906 343.996 113.02C344.078 113.133 344.119 113.295 344.119 113.505C344.119 113.71 344.078 113.872 343.996 113.99C343.918 114.109 343.809 114.168 343.668 114.168C343.38 114.168 343.237 113.947 343.237 113.505ZM351.686 123V118.181C351.686 117.433 351.529 116.891 351.214 116.554C350.9 116.212 350.412 116.041 349.752 116.041C348.863 116.041 348.211 116.267 347.797 116.718C347.386 117.164 347.181 117.891 347.181 118.898V123H346.505V115.569H347.079L347.209 116.588H347.25C347.733 115.813 348.592 115.426 349.827 115.426C351.513 115.426 352.356 116.33 352.356 118.14V123H351.686ZM360.559 115.569V116.041L359.021 116.137C359.431 116.647 359.636 117.208 359.636 117.818C359.636 118.534 359.397 119.115 358.919 119.562C358.445 120.004 357.807 120.225 357.005 120.225C356.667 120.225 356.43 120.211 356.294 120.184C356.025 120.325 355.82 120.491 355.678 120.683C355.537 120.874 355.466 121.077 355.466 121.291C355.466 121.528 355.555 121.701 355.733 121.811C355.915 121.92 356.218 121.975 356.642 121.975H357.941C358.748 121.975 359.365 122.139 359.794 122.467C360.222 122.79 360.436 123.271 360.436 123.909C360.436 124.693 360.117 125.297 359.479 125.721C358.846 126.149 357.941 126.363 356.765 126.363C355.831 126.363 355.106 126.183 354.591 125.823C354.081 125.463 353.826 124.962 353.826 124.319C353.826 123.809 353.983 123.385 354.297 123.048C354.616 122.711 355.047 122.48 355.589 122.357C355.366 122.262 355.186 122.127 355.049 121.954C354.917 121.776 354.851 121.574 354.851 121.346C354.851 120.849 355.168 120.411 355.801 120.033C355.368 119.855 355.031 119.577 354.79 119.199C354.548 118.816 354.427 118.379 354.427 117.887C354.427 117.144 354.662 116.549 355.131 116.103C355.605 115.651 356.243 115.426 357.046 115.426C357.533 115.426 357.911 115.474 358.18 115.569H360.559ZM354.544 124.258C354.544 125.279 355.302 125.789 356.82 125.789C358.77 125.789 359.746 125.167 359.746 123.923C359.746 123.476 359.593 123.153 359.288 122.952C358.982 122.752 358.488 122.651 357.804 122.651H356.588C355.225 122.651 354.544 123.187 354.544 124.258ZM355.111 117.887C355.111 118.461 355.284 118.908 355.63 119.227C355.981 119.541 356.449 119.698 357.032 119.698C357.652 119.698 358.126 119.541 358.454 119.227C358.786 118.912 358.953 118.456 358.953 117.859C358.953 117.226 358.782 116.752 358.44 116.438C358.103 116.118 357.629 115.959 357.018 115.959C356.426 115.959 355.959 116.13 355.617 116.472C355.28 116.809 355.111 117.281 355.111 117.887ZM373.971 121.065C373.971 121.731 373.718 122.243 373.213 122.604C372.707 122.959 371.989 123.137 371.059 123.137C370.066 123.137 369.277 122.984 368.694 122.679V121.947C369.441 122.321 370.23 122.508 371.059 122.508C371.793 122.508 372.349 122.387 372.727 122.146C373.11 121.899 373.301 121.574 373.301 121.168C373.301 120.794 373.149 120.48 372.843 120.225C372.543 119.969 372.046 119.719 371.353 119.473C370.61 119.204 370.089 118.974 369.788 118.782C369.487 118.586 369.259 118.368 369.104 118.126C368.954 117.88 368.879 117.581 368.879 117.23C368.879 116.674 369.111 116.235 369.576 115.911C370.045 115.588 370.699 115.426 371.538 115.426C372.34 115.426 373.101 115.576 373.821 115.877L373.568 116.492C372.839 116.191 372.162 116.041 371.538 116.041C370.932 116.041 370.451 116.141 370.095 116.342C369.74 116.542 369.562 116.82 369.562 117.176C369.562 117.563 369.699 117.873 369.972 118.105C370.25 118.338 370.79 118.598 371.592 118.885C372.262 119.126 372.75 119.345 373.055 119.541C373.361 119.732 373.589 119.951 373.739 120.197C373.894 120.443 373.971 120.733 373.971 121.065ZM376.473 115.569V120.382C376.473 121.129 376.63 121.674 376.945 122.016C377.259 122.353 377.747 122.521 378.408 122.521C379.292 122.521 379.941 122.298 380.356 121.852C380.775 121.405 380.985 120.678 380.985 119.671V115.569H381.655V123H381.081L380.958 121.975H380.917C380.434 122.749 379.575 123.137 378.339 123.137C376.649 123.137 375.803 122.232 375.803 120.423V115.569H376.473ZM387.281 115.426C388.32 115.426 389.102 115.754 389.626 116.41C390.154 117.062 390.419 118.017 390.419 119.274C390.419 120.509 390.141 121.462 389.585 122.132C389.033 122.802 388.256 123.137 387.254 123.137C386.725 123.137 386.249 123.027 385.825 122.809C385.401 122.59 385.066 122.28 384.82 121.879H384.758L384.567 123H384.143V112.363H384.82V115.036C384.82 115.437 384.811 115.806 384.793 116.144L384.772 116.725H384.82C385.102 116.278 385.442 115.95 385.839 115.74C386.24 115.531 386.72 115.426 387.281 115.426ZM387.267 116.041C386.392 116.041 385.766 116.292 385.387 116.793C385.009 117.294 384.82 118.121 384.82 119.274V119.391C384.82 120.512 385.016 121.316 385.408 121.804C385.804 122.291 386.42 122.535 387.254 122.535C388.065 122.535 388.675 122.253 389.086 121.688C389.496 121.118 389.701 120.309 389.701 119.261C389.701 117.114 388.89 116.041 387.267 116.041ZM394.445 122.535C394.873 122.535 395.247 122.499 395.566 122.426V122.973C395.238 123.082 394.86 123.137 394.431 123.137C393.775 123.137 393.29 122.961 392.975 122.61C392.665 122.259 392.51 121.708 392.51 120.956V116.157H391.41V115.761L392.51 115.453L392.852 113.771H393.201V115.569H395.381V116.157H393.201V120.86C393.201 121.43 393.301 121.852 393.502 122.125C393.702 122.398 394.017 122.535 394.445 122.535ZM395.928 115.569H396.626L398.198 119.739C398.676 121.02 398.979 121.883 399.107 122.33H399.148C399.339 121.742 399.652 120.865 400.085 119.698L401.657 115.569H402.354L399.025 124.203C398.756 124.905 398.531 125.379 398.348 125.625C398.166 125.871 397.952 126.056 397.706 126.179C397.464 126.302 397.17 126.363 396.824 126.363C396.564 126.363 396.275 126.315 395.956 126.22V125.632C396.22 125.705 396.505 125.741 396.81 125.741C397.043 125.741 397.248 125.687 397.425 125.577C397.603 125.468 397.763 125.297 397.904 125.064C398.05 124.837 398.216 124.472 398.403 123.971C398.594 123.474 398.717 123.15 398.772 123L395.928 115.569ZM406.777 123.137C405.633 123.137 404.799 122.708 404.275 121.852H404.227L404.248 122.426C404.266 122.763 404.275 123.132 404.275 123.533V126.363H403.598V115.569H404.172L404.302 116.629H404.343C404.854 115.827 405.67 115.426 406.791 115.426C407.793 115.426 408.557 115.756 409.081 116.417C409.609 117.073 409.874 118.03 409.874 119.288C409.874 120.509 409.596 121.457 409.04 122.132C408.488 122.802 407.734 123.137 406.777 123.137ZM406.763 122.535C407.524 122.535 408.112 122.253 408.527 121.688C408.946 121.122 409.156 120.332 409.156 119.315C409.156 117.132 408.367 116.041 406.791 116.041C405.925 116.041 405.289 116.28 404.883 116.759C404.478 117.233 404.275 118.007 404.275 119.083V119.302C404.275 120.464 404.469 121.293 404.856 121.79C405.248 122.287 405.884 122.535 406.763 122.535ZM414.939 123.137C413.859 123.137 413.016 122.804 412.41 122.139C411.808 121.473 411.507 120.541 411.507 119.343C411.507 118.158 411.799 117.21 412.382 116.499C412.966 115.784 413.752 115.426 414.741 115.426C415.616 115.426 416.306 115.731 416.812 116.342C417.318 116.952 417.571 117.782 417.571 118.83V119.377H412.218C412.227 120.398 412.464 121.177 412.929 121.715C413.399 122.253 414.069 122.521 414.939 122.521C415.363 122.521 415.734 122.492 416.053 122.433C416.377 122.373 416.785 122.246 417.277 122.05V122.665C416.858 122.847 416.47 122.97 416.115 123.034C415.759 123.103 415.367 123.137 414.939 123.137ZM414.741 116.027C414.025 116.027 413.451 116.264 413.018 116.738C412.585 117.208 412.332 117.887 412.259 118.775H416.853C416.853 117.914 416.666 117.242 416.293 116.759C415.919 116.271 415.402 116.027 414.741 116.027ZM429.404 119.274C429.404 120.487 429.11 121.435 428.522 122.118C427.934 122.797 427.123 123.137 426.089 123.137C425.437 123.137 424.863 122.979 424.366 122.665C423.869 122.351 423.489 121.899 423.224 121.312C422.96 120.724 422.828 120.045 422.828 119.274C422.828 118.062 423.122 117.119 423.71 116.444C424.297 115.765 425.104 115.426 426.13 115.426C427.15 115.426 427.95 115.77 428.529 116.458C429.112 117.142 429.404 118.08 429.404 119.274ZM423.539 119.274C423.539 120.295 423.762 121.093 424.209 121.667C424.66 122.237 425.296 122.521 426.116 122.521C426.936 122.521 427.57 122.237 428.016 121.667C428.467 121.093 428.693 120.295 428.693 119.274C428.693 118.249 428.465 117.454 428.009 116.889C427.558 116.324 426.922 116.041 426.102 116.041C425.282 116.041 424.648 116.324 424.202 116.889C423.76 117.449 423.539 118.244 423.539 119.274ZM434.223 116.157H432.473V123H431.797V116.157H430.416V115.761L431.797 115.508V114.934C431.797 114.022 431.963 113.354 432.296 112.931C432.633 112.502 433.182 112.288 433.943 112.288C434.353 112.288 434.763 112.35 435.173 112.473L435.016 113.061C434.652 112.947 434.289 112.89 433.929 112.89C433.401 112.89 433.025 113.047 432.801 113.361C432.583 113.671 432.473 114.177 432.473 114.879V115.569H434.223V116.157ZM445.482 115.877C445.482 116.843 445.154 117.584 444.498 118.099C443.841 118.614 442.912 118.871 441.709 118.871H440.164V123H439.466V113.006H441.914C444.293 113.006 445.482 113.963 445.482 115.877ZM440.164 118.27H441.538C442.663 118.27 443.477 118.085 443.978 117.716C444.479 117.342 444.73 116.738 444.73 115.904C444.73 115.134 444.493 114.564 444.019 114.195C443.545 113.822 442.811 113.635 441.818 113.635H440.164V118.27ZM450.26 123H449.556V113.662H446.309V113.006H453.507V113.662H450.26V123ZM459.263 113.491C458.01 113.491 457.023 113.892 456.303 114.694C455.583 115.496 455.223 116.595 455.223 117.989C455.223 119.416 455.563 120.523 456.242 121.312C456.921 122.1 457.892 122.494 459.154 122.494C459.992 122.494 460.763 122.387 461.464 122.173V122.788C460.804 123.021 459.979 123.137 458.99 123.137C457.586 123.137 456.481 122.683 455.674 121.776C454.868 120.869 454.464 119.603 454.464 117.976C454.464 116.959 454.656 116.064 455.039 115.289C455.426 114.514 455.98 113.917 456.7 113.498C457.424 113.074 458.265 112.862 459.222 112.862C460.198 112.862 461.07 113.045 461.84 113.409L461.56 114.038C460.831 113.674 460.065 113.491 459.263 113.491ZM463.693 123V113.006H464.39V122.344H469.155V123H463.693Z" fill="#4D4D4F"/>
<path d="M323.898 96.877C323.898 97.8431 323.57 98.5837 322.914 99.0986C322.257 99.6136 321.328 99.8711 320.125 99.8711H318.58V104H317.882V94.0059H320.33C322.709 94.0059 323.898 94.9629 323.898 96.877ZM318.58 99.2695H319.954C321.079 99.2695 321.893 99.085 322.394 98.7158C322.895 98.3421 323.146 97.7383 323.146 96.9043C323.146 96.1341 322.909 95.5645 322.435 95.1953C321.961 94.8216 321.227 94.6348 320.234 94.6348H318.58V99.2695ZM328.676 104H327.972V94.6621H324.725V94.0059H331.923V94.6621H328.676V104ZM337.679 94.4912C336.426 94.4912 335.439 94.8923 334.719 95.6943C333.999 96.4964 333.639 97.5947 333.639 98.9893C333.639 100.416 333.979 101.523 334.658 102.312C335.337 103.1 336.308 103.494 337.57 103.494C338.408 103.494 339.179 103.387 339.88 103.173V103.788C339.22 104.021 338.395 104.137 337.406 104.137C336.002 104.137 334.897 103.683 334.09 102.776C333.284 101.869 332.88 100.603 332.88 98.9756C332.88 97.9593 333.072 97.0638 333.455 96.2891C333.842 95.5143 334.396 94.9173 335.116 94.498C335.84 94.0742 336.681 93.8623 337.638 93.8623C338.614 93.8623 339.486 94.0446 340.256 94.4092L339.976 95.0381C339.247 94.6735 338.481 94.4912 337.679 94.4912ZM342.109 104V94.0059H342.806V103.344H347.571V104H342.109ZM348.514 100.5V99.9395H351.761V100.5H348.514ZM361.079 104H360.375L354.455 95.127H354.4C354.455 96.1842 354.482 96.9818 354.482 97.5195V104H353.812V94.0059H354.509L360.422 102.865H360.464C360.422 102.045 360.402 101.266 360.402 100.527V94.0059H361.079V104ZM372.317 98.9893C372.317 100.575 371.921 101.831 371.128 102.756C370.335 103.676 369.241 104.137 367.846 104.137C366.456 104.137 365.365 103.676 364.572 102.756C363.779 101.831 363.382 100.571 363.382 98.9756C363.382 97.3851 363.781 96.1341 364.579 95.2227C365.381 94.3066 366.475 93.8486 367.86 93.8486C369.255 93.8486 370.346 94.3089 371.134 95.2295C371.923 96.1455 372.317 97.3988 372.317 98.9893ZM364.141 98.9893C364.141 100.42 364.46 101.528 365.098 102.312C365.736 103.091 366.652 103.48 367.846 103.48C369.049 103.48 369.968 103.093 370.601 102.318C371.239 101.544 371.558 100.434 371.558 98.9893C371.558 97.5492 371.239 96.4463 370.601 95.6807C369.968 94.9105 369.054 94.5254 367.86 94.5254C366.671 94.5254 365.752 94.9128 365.105 95.6875C364.463 96.4622 364.141 97.5628 364.141 98.9893ZM380.137 101.423C380.137 102.257 379.83 102.918 379.214 103.405C378.604 103.893 377.79 104.137 376.774 104.137C375.553 104.137 374.616 104.002 373.964 103.733V103.036C374.685 103.341 375.603 103.494 376.719 103.494C377.54 103.494 378.189 103.307 378.668 102.934C379.151 102.555 379.392 102.061 379.392 101.45C379.392 101.072 379.312 100.76 379.153 100.514C378.993 100.263 378.734 100.035 378.374 99.8301C378.014 99.625 377.485 99.404 376.788 99.167C375.767 98.8161 375.061 98.4378 374.669 98.0322C374.281 97.6221 374.088 97.0775 374.088 96.3984C374.088 95.651 374.379 95.0426 374.963 94.5732C375.55 94.0993 376.305 93.8623 377.225 93.8623C378.164 93.8623 379.046 94.04 379.871 94.3955L379.618 94.9971C378.788 94.6507 377.995 94.4775 377.239 94.4775C376.501 94.4775 375.913 94.6484 375.475 94.9902C375.038 95.332 374.819 95.7969 374.819 96.3848C374.819 96.7539 374.885 97.057 375.017 97.2939C375.154 97.5309 375.375 97.7451 375.68 97.9365C375.986 98.1234 376.51 98.349 377.253 98.6133C378.032 98.8822 378.617 99.1442 379.009 99.3994C379.401 99.6501 379.686 99.9372 379.864 100.261C380.046 100.58 380.137 100.967 380.137 101.423ZM382.851 102.373L382.933 102.517C382.591 103.724 382.195 104.82 381.744 105.805H381.299C381.65 104.551 381.901 103.408 382.051 102.373H382.851Z" fill="#3A92A7"/>
<path d="M326.192 76.0853C326.192 74.8776 326.368 73.7474 326.719 72.6946C327.074 71.6419 327.585 70.7191 328.25 69.9261H329.022C328.348 70.7555 327.831 71.6966 327.471 72.7493C327.111 73.7975 326.931 74.9049 326.931 76.0716C326.931 78.2728 327.623 80.2939 329.009 82.1351H328.25C327.58 81.3603 327.07 80.4557 326.719 79.4212C326.368 78.3867 326.192 77.2747 326.192 76.0853ZM336.528 74.1644C336.528 75.4769 336.355 76.5752 336.009 77.4593C335.667 78.3434 335.166 78.9974 334.505 79.4212C333.849 79.845 333.053 80.0569 332.119 80.0569C331.645 80.0569 331.208 79.9977 330.807 79.8792V79.2913C331.003 79.3551 331.237 79.4053 331.511 79.4417C331.789 79.4736 332.001 79.4896 332.146 79.4896C333.272 79.4896 334.154 79.084 334.792 78.2728C335.43 77.457 335.785 76.2698 335.858 74.7112H335.776C335.444 75.1487 335.047 75.486 334.587 75.723C334.127 75.9554 333.646 76.0716 333.145 76.0716C332.219 76.0716 331.497 75.8164 330.978 75.306C330.463 74.7956 330.205 74.0709 330.205 73.1321C330.205 72.1295 330.488 71.3183 331.053 70.6985C331.622 70.0788 332.361 69.7689 333.268 69.7689C333.924 69.7689 334.498 69.942 334.99 70.2884C335.482 70.6302 335.861 71.1338 336.125 71.7991C336.394 72.4645 336.528 73.2529 336.528 74.1644ZM333.268 70.3704C332.548 70.3704 331.973 70.6142 331.545 71.1019C331.117 71.5849 330.902 72.248 330.902 73.0911C330.902 73.8841 331.101 74.4857 331.497 74.8958C331.894 75.306 332.461 75.511 333.199 75.511C333.66 75.511 334.088 75.4085 334.484 75.2034C334.885 74.9984 335.202 74.7272 335.435 74.39C335.672 74.0482 335.79 73.7018 335.79 73.3509C335.79 72.8177 335.683 72.3187 335.469 71.8538C335.259 71.389 334.963 71.0267 334.58 70.7669C334.202 70.5026 333.764 70.3704 333.268 70.3704ZM341.115 73.9114C342.182 73.9114 343.02 74.1689 343.631 74.6839C344.246 75.1989 344.554 75.9075 344.554 76.8099C344.554 77.8353 344.235 78.6328 343.597 79.2025C342.959 79.7721 342.079 80.0569 340.958 80.0569C340.461 80.0569 339.99 80.0091 339.543 79.9134C339.096 79.8131 338.723 79.6719 338.422 79.4896V78.7855C338.914 79.0361 339.352 79.2116 339.734 79.3118C340.117 79.4075 340.525 79.4554 340.958 79.4554C341.833 79.4554 342.535 79.2252 343.063 78.765C343.592 78.3001 343.856 77.6735 343.856 76.8851C343.856 76.1422 343.599 75.5589 343.084 75.1351C342.569 74.7112 341.869 74.4993 340.985 74.4993C340.393 74.4993 339.773 74.5882 339.126 74.7659L338.716 74.4993L339.112 69.9261H343.925V70.5823H339.755L339.447 74.1097C340.158 73.9775 340.714 73.9114 341.115 73.9114ZM346.885 72.9066C346.885 73.7542 346.987 74.3922 347.192 74.8206C347.397 75.2444 347.719 75.4564 348.156 75.4564C349.036 75.4564 349.476 74.6064 349.476 72.9066C349.476 72.068 349.362 71.4391 349.134 71.0198C348.91 70.596 348.585 70.3841 348.156 70.3841C347.719 70.3841 347.397 70.596 347.192 71.0198C346.987 71.4391 346.885 72.068 346.885 72.9066ZM350.146 72.9066C350.146 73.9365 349.975 74.7204 349.633 75.2581C349.291 75.7913 348.799 76.0579 348.156 76.0579C347.55 76.0579 347.074 75.7845 346.728 75.2376C346.386 74.6862 346.215 73.9092 346.215 72.9066C346.215 71.8903 346.379 71.1155 346.707 70.5823C347.035 70.0491 347.518 69.7825 348.156 69.7825C348.79 69.7825 349.28 70.0582 349.626 70.6097C349.972 71.1566 350.146 71.9222 350.146 72.9066ZM352.709 76.9261C352.709 77.7692 352.812 78.4026 353.017 78.8265C353.222 79.2457 353.543 79.4554 353.98 79.4554C354.86 79.4554 355.3 78.6123 355.3 76.9261C355.3 75.2444 354.86 74.4036 353.98 74.4036C353.543 74.4036 353.222 74.6133 353.017 75.0325C352.812 75.4472 352.709 76.0784 352.709 76.9261ZM355.97 76.9261C355.97 77.956 355.801 78.7399 355.464 79.2776C355.127 79.8109 354.637 80.0775 353.994 80.0775C353.374 80.0775 352.894 79.8017 352.552 79.2503C352.21 78.6943 352.039 77.9196 352.039 76.9261C352.039 75.9007 352.205 75.1237 352.538 74.595C352.875 74.0664 353.361 73.8021 353.994 73.8021C354.618 73.8021 355.104 74.0755 355.45 74.6224C355.797 75.1693 355.97 75.9372 355.97 76.9261ZM354.192 69.9261L348.648 79.9202H347.992L353.536 69.9261H354.192ZM366.066 70.4114C364.813 70.4114 363.826 70.8125 363.106 71.6146C362.386 72.4166 362.026 73.515 362.026 74.9095C362.026 76.3359 362.366 77.4433 363.045 78.2318C363.724 79.0202 364.695 79.4144 365.957 79.4144C366.796 79.4144 367.566 79.3073 368.268 79.0931V79.7083C367.607 79.9407 366.782 80.0569 365.793 80.0569C364.389 80.0569 363.284 79.6035 362.478 78.6966C361.671 77.7897 361.268 76.5228 361.268 74.8958C361.268 73.8795 361.459 72.984 361.842 72.2093C362.229 71.4345 362.783 70.8375 363.503 70.4183C364.228 69.9944 365.068 69.7825 366.025 69.7825C367.001 69.7825 367.873 69.9648 368.644 70.3294L368.363 70.9583C367.634 70.5937 366.868 70.4114 366.066 70.4114ZM370.496 79.9202V69.9261H371.193V79.9202H370.496ZM374.625 78.2933L374.707 78.4368C374.365 79.6445 373.969 80.7405 373.518 81.7249H373.073C373.424 80.4717 373.675 79.3278 373.825 78.2933H374.625ZM383.915 79.9202H383.245V72.64C383.245 71.9791 383.272 71.2933 383.327 70.5823C383.259 70.6507 383.188 70.7168 383.115 70.7806C383.042 70.8444 382.338 71.3981 381.003 72.4417L380.613 71.9564L383.327 69.9261H383.915V79.9202ZM395.051 77.3704H393.328V79.9202H392.686V77.3704H387.545V76.9124L392.501 69.8714H393.328V76.7825H395.051V77.3704ZM392.686 76.7825V73.9251C392.686 72.5488 392.717 71.3935 392.781 70.4593H392.727C392.635 70.6279 392.355 71.0563 391.886 71.7444L388.358 76.7825H392.686ZM396.356 79.387C396.356 78.9404 396.539 78.7171 396.903 78.7171C397.277 78.7171 397.464 78.9404 397.464 79.387C397.464 79.8336 397.277 80.0569 396.903 80.0569C396.539 80.0569 396.356 79.8336 396.356 79.387ZM402.256 73.9114C403.322 73.9114 404.161 74.1689 404.771 74.6839C405.387 75.1989 405.694 75.9075 405.694 76.8099C405.694 77.8353 405.375 78.6328 404.737 79.2025C404.099 79.7721 403.22 80.0569 402.099 80.0569C401.602 80.0569 401.13 80.0091 400.684 79.9134C400.237 79.8131 399.863 79.6719 399.562 79.4896V78.7855C400.055 79.0361 400.492 79.2116 400.875 79.3118C401.258 79.4075 401.666 79.4554 402.099 79.4554C402.974 79.4554 403.675 79.2252 404.204 78.765C404.733 78.3001 404.997 77.6735 404.997 76.8851C404.997 76.1422 404.74 75.5589 404.225 75.1351C403.71 74.7112 403.01 74.4993 402.126 74.4993C401.534 74.4993 400.914 74.5882 400.267 74.7659L399.856 74.4993L400.253 69.9261H405.065V70.5823H400.896L400.588 74.1097C401.299 73.9775 401.855 73.9114 402.256 73.9114ZM407.212 76.4202V75.8597H410.459V76.4202H407.212ZM417.787 72.2776C417.787 72.8974 417.591 73.4193 417.199 73.8431C416.812 74.2669 416.29 74.5381 415.634 74.6566V74.6976C416.436 74.7978 417.047 75.053 417.466 75.4632C417.885 75.8734 418.095 76.4248 418.095 77.1175C418.095 78.0517 417.776 78.7763 417.138 79.2913C416.504 79.8017 415.59 80.0569 414.396 80.0569C413.38 80.0569 412.494 79.8678 411.737 79.4896V78.8128C412.12 79.0133 412.549 79.1706 413.022 79.2845C413.501 79.3984 413.95 79.4554 414.369 79.4554C415.376 79.4554 416.133 79.2526 416.639 78.847C417.145 78.4368 417.397 77.8603 417.397 77.1175C417.397 76.4567 417.138 75.9485 416.618 75.5931C416.103 75.2376 415.344 75.0599 414.342 75.0599H413.262V74.4036H414.355C415.185 74.4036 415.841 74.2077 416.324 73.8157C416.812 73.4193 417.056 72.8838 417.056 72.2093C417.056 71.6533 416.857 71.209 416.461 70.8763C416.069 70.539 415.554 70.3704 414.916 70.3704C414.419 70.3704 413.966 70.4411 413.556 70.5823C413.146 70.7191 412.685 70.956 412.175 71.2933L411.84 70.8353C412.227 70.5117 412.694 70.2565 413.241 70.0696C413.788 69.8782 414.342 69.7825 414.902 69.7825C415.823 69.7825 416.534 70.0013 417.035 70.4388C417.536 70.8717 417.787 71.4847 417.787 72.2776ZM426.893 77.3704H425.17V79.9202H424.527V77.3704H419.387V76.9124L424.343 69.8714H425.17V76.7825H426.893V77.3704ZM424.527 76.7825V73.9251C424.527 72.5488 424.559 71.3935 424.623 70.4593H424.568C424.477 70.6279 424.197 71.0563 423.728 71.7444L420.2 76.7825H424.527ZM428.198 79.387C428.198 78.9404 428.381 78.7171 428.745 78.7171C429.119 78.7171 429.306 78.9404 429.306 79.387C429.306 79.8336 429.119 80.0569 428.745 80.0569C428.381 80.0569 428.198 79.8336 428.198 79.387ZM438.227 77.3704H436.504V79.9202H435.861V77.3704H430.721V76.9124L435.677 69.8714H436.504V76.7825H438.227V77.3704ZM435.861 76.7825V73.9251C435.861 72.5488 435.893 71.3935 435.957 70.4593H435.902C435.811 70.6279 435.531 71.0563 435.062 71.7444L431.534 76.7825H435.861ZM440.496 78.2933L440.578 78.4368C440.236 79.6445 439.84 80.7405 439.389 81.7249H438.944C439.076 81.2829 439.218 80.7223 439.368 80.0433C439.519 79.3688 439.628 78.7855 439.696 78.2933H440.496ZM439.532 73.2825C439.532 72.8359 439.715 72.6126 440.079 72.6126C440.453 72.6126 440.64 72.8359 440.64 73.2825C440.64 73.5241 440.585 73.6972 440.476 73.8021C440.371 73.9069 440.239 73.9593 440.079 73.9593C439.924 73.9593 439.794 73.9069 439.689 73.8021C439.585 73.6972 439.532 73.5241 439.532 73.2825ZM451.823 79.9202V75.1009C451.823 74.3535 451.666 73.8112 451.352 73.4739C451.037 73.1321 450.549 72.9612 449.889 72.9612C449 72.9612 448.348 73.1868 447.934 73.638C447.523 74.0846 447.318 74.8115 447.318 75.8187V79.9202H446.642V72.4896H447.216L447.346 73.5081H447.387C447.87 72.7334 448.729 72.346 449.964 72.346C451.65 72.346 452.493 73.2506 452.493 75.0599V79.9202H451.823ZM458.051 73.8704V73.3099H464.531V73.8704H458.051ZM458.051 76.6595V76.0989H464.531V76.6595H458.051ZM473.589 79.9202H472.919V72.64C472.919 71.9791 472.946 71.2933 473.001 70.5823C472.933 70.6507 472.862 70.7168 472.789 70.7806C472.716 70.8444 472.012 71.3981 470.677 72.4417L470.287 71.9564L473.001 69.9261H473.589V79.9202ZM480.903 69.7552C481.751 69.7552 482.432 69.9717 482.947 70.4046C483.467 70.8375 483.727 71.4232 483.727 72.1614C483.727 72.6719 483.565 73.123 483.241 73.515C482.922 73.9069 482.403 74.2692 481.683 74.6019C482.558 74.9619 483.173 75.3561 483.528 75.7845C483.884 76.2129 484.062 76.7324 484.062 77.3431C484.062 78.1679 483.772 78.8265 483.193 79.3187C482.619 79.8109 481.847 80.0569 480.876 80.0569C479.869 80.0569 479.096 79.8268 478.559 79.3665C478.021 78.9062 477.752 78.2363 477.752 77.3568C477.752 76.7597 477.941 76.2357 478.319 75.7845C478.698 75.3333 479.283 74.9482 480.076 74.6292C479.342 74.2829 478.825 73.9183 478.524 73.5355C478.224 73.1481 478.073 72.6855 478.073 72.1478C478.073 71.6693 478.194 71.25 478.436 70.89C478.677 70.5254 479.014 70.2451 479.447 70.0491C479.885 69.8532 480.37 69.7552 480.903 69.7552ZM478.449 77.4593C478.449 78.0882 478.661 78.5758 479.085 78.9222C479.513 79.2685 480.11 79.4417 480.876 79.4417C481.623 79.4417 482.225 79.2594 482.681 78.8948C483.136 78.5257 483.364 78.0267 483.364 77.3978C483.364 76.8327 483.184 76.3747 482.824 76.0237C482.469 75.6683 481.781 75.2969 480.76 74.9095C479.921 75.2331 479.326 75.5908 478.976 75.9827C478.625 76.3747 478.449 76.8668 478.449 77.4593ZM480.89 70.3704C480.247 70.3704 479.73 70.5299 479.338 70.8489C478.951 71.1634 478.757 71.5963 478.757 72.1478C478.757 72.4668 478.827 72.7493 478.969 72.9954C479.115 73.237 479.322 73.458 479.591 73.6585C479.864 73.8545 480.32 74.0846 480.958 74.3489C481.701 74.0618 482.234 73.7451 482.558 73.3987C482.881 73.0524 483.043 72.6354 483.043 72.1478C483.043 71.6009 482.849 71.1679 482.462 70.8489C482.079 70.5299 481.555 70.3704 480.89 70.3704ZM488.17 76.0853C488.17 77.2838 487.992 78.4004 487.637 79.4349C487.286 80.4694 486.778 81.3694 486.112 82.1351H485.354C486.739 80.2939 487.432 78.2728 487.432 76.0716C487.432 74.9004 487.252 73.7907 486.892 72.7425C486.532 71.6898 486.014 70.751 485.34 69.9261H486.112C486.782 70.7236 487.293 71.651 487.644 72.7083C487.994 73.761 488.17 74.8867 488.17 76.0853Z" fill="#4D4D4F"/>
</g>
<defs>
<clipPath id="clip0">
<rect width="542" height="157" fill="white"/>
</clipPath>
</defs>
</svg>
