<svg width="637" height="221" viewBox="0 0 637 221" fill="none" xmlns="http://www.w3.org/2000/svg">
<path d="M14.7402 6.72266H19.7207C21.6608 6.72266 23.0996 7.01237 24.0371 7.5918C24.9811 8.16471 25.4531 9.0599 25.4531 10.2773C25.4531 11.0781 25.248 11.7617 24.8379 12.3281C24.4277 12.8945 23.8874 13.2591 23.2168 13.4219V13.5195C24.1022 13.7539 24.7435 14.1445 25.1406 14.6914C25.5378 15.2383 25.7363 15.9479 25.7363 16.8203C25.7363 18.1159 25.248 19.138 24.2715 19.8867C23.3014 20.6289 21.9766 21 20.2969 21H14.7402V6.72266ZM18.5977 12.2012H19.7598C20.3132 12.2012 20.7396 12.0872 21.0391 11.8594C21.3451 11.6315 21.498 11.293 21.498 10.8438C21.498 10.043 20.8926 9.64258 19.6816 9.64258H18.5977V12.2012ZM18.5977 15.0234V18.0215H19.9551C21.1595 18.0215 21.7617 17.5137 21.7617 16.498C21.7617 16.0228 21.599 15.6582 21.2734 15.4043C20.9544 15.1504 20.4889 15.0234 19.877 15.0234H18.5977ZM36.6934 21H28.2168V6.72266H36.6934V9.81836H32.0742V12.0645H36.3516V15.1602H32.0742V17.8555H36.6934V21ZM39.1934 21V6.72266H43.0508V17.8848H48.5488V21H39.1934ZM59.3105 21H50.834V6.72266H59.3105V9.81836H54.6914V12.0645H58.9688V15.1602H54.6914V17.8555H59.3105V21ZM75.1699 13.8418C75.1699 16.2441 74.5807 18.0703 73.4023 19.3203C72.224 20.5703 70.4987 21.1953 68.2266 21.1953C65.987 21.1953 64.2682 20.5671 63.0703 19.3105C61.8789 18.054 61.2832 16.2246 61.2832 13.8223C61.2832 11.446 61.8757 9.63281 63.0605 8.38281C64.252 7.1263 65.9805 6.49805 68.2461 6.49805C70.5182 6.49805 72.2402 7.11979 73.4121 8.36328C74.584 9.60677 75.1699 11.4329 75.1699 13.8418ZM65.3457 13.8418C65.3457 16.6022 66.306 17.9824 68.2266 17.9824C69.2031 17.9824 69.9258 17.6471 70.3945 16.9766C70.8698 16.306 71.1074 15.2611 71.1074 13.8418C71.1074 12.416 70.8665 11.3646 70.3848 10.6875C69.9095 10.0039 69.1966 9.66211 68.2461 9.66211C66.3125 9.66211 65.3457 11.0553 65.3457 13.8418ZM89.8672 13.5586C89.8672 15.9414 89.2096 17.7773 87.8945 19.0664C86.5859 20.3555 84.7435 21 82.3672 21H77.748V6.72266H82.6895C84.9811 6.72266 86.7487 7.30859 87.9922 8.48047C89.2422 9.65234 89.8672 11.3451 89.8672 13.5586ZM85.8633 13.6953C85.8633 12.3867 85.6029 11.4167 85.082 10.7852C84.5677 10.1536 83.7832 9.83789 82.7285 9.83789H81.6055V17.8359H82.4648C83.6367 17.8359 84.4961 17.4974 85.043 16.8203C85.5898 16.1367 85.8633 15.0951 85.8633 13.6953ZM101.195 21L100.492 18.3242H95.8535L95.1309 21H90.8926L95.5508 6.66406H100.697L105.414 21H101.195ZM99.6914 15.1602L99.0762 12.8164C98.9329 12.2956 98.7572 11.6217 98.5488 10.7949C98.347 9.9681 98.2135 9.37565 98.1484 9.01758C98.0898 9.34961 97.9727 9.89648 97.7969 10.6582C97.6276 11.4199 97.2467 12.9206 96.6543 15.1602H99.6914ZM120.326 13.8418C120.326 17.0775 119.298 19.2585 117.24 20.3848L120.727 24.3984H115.922L113.402 21.2246L113.393 21.2148V21.2051L113.383 21.1953C111.143 21.1953 109.424 20.5671 108.227 19.3105C107.035 18.054 106.439 16.2246 106.439 13.8223C106.439 11.446 107.032 9.63281 108.217 8.38281C109.408 7.1263 111.137 6.49805 113.402 6.49805C115.674 6.49805 117.396 7.11979 118.568 8.36328C119.74 9.60677 120.326 11.4329 120.326 13.8418ZM110.502 13.8418C110.502 16.6022 111.462 17.9824 113.383 17.9824C114.359 17.9824 115.082 17.6471 115.551 16.9766C116.026 16.306 116.264 15.2611 116.264 13.8418C116.264 12.416 116.023 11.3646 115.541 10.6875C115.066 10.0039 114.353 9.66211 113.402 9.66211C111.469 9.66211 110.502 11.0553 110.502 13.8418Z" fill="#442A8B"/>
<path d="M136.518 21H128.441V6.72266H136.518V8.69531H130.775V12.582H136.156V14.5352H130.775V19.0176H136.518V21ZM150.131 21H147.445L143.871 15.1602L140.268 21H137.768L142.504 13.5977L138.07 6.72266H140.668L143.969 12.123L147.27 6.72266H149.789L145.326 13.6367L150.131 21ZM158.129 8.51953C156.788 8.51953 155.733 8.99479 154.965 9.94531C154.197 10.8958 153.812 12.2077 153.812 13.8809C153.812 15.6322 154.18 16.957 154.916 17.8555C155.658 18.7539 156.729 19.2031 158.129 19.2031C158.734 19.2031 159.32 19.1445 159.887 19.0273C160.453 18.9036 161.042 18.7474 161.654 18.5586V20.5605C160.535 20.9837 159.265 21.1953 157.846 21.1953C155.756 21.1953 154.151 20.5638 153.031 19.3008C151.911 18.0312 151.352 16.2181 151.352 13.8613C151.352 12.377 151.622 11.0781 152.162 9.96484C152.709 8.85156 153.497 7.9987 154.525 7.40625C155.554 6.8138 156.762 6.51758 158.148 6.51758C159.607 6.51758 160.954 6.82357 162.191 7.43555L161.352 9.37891C160.87 9.15104 160.359 8.95247 159.818 8.7832C159.285 8.60742 158.721 8.51953 158.129 8.51953ZM172.807 21H164.73V6.72266H172.807V8.69531H167.064V12.582H172.445V14.5352H167.064V19.0176H172.807V21ZM183.979 21H175.902V6.72266H183.979V8.69531H178.236V12.582H183.617V14.5352H178.236V19.0176H183.979V21ZM198.686 13.7246C198.686 16.0814 198.031 17.8848 196.723 19.1348C195.414 20.3783 193.529 21 191.068 21H187.074V6.72266H191.488C193.76 6.72266 195.528 7.33464 196.791 8.55859C198.054 9.78255 198.686 11.5046 198.686 13.7246ZM196.225 13.8027C196.225 10.3848 194.626 8.67578 191.43 8.67578H189.408V19.0371H191.068C194.506 19.0371 196.225 17.2923 196.225 13.8027ZM209.994 17.123C209.994 18.3926 209.535 19.3887 208.617 20.1113C207.699 20.834 206.433 21.1953 204.818 21.1953C203.204 21.1953 201.882 20.9447 200.854 20.4434V18.2363C201.505 18.5423 202.195 18.7832 202.924 18.959C203.66 19.1348 204.343 19.2227 204.975 19.2227C205.899 19.2227 206.579 19.0469 207.016 18.6953C207.458 18.3438 207.68 17.8717 207.68 17.2793C207.68 16.7454 207.478 16.293 207.074 15.9219C206.671 15.5508 205.837 15.1113 204.574 14.6035C203.272 14.0762 202.354 13.474 201.82 12.7969C201.286 12.1198 201.02 11.306 201.02 10.3555C201.02 9.16406 201.443 8.22656 202.289 7.54297C203.135 6.85938 204.271 6.51758 205.697 6.51758C207.064 6.51758 208.425 6.81706 209.779 7.41602L209.037 9.32031C207.768 8.78646 206.635 8.51953 205.639 8.51953C204.883 8.51953 204.311 8.68555 203.92 9.01758C203.529 9.3431 203.334 9.77604 203.334 10.3164C203.334 10.6875 203.412 11.0065 203.568 11.2734C203.725 11.5339 203.982 11.7812 204.34 12.0156C204.698 12.25 205.342 12.5592 206.273 12.9434C207.322 13.3796 208.09 13.7865 208.578 14.1641C209.066 14.5417 209.424 14.9681 209.652 15.4434C209.88 15.9186 209.994 16.4785 209.994 17.123ZM222.885 21H220.551V8.72461H216.352V6.72266H227.084V8.72461H222.885V21ZM240.541 21H238.197V14.5645H231.615V21H229.281V6.72266H231.615V12.5625H238.197V6.72266H240.541V21ZM252.377 21H244.301V6.72266H252.377V8.69531H246.635V12.582H252.016V14.5352H246.635V19.0176H252.377V21ZM265.6 21H263.266V8.72461H259.066V6.72266H269.799V8.72461H265.6V21ZM280.854 21L279.428 17.0352H273.969L272.572 21H270.111L275.453 6.66406H277.992L283.334 21H280.854ZM278.812 15.0234L277.475 11.1367C277.377 10.8763 277.24 10.4661 277.064 9.90625C276.895 9.34635 276.778 8.9362 276.713 8.67578C276.537 9.47656 276.28 10.3522 275.941 11.3027L274.652 15.0234H278.812ZM287.553 13.3633H289.174C290.261 13.3633 291.049 13.1615 291.537 12.7578C292.025 12.3542 292.27 11.7552 292.27 10.9609C292.27 10.1536 292.006 9.57422 291.479 9.22266C290.951 8.87109 290.157 8.69531 289.096 8.69531H287.553V13.3633ZM287.553 15.2969V21H285.219V6.72266H289.252C291.094 6.72266 292.458 7.06771 293.344 7.75781C294.229 8.44792 294.672 9.48958 294.672 10.8828C294.672 12.6602 293.747 13.9264 291.898 14.6816L295.932 21H293.275L289.857 15.2969H287.553ZM303.852 13.2559H309.105V20.4238C308.246 20.7038 307.419 20.9023 306.625 21.0195C305.837 21.1367 304.984 21.1953 304.066 21.1953C301.905 21.1953 300.238 20.5573 299.066 19.2812C297.895 17.9987 297.309 16.1921 297.309 13.8613C297.309 11.5632 297.969 9.76628 299.291 8.4707C300.613 7.16862 302.432 6.51758 304.75 6.51758C306.241 6.51758 307.654 6.80404 308.988 7.37695L308.168 9.32031C307.009 8.78646 305.85 8.51953 304.691 8.51953C303.168 8.51953 301.964 8.99805 301.078 9.95508C300.193 10.9121 299.75 12.2207 299.75 13.8809C299.75 15.6257 300.147 16.9538 300.941 17.8652C301.742 18.7702 302.891 19.2227 304.389 19.2227C305.144 19.2227 305.951 19.1283 306.811 18.9395V15.2578H303.852V13.2559ZM320.619 21H312.543V6.72266H320.619V8.69531H314.877V12.582H320.258V14.5352H314.877V19.0176H320.619V21ZM328.646 21H326.312V8.72461H322.113V6.72266H332.846V8.72461H328.646V21ZM342.572 13.3633H344.193C345.281 13.3633 346.068 13.1615 346.557 12.7578C347.045 12.3542 347.289 11.7552 347.289 10.9609C347.289 10.1536 347.025 9.57422 346.498 9.22266C345.971 8.87109 345.176 8.69531 344.115 8.69531H342.572V13.3633ZM342.572 15.2969V21H340.238V6.72266H344.271C346.114 6.72266 347.478 7.06771 348.363 7.75781C349.249 8.44792 349.691 9.48958 349.691 10.8828C349.691 12.6602 348.767 13.9264 346.918 14.6816L350.951 21H348.295L344.877 15.2969H342.572ZM361.107 21H353.031V6.72266H361.107V8.69531H355.365V12.582H360.746V14.5352H355.365V19.0176H361.107V21ZM372.436 17.123C372.436 18.3926 371.977 19.3887 371.059 20.1113C370.141 20.834 368.874 21.1953 367.26 21.1953C365.645 21.1953 364.324 20.9447 363.295 20.4434V18.2363C363.946 18.5423 364.636 18.7832 365.365 18.959C366.101 19.1348 366.785 19.2227 367.416 19.2227C368.34 19.2227 369.021 19.0469 369.457 18.6953C369.9 18.3438 370.121 17.8717 370.121 17.2793C370.121 16.7454 369.919 16.293 369.516 15.9219C369.112 15.5508 368.279 15.1113 367.016 14.6035C365.714 14.0762 364.796 13.474 364.262 12.7969C363.728 12.1198 363.461 11.306 363.461 10.3555C363.461 9.16406 363.884 8.22656 364.73 7.54297C365.577 6.85938 366.713 6.51758 368.139 6.51758C369.506 6.51758 370.867 6.81706 372.221 7.41602L371.479 9.32031C370.209 8.78646 369.076 8.51953 368.08 8.51953C367.325 8.51953 366.752 8.68555 366.361 9.01758C365.971 9.3431 365.775 9.77604 365.775 10.3164C365.775 10.6875 365.854 11.0065 366.01 11.2734C366.166 11.5339 366.423 11.7812 366.781 12.0156C367.139 12.25 367.784 12.5592 368.715 12.9434C369.763 13.3796 370.531 13.7865 371.02 14.1641C371.508 14.5417 371.866 14.9681 372.094 15.4434C372.322 15.9186 372.436 16.4785 372.436 17.123ZM384.652 11.0391C384.652 12.5299 384.164 13.6725 383.188 14.4668C382.211 15.2611 380.821 15.6582 379.018 15.6582H377.533V21H375.199V6.72266H379.311C381.094 6.72266 382.429 7.08724 383.314 7.81641C384.206 8.54557 384.652 9.61979 384.652 11.0391ZM377.533 13.6953H378.773C379.971 13.6953 380.85 13.487 381.41 13.0703C381.97 12.6536 382.25 12.0026 382.25 11.1172C382.25 10.2969 381.999 9.6849 381.498 9.28125C380.997 8.8776 380.215 8.67578 379.154 8.67578H377.533V13.6953ZM400.18 13.8418C400.18 16.166 399.597 17.9727 398.432 19.2617C397.273 20.5508 395.629 21.1953 393.5 21.1953C391.345 21.1953 389.688 20.5573 388.529 19.2812C387.377 17.9987 386.801 16.179 386.801 13.8223C386.801 11.4655 387.38 9.6556 388.539 8.39258C389.704 7.12956 391.365 6.49805 393.52 6.49805C395.642 6.49805 397.283 7.13932 398.441 8.42188C399.6 9.70443 400.18 11.5111 400.18 13.8418ZM389.281 13.8418C389.281 15.5996 389.636 16.9342 390.346 17.8457C391.055 18.7507 392.107 19.2031 393.5 19.2031C394.887 19.2031 395.932 18.7539 396.635 17.8555C397.344 16.957 397.699 15.6191 397.699 13.8418C397.699 12.0905 397.348 10.7624 396.645 9.85742C395.948 8.95247 394.906 8.5 393.52 8.5C392.12 8.5 391.062 8.95247 390.346 9.85742C389.636 10.7624 389.281 12.0905 389.281 13.8418ZM415.141 21H412.279L405.258 9.62305H405.18L405.229 10.2578C405.32 11.4688 405.365 12.5755 405.365 13.5781V21H403.246V6.72266H406.078L413.08 18.041H413.139C413.126 17.8913 413.1 17.3477 413.061 16.4102C413.021 15.4661 413.002 14.7305 413.002 14.2031V6.72266H415.141V21ZM427.143 17.123C427.143 18.3926 426.684 19.3887 425.766 20.1113C424.848 20.834 423.581 21.1953 421.967 21.1953C420.352 21.1953 419.031 20.9447 418.002 20.4434V18.2363C418.653 18.5423 419.343 18.7832 420.072 18.959C420.808 19.1348 421.492 19.2227 422.123 19.2227C423.048 19.2227 423.728 19.0469 424.164 18.6953C424.607 18.3438 424.828 17.8717 424.828 17.2793C424.828 16.7454 424.626 16.293 424.223 15.9219C423.819 15.5508 422.986 15.1113 421.723 14.6035C420.421 14.0762 419.503 13.474 418.969 12.7969C418.435 12.1198 418.168 11.306 418.168 10.3555C418.168 9.16406 418.591 8.22656 419.438 7.54297C420.284 6.85938 421.42 6.51758 422.846 6.51758C424.213 6.51758 425.574 6.81706 426.928 7.41602L426.186 9.32031C424.916 8.78646 423.783 8.51953 422.787 8.51953C422.032 8.51953 421.459 8.68555 421.068 9.01758C420.678 9.3431 420.482 9.77604 420.482 10.3164C420.482 10.6875 420.561 11.0065 420.717 11.2734C420.873 11.5339 421.13 11.7812 421.488 12.0156C421.846 12.25 422.491 12.5592 423.422 12.9434C424.47 13.3796 425.238 13.7865 425.727 14.1641C426.215 14.5417 426.573 14.9681 426.801 15.4434C427.029 15.9186 427.143 16.4785 427.143 17.123ZM437.982 21H429.906V6.72266H437.982V8.69531H432.24V12.582H437.621V14.5352H432.24V19.0176H437.982V21ZM448.607 13.3633H450.229C451.316 13.3633 452.104 13.1615 452.592 12.7578C453.08 12.3542 453.324 11.7552 453.324 10.9609C453.324 10.1536 453.061 9.57422 452.533 9.22266C452.006 8.87109 451.212 8.69531 450.15 8.69531H448.607V13.3633ZM448.607 15.2969V21H446.273V6.72266H450.307C452.149 6.72266 453.513 7.06771 454.398 7.75781C455.284 8.44792 455.727 9.48958 455.727 10.8828C455.727 12.6602 454.802 13.9264 452.953 14.6816L456.986 21H454.33L450.912 15.2969H448.607ZM467.924 21L466.498 17.0352H461.039L459.643 21H457.182L462.523 6.66406H465.062L470.404 21H467.924ZM465.883 15.0234L464.545 11.1367C464.447 10.8763 464.311 10.4661 464.135 9.90625C463.965 9.34635 463.848 8.9362 463.783 8.67578C463.607 9.47656 463.35 10.3522 463.012 11.3027L461.723 15.0234H465.883ZM477.221 21H474.887V8.72461H470.688V6.72266H481.42V8.72461H477.221V21ZM491.693 21H483.617V6.72266H491.693V8.69531H485.951V12.582H491.332V14.5352H485.951V19.0176H491.693V21ZM506.059 8.51953C504.717 8.51953 503.663 8.99479 502.895 9.94531C502.126 10.8958 501.742 12.2077 501.742 13.8809C501.742 15.6322 502.11 16.957 502.846 17.8555C503.588 18.7539 504.659 19.2031 506.059 19.2031C506.664 19.2031 507.25 19.1445 507.816 19.0273C508.383 18.9036 508.972 18.7474 509.584 18.5586V20.5605C508.464 20.9837 507.195 21.1953 505.775 21.1953C503.686 21.1953 502.081 20.5638 500.961 19.3008C499.841 18.0312 499.281 16.2181 499.281 13.8613C499.281 12.377 499.551 11.0781 500.092 9.96484C500.639 8.85156 501.426 7.9987 502.455 7.40625C503.484 6.8138 504.691 6.51758 506.078 6.51758C507.536 6.51758 508.884 6.82357 510.121 7.43555L509.281 9.37891C508.799 9.15104 508.288 8.95247 507.748 8.7832C507.214 8.60742 506.651 8.51953 506.059 8.51953ZM525.336 13.8418C525.336 16.166 524.753 17.9727 523.588 19.2617C522.429 20.5508 520.785 21.1953 518.656 21.1953C516.501 21.1953 514.844 20.5573 513.686 19.2812C512.533 17.9987 511.957 16.179 511.957 13.8223C511.957 11.4655 512.536 9.6556 513.695 8.39258C514.861 7.12956 516.521 6.49805 518.676 6.49805C520.798 6.49805 522.439 7.13932 523.598 8.42188C524.757 9.70443 525.336 11.5111 525.336 13.8418ZM514.438 13.8418C514.438 15.5996 514.792 16.9342 515.502 17.8457C516.212 18.7507 517.263 19.2031 518.656 19.2031C520.043 19.2031 521.088 18.7539 521.791 17.8555C522.501 16.957 522.855 15.6191 522.855 13.8418C522.855 12.0905 522.504 10.7624 521.801 9.85742C521.104 8.95247 520.062 8.5 518.676 8.5C517.276 8.5 516.218 8.95247 515.502 9.85742C514.792 10.7624 514.438 12.0905 514.438 13.8418ZM540.297 21H537.436L530.414 9.62305H530.336L530.385 10.2578C530.476 11.4688 530.521 12.5755 530.521 13.5781V21H528.402V6.72266H531.234L538.236 18.041H538.295C538.282 17.8913 538.256 17.3477 538.217 16.4102C538.178 15.4661 538.158 14.7305 538.158 14.2031V6.72266H540.297V21ZM552.299 17.123C552.299 18.3926 551.84 19.3887 550.922 20.1113C550.004 20.834 548.738 21.1953 547.123 21.1953C545.508 21.1953 544.187 20.9447 543.158 20.4434V18.2363C543.809 18.5423 544.499 18.7832 545.229 18.959C545.964 19.1348 546.648 19.2227 547.279 19.2227C548.204 19.2227 548.884 19.0469 549.32 18.6953C549.763 18.3438 549.984 17.8717 549.984 17.2793C549.984 16.7454 549.783 16.293 549.379 15.9219C548.975 15.5508 548.142 15.1113 546.879 14.6035C545.577 14.0762 544.659 13.474 544.125 12.7969C543.591 12.1198 543.324 11.306 543.324 10.3555C543.324 9.16406 543.747 8.22656 544.594 7.54297C545.44 6.85938 546.576 6.51758 548.002 6.51758C549.369 6.51758 550.73 6.81706 552.084 7.41602L551.342 9.32031C550.072 8.78646 548.939 8.51953 547.943 8.51953C547.188 8.51953 546.615 8.68555 546.225 9.01758C545.834 9.3431 545.639 9.77604 545.639 10.3164C545.639 10.6875 545.717 11.0065 545.873 11.2734C546.029 11.5339 546.286 11.7812 546.645 12.0156C547.003 12.25 547.647 12.5592 548.578 12.9434C549.626 13.3796 550.395 13.7865 550.883 14.1641C551.371 14.5417 551.729 14.9681 551.957 15.4434C552.185 15.9186 552.299 16.4785 552.299 17.123ZM555.062 21V6.72266H557.396V21H555.062ZM572.787 13.7246C572.787 16.0814 572.133 17.8848 570.824 19.1348C569.516 20.3783 567.631 21 565.17 21H561.176V6.72266H565.59C567.862 6.72266 569.63 7.33464 570.893 8.55859C572.156 9.78255 572.787 11.5046 572.787 13.7246ZM570.326 13.8027C570.326 10.3848 568.728 8.67578 565.531 8.67578H563.51V19.0371H565.17C568.607 19.0371 570.326 17.2923 570.326 13.8027ZM583.939 21H575.863V6.72266H583.939V8.69531H578.197V12.582H583.578V14.5352H578.197V19.0176H583.939V21ZM589.369 13.3633H590.99C592.077 13.3633 592.865 13.1615 593.354 12.7578C593.842 12.3542 594.086 11.7552 594.086 10.9609C594.086 10.1536 593.822 9.57422 593.295 9.22266C592.768 8.87109 591.973 8.69531 590.912 8.69531H589.369V13.3633ZM589.369 15.2969V21H587.035V6.72266H591.068C592.911 6.72266 594.275 7.06771 595.16 7.75781C596.046 8.44792 596.488 9.48958 596.488 10.8828C596.488 12.6602 595.564 13.9264 593.715 14.6816L597.748 21H595.092L591.674 15.2969H589.369ZM607.904 21H599.828V6.72266H607.904V8.69531H602.162V12.582H607.543V14.5352H602.162V19.0176H607.904V21ZM622.611 13.7246C622.611 16.0814 621.957 17.8848 620.648 19.1348C619.34 20.3783 617.455 21 614.994 21H611V6.72266H615.414C617.686 6.72266 619.454 7.33464 620.717 8.55859C621.98 9.78255 622.611 11.5046 622.611 13.7246ZM620.15 13.8027C620.15 10.3848 618.552 8.67578 615.355 8.67578H613.334V19.0371H614.994C618.432 19.0371 620.15 17.2923 620.15 13.8027ZM111.674 35.5195C110.333 35.5195 109.278 35.9948 108.51 36.9453C107.742 37.8958 107.357 39.2077 107.357 40.8809C107.357 42.6322 107.725 43.957 108.461 44.8555C109.203 45.7539 110.274 46.2031 111.674 46.2031C112.279 46.2031 112.865 46.1445 113.432 46.0273C113.998 45.9036 114.587 45.7474 115.199 45.5586V47.5605C114.079 47.9837 112.81 48.1953 111.391 48.1953C109.301 48.1953 107.696 47.5638 106.576 46.3008C105.456 45.0312 104.896 43.2181 104.896 40.8613C104.896 39.377 105.167 38.0781 105.707 36.9648C106.254 35.8516 107.042 34.9987 108.07 34.4062C109.099 33.8138 110.307 33.5176 111.693 33.5176C113.152 33.5176 114.499 33.8236 115.736 34.4355L114.896 36.3789C114.415 36.151 113.904 35.9525 113.363 35.7832C112.829 35.6074 112.266 35.5195 111.674 35.5195ZM118.275 48V33.7227H120.609V45.998H126.654V48H118.275ZM129.115 48V33.7227H131.449V48H129.115ZM147.123 48H144.262L137.24 36.623H137.162L137.211 37.2578C137.302 38.4688 137.348 39.5755 137.348 40.5781V48H135.229V33.7227H138.061L145.062 45.041H145.121C145.108 44.8913 145.082 44.3477 145.043 43.4102C145.004 42.4661 144.984 41.7305 144.984 41.2031V33.7227H147.123V48ZM150.893 48V33.7227H153.227V48H150.893ZM163.08 35.5195C161.739 35.5195 160.684 35.9948 159.916 36.9453C159.148 37.8958 158.764 39.2077 158.764 40.8809C158.764 42.6322 159.132 43.957 159.867 44.8555C160.609 45.7539 161.68 46.2031 163.08 46.2031C163.686 46.2031 164.271 46.1445 164.838 46.0273C165.404 45.9036 165.993 45.7474 166.605 45.5586V47.5605C165.486 47.9837 164.216 48.1953 162.797 48.1953C160.707 48.1953 159.102 47.5638 157.982 46.3008C156.863 45.0312 156.303 43.2181 156.303 40.8613C156.303 39.377 156.573 38.0781 157.113 36.9648C157.66 35.8516 158.448 34.9987 159.477 34.4062C160.505 33.8138 161.713 33.5176 163.1 33.5176C164.558 33.5176 165.906 33.8236 167.143 34.4355L166.303 36.3789C165.821 36.151 165.31 35.9525 164.77 35.7832C164.236 35.6074 163.673 35.5195 163.08 35.5195ZM178.539 48L177.113 44.0352H171.654L170.258 48H167.797L173.139 33.6641H175.678L181.02 48H178.539ZM176.498 42.0234L175.16 38.1367C175.062 37.8763 174.926 37.4661 174.75 36.9062C174.581 36.3464 174.464 35.9362 174.398 35.6758C174.223 36.4766 173.965 37.3522 173.627 38.3027L172.338 42.0234H176.498ZM182.904 48V33.7227H185.238V45.998H191.283V48H182.904ZM193.744 48V33.7227H196.078V45.998H202.123V48H193.744ZM208.617 40.2363L211.996 33.7227H214.535L209.779 42.4629V48H207.436V42.541L202.699 33.7227H205.238L208.617 40.2363ZM223.949 40.3633H225.57C226.658 40.3633 227.445 40.1615 227.934 39.7578C228.422 39.3542 228.666 38.7552 228.666 37.9609C228.666 37.1536 228.402 36.5742 227.875 36.2227C227.348 35.8711 226.553 35.6953 225.492 35.6953H223.949V40.3633ZM223.949 42.2969V48H221.615V33.7227H225.648C227.491 33.7227 228.855 34.0677 229.74 34.7578C230.626 35.4479 231.068 36.4896 231.068 37.8828C231.068 39.6602 230.144 40.9264 228.295 41.6816L232.328 48H229.672L226.254 42.2969H223.949ZM242.484 48H234.408V33.7227H242.484V35.6953H236.742V39.582H242.123V41.5352H236.742V46.0176H242.484V48ZM245.58 48V33.7227H247.914V45.998H253.959V48H245.58ZM264.496 48H256.42V33.7227H264.496V35.6953H258.754V39.582H264.135V41.5352H258.754V46.0176H264.496V48ZM275.727 33.7227H278.148L273.148 48H270.688L265.707 33.7227H268.109L271.088 42.5996C271.244 43.0228 271.41 43.5697 271.586 44.2402C271.762 44.9043 271.876 45.3991 271.928 45.7246C272.012 45.2298 272.143 44.6569 272.318 44.0059C272.494 43.3548 272.637 42.873 272.748 42.5605L275.727 33.7227ZM288.891 48L287.465 44.0352H282.006L280.609 48H278.148L283.49 33.6641H286.029L291.371 48H288.891ZM286.85 42.0234L285.512 38.1367C285.414 37.8763 285.277 37.4661 285.102 36.9062C284.932 36.3464 284.815 35.9362 284.75 35.6758C284.574 36.4766 284.317 37.3522 283.979 38.3027L282.689 42.0234H286.85ZM305.15 48H302.289L295.268 36.623H295.189L295.238 37.2578C295.329 38.4688 295.375 39.5755 295.375 40.5781V48H293.256V33.7227H296.088L303.09 45.041H303.148C303.135 44.8913 303.109 44.3477 303.07 43.4102C303.031 42.4661 303.012 41.7305 303.012 41.2031V33.7227H305.15V48ZM313.852 48H311.518V35.7246H307.318V33.7227H318.051V35.7246H313.852V48ZM327.758 48H325.443V33.7227H333.5V35.6953H327.758V40.1582H333.139V42.1406H327.758V48ZM348.764 40.8418C348.764 43.166 348.181 44.9727 347.016 46.2617C345.857 47.5508 344.213 48.1953 342.084 48.1953C339.929 48.1953 338.272 47.5573 337.113 46.2812C335.961 44.9987 335.385 43.179 335.385 40.8223C335.385 38.4655 335.964 36.6556 337.123 35.3926C338.288 34.1296 339.949 33.498 342.104 33.498C344.226 33.498 345.867 34.1393 347.025 35.4219C348.184 36.7044 348.764 38.5111 348.764 40.8418ZM337.865 40.8418C337.865 42.5996 338.22 43.9342 338.93 44.8457C339.639 45.7507 340.691 46.2031 342.084 46.2031C343.471 46.2031 344.516 45.7539 345.219 44.8555C345.928 43.957 346.283 42.6191 346.283 40.8418C346.283 39.0905 345.932 37.7624 345.229 36.8574C344.532 35.9525 343.49 35.5 342.104 35.5C340.704 35.5 339.646 35.9525 338.93 36.8574C338.22 37.7624 337.865 39.0905 337.865 40.8418ZM354.164 40.3633H355.785C356.872 40.3633 357.66 40.1615 358.148 39.7578C358.637 39.3542 358.881 38.7552 358.881 37.9609C358.881 37.1536 358.617 36.5742 358.09 36.2227C357.562 35.8711 356.768 35.6953 355.707 35.6953H354.164V40.3633ZM354.164 42.2969V48H351.83V33.7227H355.863C357.706 33.7227 359.07 34.0677 359.955 34.7578C360.84 35.4479 361.283 36.4896 361.283 37.8828C361.283 39.6602 360.359 40.9264 358.51 41.6816L362.543 48H359.887L356.469 42.2969H354.164ZM374.75 48H372.416V35.7246H368.217V33.7227H378.949V35.7246H374.75V48ZM392.406 48H390.062V41.5645H383.48V48H381.146V33.7227H383.48V39.5625H390.062V33.7227H392.406V48ZM404.242 48H396.166V33.7227H404.242V35.6953H398.5V39.582H403.881V41.5352H398.5V46.0176H404.242V48ZM412.533 33.7227H416.771C418.738 33.7227 420.157 34.0091 421.029 34.582C421.908 35.1549 422.348 36.0599 422.348 37.2969C422.348 38.1302 422.133 38.8236 421.703 39.377C421.273 39.9303 420.655 40.2786 419.848 40.4219V40.5195C420.85 40.7083 421.586 41.0827 422.055 41.6426C422.53 42.196 422.768 42.9479 422.768 43.8984C422.768 45.181 422.318 46.1868 421.42 46.916C420.528 47.6387 419.285 48 417.689 48H412.533V33.7227ZM414.867 39.6211H417.113C418.09 39.6211 418.803 39.4681 419.252 39.1621C419.701 38.8496 419.926 38.3223 419.926 37.5801C419.926 36.9095 419.682 36.4245 419.193 36.125C418.712 35.8255 417.943 35.6758 416.889 35.6758H414.867V39.6211ZM414.867 41.5156V46.0371H417.348C418.324 46.0371 419.06 45.8516 419.555 45.4805C420.056 45.1029 420.307 44.5104 420.307 43.7031C420.307 42.9609 420.053 42.4108 419.545 42.0527C419.037 41.6947 418.266 41.5156 417.23 41.5156H414.867ZM433.812 48H425.736V33.7227H433.812V35.6953H428.07V39.582H433.451V41.5352H428.07V46.0176H433.812V48ZM436.908 48V33.7227H439.242V45.998H445.287V48H436.908ZM447.748 48V33.7227H450.082V48H447.748ZM461.938 48H453.861V33.7227H461.938V35.6953H456.195V39.582H461.576V41.5352H456.195V46.0176H461.938V48ZM467.348 48H465.033V33.7227H473.09V35.6953H467.348V40.1582H472.729V42.1406H467.348V48ZM485.805 48H483.471V35.7246H479.271V33.7227H490.004V35.7246H485.805V48ZM494.535 40.3633H496.156C497.243 40.3633 498.031 40.1615 498.52 39.7578C499.008 39.3542 499.252 38.7552 499.252 37.9609C499.252 37.1536 498.988 36.5742 498.461 36.2227C497.934 35.8711 497.139 35.6953 496.078 35.6953H494.535V40.3633ZM494.535 42.2969V48H492.201V33.7227H496.234C498.077 33.7227 499.441 34.0677 500.326 34.7578C501.212 35.4479 501.654 36.4896 501.654 37.8828C501.654 39.6602 500.73 40.9264 498.881 41.6816L502.914 48H500.258L496.84 42.2969H494.535ZM504.994 48V33.7227H507.328V48H504.994ZM519.965 48L518.539 44.0352H513.08L511.684 48H509.223L514.564 33.6641H517.104L522.445 48H519.965ZM517.924 42.0234L516.586 38.1367C516.488 37.8763 516.352 37.4661 516.176 36.9062C516.007 36.3464 515.889 35.9362 515.824 35.6758C515.648 36.4766 515.391 37.3522 515.053 38.3027L513.764 42.0234H517.924ZM524.33 48V33.7227H526.664V45.998H532.709V48H524.33Z" fill="#3A92A7"/>
<g clip-path="url(#clip0)">
<path d="M338.3 150.346H543.1" stroke="#BCBEC0" stroke-width="0.7723" stroke-miterlimit="8"/>
<path d="M486.864 104.671C486.741 105.723 486.352 106.537 485.695 107.111C485.044 107.681 484.175 107.966 483.091 107.966C481.915 107.966 480.972 107.544 480.261 106.701C479.554 105.858 479.201 104.73 479.201 103.317V102.36C479.201 101.435 479.365 100.621 479.693 99.9196C480.026 99.2178 480.495 98.68 481.102 98.3063C481.708 97.9281 482.41 97.739 483.207 97.739C484.264 97.739 485.112 98.0352 485.75 98.6276C486.388 99.2155 486.759 100.031 486.864 101.075H485.545C485.431 100.282 485.183 99.7077 484.8 99.3522C484.422 98.9968 483.891 98.819 483.207 98.819C482.368 98.819 481.71 99.1289 481.231 99.7487C480.757 100.369 480.521 101.25 480.521 102.394V103.358C480.521 104.438 480.746 105.297 481.197 105.935C481.648 106.573 482.28 106.892 483.091 106.892C483.82 106.892 484.378 106.728 484.766 106.4C485.158 106.067 485.417 105.491 485.545 104.671H486.864ZM492.312 103.802H489.975V107.829H488.655V97.8757H491.95C493.071 97.8757 493.933 98.1309 494.534 98.6413C495.14 99.1517 495.443 99.8946 495.443 100.87C495.443 101.49 495.275 102.03 494.938 102.49C494.605 102.95 494.14 103.294 493.543 103.522L495.881 107.747V107.829H494.473L492.312 103.802ZM489.975 102.729H491.991C492.643 102.729 493.16 102.561 493.543 102.223C493.93 101.886 494.124 101.435 494.124 100.87C494.124 100.255 493.939 99.7829 493.57 99.4548C493.206 99.1266 492.677 98.9603 491.984 98.9557H489.975V102.729Z" fill="#4D4D4F"/>
<path d="M408.61 111H402.273V93.6504L402.335 90.7998L402.437 87.6826C401.384 88.7354 400.653 89.4258 400.243 89.7539L396.797 92.5225L393.742 88.708L403.401 81.0176H408.61V111ZM437.731 96.0088C437.731 101.245 436.87 105.121 435.147 107.637C433.438 110.152 430.799 111.41 427.231 111.41C423.772 111.41 421.161 110.111 419.397 107.514C417.647 104.916 416.772 101.081 416.772 96.0088C416.772 90.7178 417.627 86.8213 419.336 84.3193C421.044 81.8037 423.676 80.5459 427.231 80.5459C430.69 80.5459 433.301 81.8584 435.065 84.4834C436.842 87.1084 437.731 90.9502 437.731 96.0088ZM423.068 96.0088C423.068 99.6865 423.382 102.325 424.011 103.925C424.654 105.511 425.727 106.304 427.231 106.304C428.708 106.304 429.774 105.497 430.43 103.884C431.086 102.271 431.415 99.6455 431.415 96.0088C431.415 92.3311 431.08 89.6924 430.41 88.0928C429.753 86.4795 428.694 85.6729 427.231 85.6729C425.741 85.6729 424.674 86.4795 424.032 88.0928C423.389 89.6924 423.068 92.3311 423.068 96.0088ZM441.648 108.067C441.648 106.919 441.956 106.051 442.571 105.463C443.186 104.875 444.082 104.581 445.257 104.581C446.392 104.581 447.267 104.882 447.882 105.483C448.511 106.085 448.826 106.946 448.826 108.067C448.826 109.147 448.511 110.002 447.882 110.631C447.253 111.246 446.378 111.554 445.257 111.554C444.109 111.554 443.22 111.253 442.591 110.651C441.962 110.036 441.648 109.175 441.648 108.067ZM463.243 80.6279C466.114 80.6279 468.424 81.2842 470.174 82.5967C471.938 83.8955 472.82 85.6523 472.82 87.8672C472.82 89.3984 472.396 90.7656 471.548 91.9688C470.701 93.1582 469.334 94.2246 467.447 95.168C469.689 96.3711 471.295 97.6289 472.266 98.9414C473.251 100.24 473.743 101.669 473.743 103.228C473.743 105.688 472.779 107.671 470.851 109.175C468.923 110.665 466.387 111.41 463.243 111.41C459.961 111.41 457.384 110.713 455.511 109.318C453.638 107.924 452.702 105.948 452.702 103.392C452.702 101.683 453.153 100.165 454.055 98.8389C454.971 97.5127 456.434 96.3438 458.444 95.332C456.735 94.252 455.504 93.0967 454.753 91.8662C454.001 90.6357 453.625 89.2891 453.625 87.8262C453.625 85.6797 454.513 83.9434 456.291 82.6172C458.068 81.291 460.385 80.6279 463.243 80.6279ZM458.567 103.022C458.567 104.198 458.977 105.114 459.797 105.771C460.618 106.427 461.739 106.755 463.161 106.755C464.733 106.755 465.909 106.42 466.688 105.75C467.467 105.066 467.857 104.171 467.857 103.063C467.857 102.147 467.467 101.293 466.688 100.5C465.922 99.6934 464.671 98.8389 462.935 97.9365C460.023 99.2764 458.567 100.972 458.567 103.022ZM463.202 85.2627C462.122 85.2627 461.247 85.543 460.577 86.1035C459.92 86.6504 459.592 87.3887 459.592 88.3184C459.592 89.1387 459.852 89.877 460.372 90.5332C460.905 91.1758 461.862 91.8389 463.243 92.5225C464.583 91.8936 465.519 91.251 466.052 90.5947C466.586 89.9385 466.852 89.1797 466.852 88.3184C466.852 87.375 466.51 86.6299 465.827 86.083C465.143 85.5361 464.268 85.2627 463.202 85.2627Z" fill="#4D4D4F"/>
<path d="M478.924 83.4753C478.924 84.4876 479.012 85.2448 479.187 85.747C479.37 86.2412 479.661 86.4882 480.06 86.4882C480.825 86.4882 481.207 85.4839 481.207 83.4753C481.207 81.4826 480.825 80.4863 480.06 80.4863C479.661 80.4863 479.37 80.7334 479.187 81.2276C479.012 81.7138 478.924 82.463 478.924 83.4753ZM484.22 83.4514C484.22 85.2847 483.866 86.6636 483.156 87.5882C482.447 88.5048 481.407 88.9632 480.036 88.9632C478.721 88.9632 477.704 88.4929 476.987 87.5523C476.27 86.6038 475.911 85.2368 475.911 83.4514C475.911 79.8088 477.286 77.9875 480.036 77.9875C481.383 77.9875 482.415 78.4618 483.132 79.4103C483.858 80.3508 484.22 81.6979 484.22 83.4514ZM492.446 78.2386L482.75 95.7183H479.88L489.577 78.2386H492.446ZM491.167 90.4577C491.167 91.4699 491.255 92.2272 491.43 92.7293C491.613 93.2235 491.904 93.4706 492.303 93.4706C493.068 93.4706 493.45 92.4663 493.45 90.4577C493.45 88.465 493.068 87.4686 492.303 87.4686C491.904 87.4686 491.613 87.7157 491.43 88.2099C491.255 88.6961 491.167 89.4454 491.167 90.4577ZM496.463 90.4337C496.463 92.259 496.109 93.634 495.399 94.5586C494.69 95.4752 493.65 95.9335 492.279 95.9335C490.964 95.9335 489.947 95.4633 489.23 94.5227C488.513 93.5742 488.154 92.2112 488.154 90.4337C488.154 86.7911 489.529 84.9698 492.279 84.9698C493.626 84.9698 494.658 85.4441 495.375 86.3926C496.101 87.3331 496.463 88.6802 496.463 90.4337Z" fill="#4D4D4F"/>
<path d="M367.223 129.75C367.223 128.542 367.398 127.412 367.749 126.359C368.104 125.306 368.615 124.383 369.28 123.59H370.053C369.378 124.42 368.861 125.361 368.501 126.414C368.141 127.462 367.961 128.569 367.961 129.736C367.961 131.937 368.654 133.958 370.039 135.799H369.28C368.61 135.025 368.1 134.12 367.749 133.086C367.398 132.051 367.223 130.939 367.223 129.75ZM377.559 127.829C377.559 129.141 377.385 130.239 377.039 131.124C376.697 132.008 376.196 132.662 375.535 133.086C374.879 133.509 374.084 133.721 373.149 133.721C372.675 133.721 372.238 133.662 371.837 133.544V132.956C372.033 133.019 372.268 133.07 372.541 133.106C372.819 133.138 373.031 133.154 373.177 133.154C374.302 133.154 375.184 132.748 375.822 131.937C376.46 131.121 376.816 129.934 376.889 128.376H376.807C376.474 128.813 376.077 129.15 375.617 129.387C375.157 129.62 374.676 129.736 374.175 129.736C373.25 129.736 372.527 129.481 372.008 128.97C371.493 128.46 371.235 127.735 371.235 126.796C371.235 125.794 371.518 124.983 372.083 124.363C372.653 123.743 373.391 123.433 374.298 123.433C374.954 123.433 375.528 123.606 376.021 123.953C376.513 124.294 376.891 124.798 377.155 125.463C377.424 126.129 377.559 126.917 377.559 127.829ZM374.298 124.035C373.578 124.035 373.004 124.279 372.575 124.766C372.147 125.249 371.933 125.912 371.933 126.755C371.933 127.548 372.131 128.15 372.527 128.56C372.924 128.97 373.491 129.175 374.229 129.175C374.69 129.175 375.118 129.073 375.515 128.868C375.916 128.663 376.232 128.391 376.465 128.054C376.702 127.712 376.82 127.366 376.82 127.015C376.82 126.482 376.713 125.983 376.499 125.518C376.289 125.053 375.993 124.691 375.61 124.431C375.232 124.167 374.795 124.035 374.298 124.035ZM382.146 127.576C383.212 127.576 384.05 127.833 384.661 128.348C385.276 128.863 385.584 129.572 385.584 130.474C385.584 131.5 385.265 132.297 384.627 132.867C383.989 133.436 383.109 133.721 381.988 133.721C381.492 133.721 381.02 133.673 380.573 133.578C380.127 133.477 379.753 133.336 379.452 133.154V132.45C379.944 132.7 380.382 132.876 380.765 132.976C381.147 133.072 381.555 133.12 381.988 133.12C382.863 133.12 383.565 132.89 384.094 132.429C384.622 131.964 384.887 131.338 384.887 130.549C384.887 129.807 384.629 129.223 384.114 128.799C383.599 128.376 382.9 128.164 382.016 128.164C381.423 128.164 380.803 128.253 380.156 128.43L379.746 128.164L380.143 123.59H384.955V124.247H380.785L380.478 127.774C381.188 127.642 381.744 127.576 382.146 127.576ZM387.915 126.571C387.915 127.419 388.018 128.057 388.223 128.485C388.428 128.909 388.749 129.121 389.187 129.121C390.066 129.121 390.506 128.271 390.506 126.571C390.506 125.732 390.392 125.103 390.164 124.684C389.941 124.26 389.615 124.048 389.187 124.048C388.749 124.048 388.428 124.26 388.223 124.684C388.018 125.103 387.915 125.732 387.915 126.571ZM391.176 126.571C391.176 127.601 391.005 128.385 390.663 128.922C390.321 129.456 389.829 129.722 389.187 129.722C388.58 129.722 388.104 129.449 387.758 128.902C387.416 128.35 387.245 127.573 387.245 126.571C387.245 125.555 387.409 124.78 387.737 124.247C388.065 123.713 388.549 123.447 389.187 123.447C389.82 123.447 390.31 123.723 390.656 124.274C391.003 124.821 391.176 125.586 391.176 126.571ZM393.739 130.59C393.739 131.433 393.842 132.067 394.047 132.491C394.252 132.91 394.573 133.12 395.011 133.12C395.89 133.12 396.33 132.277 396.33 130.59C396.33 128.909 395.89 128.068 395.011 128.068C394.573 128.068 394.252 128.278 394.047 128.697C393.842 129.112 393.739 129.743 393.739 130.59ZM397 130.59C397 131.62 396.831 132.404 396.494 132.942C396.157 133.475 395.667 133.742 395.024 133.742C394.405 133.742 393.924 133.466 393.582 132.915C393.24 132.359 393.069 131.584 393.069 130.59C393.069 129.565 393.236 128.788 393.568 128.259C393.906 127.731 394.391 127.466 395.024 127.466C395.649 127.466 396.134 127.74 396.48 128.287C396.827 128.834 397 129.601 397 130.59ZM395.223 123.59L389.679 133.585H389.022L394.566 123.59H395.223ZM407.097 124.076C405.843 124.076 404.857 124.477 404.137 125.279C403.417 126.081 403.057 127.179 403.057 128.574C403.057 130 403.396 131.108 404.075 131.896C404.754 132.684 405.725 133.079 406.987 133.079C407.826 133.079 408.596 132.972 409.298 132.757V133.373C408.637 133.605 407.812 133.721 406.823 133.721C405.42 133.721 404.314 133.268 403.508 132.361C402.701 131.454 402.298 130.187 402.298 128.56C402.298 127.544 402.489 126.648 402.872 125.874C403.259 125.099 403.813 124.502 404.533 124.083C405.258 123.659 406.099 123.447 407.056 123.447C408.031 123.447 408.904 123.629 409.674 123.994L409.394 124.623C408.664 124.258 407.899 124.076 407.097 124.076ZM411.526 133.585V123.59H412.224V133.585H411.526ZM415.655 131.958L415.737 132.101C415.396 133.309 414.999 134.405 414.548 135.389H414.104C414.454 134.136 414.705 132.992 414.855 131.958H415.655ZM423.954 127.576C425.021 127.576 425.859 127.833 426.47 128.348C427.085 128.863 427.393 129.572 427.393 130.474C427.393 131.5 427.074 132.297 426.436 132.867C425.798 133.436 424.918 133.721 423.797 133.721C423.3 133.721 422.828 133.673 422.382 133.578C421.935 133.477 421.562 133.336 421.261 133.154V132.45C421.753 132.7 422.19 132.876 422.573 132.976C422.956 133.072 423.364 133.12 423.797 133.12C424.672 133.12 425.374 132.89 425.902 132.429C426.431 131.964 426.695 131.338 426.695 130.549C426.695 129.807 426.438 129.223 425.923 128.799C425.408 128.376 424.708 128.164 423.824 128.164C423.232 128.164 422.612 128.253 421.965 128.43L421.555 128.164L421.951 123.59H426.764V124.247H422.594L422.286 127.774C422.997 127.642 423.553 127.576 423.954 127.576ZM429.389 133.051C429.389 132.605 429.571 132.381 429.936 132.381C430.309 132.381 430.496 132.605 430.496 133.051C430.496 133.498 430.309 133.721 429.936 133.721C429.571 133.721 429.389 133.498 429.389 133.051ZM438.699 127.829C438.699 129.141 438.526 130.239 438.18 131.124C437.838 132.008 437.337 132.662 436.676 133.086C436.02 133.509 435.224 133.721 434.29 133.721C433.816 133.721 433.379 133.662 432.978 133.544V132.956C433.174 133.019 433.408 133.07 433.682 133.106C433.96 133.138 434.172 133.154 434.317 133.154C435.443 133.154 436.325 132.748 436.963 131.937C437.601 131.121 437.956 129.934 438.029 128.376H437.947C437.615 128.813 437.218 129.15 436.758 129.387C436.298 129.62 435.817 129.736 435.315 129.736C434.39 129.736 433.668 129.481 433.148 128.97C432.633 128.46 432.376 127.735 432.376 126.796C432.376 125.794 432.659 124.983 433.224 124.363C433.793 123.743 434.532 123.433 435.438 123.433C436.095 123.433 436.669 123.606 437.161 123.953C437.653 124.294 438.032 124.798 438.296 125.463C438.565 126.129 438.699 126.917 438.699 127.829ZM435.438 124.035C434.718 124.035 434.144 124.279 433.716 124.766C433.287 125.249 433.073 125.912 433.073 126.755C433.073 127.548 433.271 128.15 433.668 128.56C434.064 128.97 434.632 129.175 435.37 129.175C435.83 129.175 436.259 129.073 436.655 128.868C437.056 128.663 437.373 128.391 437.605 128.054C437.842 127.712 437.961 127.366 437.961 127.015C437.961 126.482 437.854 125.983 437.64 125.518C437.43 125.053 437.134 124.691 436.751 124.431C436.373 124.167 435.935 124.035 435.438 124.035ZM440.244 130.085V129.524H443.491V130.085H440.244ZM448.789 133.585H448.119V126.304C448.119 125.643 448.146 124.958 448.201 124.247C448.133 124.315 448.062 124.381 447.989 124.445C447.916 124.509 447.212 125.062 445.877 126.106L445.487 125.621L448.201 123.59H448.789V133.585ZM454.408 133.585L458.523 124.247H452.87V123.59H459.337V124.089L455.208 133.585H454.408ZM461.23 133.051C461.23 132.605 461.413 132.381 461.777 132.381C462.151 132.381 462.338 132.605 462.338 133.051C462.338 133.498 462.151 133.721 461.777 133.721C461.413 133.721 461.23 133.498 461.23 133.051ZM467.438 123.419C468.285 123.419 468.966 123.636 469.481 124.069C470.001 124.502 470.261 125.087 470.261 125.826C470.261 126.336 470.099 126.787 469.775 127.179C469.456 127.571 468.937 127.933 468.217 128.266C469.092 128.626 469.707 129.02 470.062 129.449C470.418 129.877 470.596 130.397 470.596 131.007C470.596 131.832 470.306 132.491 469.728 132.983C469.153 133.475 468.381 133.721 467.41 133.721C466.403 133.721 465.631 133.491 465.093 133.031C464.555 132.571 464.286 131.901 464.286 131.021C464.286 130.424 464.475 129.9 464.854 129.449C465.232 128.998 465.817 128.613 466.61 128.294C465.877 127.947 465.359 127.583 465.059 127.2C464.758 126.812 464.607 126.35 464.607 125.812C464.607 125.334 464.728 124.914 464.97 124.554C465.211 124.19 465.549 123.909 465.981 123.713C466.419 123.517 466.904 123.419 467.438 123.419ZM464.983 131.124C464.983 131.753 465.195 132.24 465.619 132.586C466.048 132.933 466.645 133.106 467.41 133.106C468.158 133.106 468.759 132.924 469.215 132.559C469.671 132.19 469.898 131.691 469.898 131.062C469.898 130.497 469.718 130.039 469.358 129.688C469.003 129.333 468.315 128.961 467.294 128.574C466.455 128.897 465.861 129.255 465.51 129.647C465.159 130.039 464.983 130.531 464.983 131.124ZM467.424 124.035C466.781 124.035 466.264 124.194 465.872 124.513C465.485 124.828 465.291 125.261 465.291 125.812C465.291 126.131 465.362 126.414 465.503 126.66C465.649 126.901 465.856 127.122 466.125 127.323C466.398 127.519 466.854 127.749 467.492 128.013C468.235 127.726 468.768 127.409 469.092 127.063C469.415 126.717 469.577 126.3 469.577 125.812C469.577 125.265 469.383 124.832 468.996 124.513C468.613 124.194 468.089 124.035 467.424 124.035ZM473.528 131.958L473.61 132.101C473.269 133.309 472.872 134.405 472.421 135.389H471.977C472.109 134.947 472.25 134.387 472.4 133.708C472.551 133.033 472.66 132.45 472.729 131.958H473.528ZM472.564 126.947C472.564 126.5 472.747 126.277 473.111 126.277C473.485 126.277 473.672 126.5 473.672 126.947C473.672 127.188 473.617 127.362 473.508 127.466C473.403 127.571 473.271 127.624 473.111 127.624C472.956 127.624 472.826 127.571 472.722 127.466C472.617 127.362 472.564 127.188 472.564 126.947ZM484.855 133.585V128.765C484.855 128.018 484.698 127.475 484.384 127.138C484.069 126.796 483.582 126.626 482.921 126.626C482.032 126.626 481.381 126.851 480.966 127.302C480.556 127.749 480.351 128.476 480.351 129.483V133.585H479.674V126.154H480.248L480.378 127.172H480.419C480.902 126.398 481.761 126.01 482.996 126.01C484.682 126.01 485.525 126.915 485.525 128.724V133.585H484.855ZM491.083 127.535V126.974H497.563V127.535H491.083ZM491.083 130.324V129.763H497.563V130.324H491.083ZM506.621 133.585H505.951V126.304C505.951 125.643 505.979 124.958 506.033 124.247C505.965 124.315 505.894 124.381 505.821 124.445C505.748 124.509 505.044 125.062 503.709 126.106L503.319 125.621L506.033 123.59H506.621V133.585ZM516.649 125.942C516.649 126.562 516.453 127.084 516.062 127.507C515.674 127.931 515.152 128.202 514.496 128.321V128.362C515.298 128.462 515.909 128.717 516.328 129.128C516.747 129.538 516.957 130.089 516.957 130.782C516.957 131.716 516.638 132.441 516 132.956C515.367 133.466 514.453 133.721 513.259 133.721C512.243 133.721 511.356 133.532 510.6 133.154V132.477C510.982 132.678 511.411 132.835 511.885 132.949C512.363 133.063 512.812 133.12 513.231 133.12C514.239 133.12 514.995 132.917 515.501 132.511C516.007 132.101 516.26 131.525 516.26 130.782C516.26 130.121 516 129.613 515.48 129.257C514.965 128.902 514.207 128.724 513.204 128.724H512.124V128.068H513.218C514.047 128.068 514.703 127.872 515.187 127.48C515.674 127.084 515.918 126.548 515.918 125.874C515.918 125.318 515.72 124.873 515.323 124.541C514.931 124.203 514.416 124.035 513.778 124.035C513.282 124.035 512.828 124.105 512.418 124.247C512.008 124.383 511.548 124.62 511.037 124.958L510.702 124.5C511.09 124.176 511.557 123.921 512.104 123.734C512.65 123.543 513.204 123.447 513.765 123.447C514.685 123.447 515.396 123.666 515.897 124.103C516.399 124.536 516.649 125.149 516.649 125.942ZM521.202 129.75C521.202 130.948 521.024 132.065 520.669 133.099C520.318 134.134 519.81 135.034 519.145 135.799H518.386C519.771 133.958 520.464 131.937 520.464 129.736C520.464 128.565 520.284 127.455 519.924 126.407C519.564 125.354 519.047 124.415 518.372 123.59H519.145C519.814 124.388 520.325 125.315 520.676 126.373C521.027 127.425 521.202 128.551 521.202 129.75Z" fill="#4D4D4F"/>
<path d="M524.371 128.824H523.981V124.58C523.981 124.194 523.997 123.794 524.029 123.38C523.989 123.42 523.948 123.458 523.905 123.496C523.863 123.533 523.452 123.856 522.674 124.464L522.446 124.181L524.029 122.997H524.371V128.824ZM527.492 127.875L527.54 127.959C527.34 128.663 527.109 129.302 526.846 129.876H526.587C526.792 129.145 526.938 128.479 527.026 127.875H527.492ZM532.167 128.824H528.52V128.473L530.07 126.855C530.506 126.404 530.812 126.058 530.987 125.819C531.162 125.58 531.291 125.351 531.374 125.134C531.456 124.916 531.497 124.687 531.497 124.448C531.497 124.1 531.383 123.817 531.154 123.599C530.926 123.381 530.63 123.272 530.266 123.272C529.779 123.272 529.314 123.449 528.871 123.802L528.656 123.527C529.142 123.118 529.681 122.914 530.274 122.914C530.781 122.914 531.18 123.049 531.469 123.32C531.762 123.591 531.908 123.965 531.908 124.44C531.908 124.825 531.809 125.199 531.613 125.56C531.419 125.919 531.063 126.362 530.545 126.891L529.05 128.425V128.441H532.167V128.824Z" fill="#4D4D4F"/>
<path d="M369.225 212.775C369.225 211.567 369.4 210.437 369.751 209.384C370.106 208.331 370.617 207.409 371.282 206.616H372.055C371.38 207.445 370.863 208.386 370.503 209.439C370.143 210.487 369.963 211.594 369.963 212.761C369.963 214.962 370.656 216.983 372.041 218.825H371.282C370.612 218.05 370.102 217.145 369.751 216.111C369.4 215.076 369.225 213.964 369.225 212.775ZM379.561 210.854C379.561 212.166 379.387 213.265 379.041 214.149C378.699 215.033 378.198 215.687 377.537 216.111C376.881 216.534 376.086 216.746 375.151 216.746C374.677 216.746 374.24 216.687 373.839 216.569V215.981C374.035 216.045 374.27 216.095 374.543 216.131C374.821 216.163 375.033 216.179 375.179 216.179C376.304 216.179 377.186 215.773 377.824 214.962C378.462 214.146 378.818 212.959 378.891 211.401H378.809C378.476 211.838 378.079 212.175 377.619 212.412C377.159 212.645 376.678 212.761 376.177 212.761C375.252 212.761 374.529 212.506 374.01 211.995C373.495 211.485 373.237 210.76 373.237 209.822C373.237 208.819 373.52 208.008 374.085 207.388C374.655 206.768 375.393 206.458 376.3 206.458C376.956 206.458 377.53 206.631 378.022 206.978C378.515 207.32 378.893 207.823 379.157 208.489C379.426 209.154 379.561 209.942 379.561 210.854ZM376.3 207.06C375.58 207.06 375.006 207.304 374.577 207.791C374.149 208.274 373.935 208.937 373.935 209.781C373.935 210.574 374.133 211.175 374.529 211.585C374.926 211.995 375.493 212.201 376.231 212.201C376.692 212.201 377.12 212.098 377.517 211.893C377.918 211.688 378.234 211.417 378.467 211.079C378.704 210.738 378.822 210.391 378.822 210.04C378.822 209.507 378.715 209.008 378.501 208.543C378.291 208.078 377.995 207.716 377.612 207.456C377.234 207.192 376.797 207.06 376.3 207.06ZM384.147 210.601C385.214 210.601 386.052 210.858 386.663 211.373C387.278 211.888 387.586 212.597 387.586 213.499C387.586 214.525 387.267 215.322 386.629 215.892C385.991 216.462 385.111 216.746 383.99 216.746C383.493 216.746 383.022 216.699 382.575 216.603C382.129 216.503 381.755 216.361 381.454 216.179V215.475C381.946 215.726 382.384 215.901 382.767 216.001C383.149 216.097 383.557 216.145 383.99 216.145C384.865 216.145 385.567 215.915 386.096 215.454C386.624 214.99 386.889 214.363 386.889 213.575C386.889 212.832 386.631 212.248 386.116 211.825C385.601 211.401 384.902 211.189 384.018 211.189C383.425 211.189 382.805 211.278 382.158 211.455L381.748 211.189L382.145 206.616H386.957V207.272H382.787L382.479 210.799C383.19 210.667 383.746 210.601 384.147 210.601ZM389.917 209.596C389.917 210.444 390.02 211.082 390.225 211.51C390.43 211.934 390.751 212.146 391.188 212.146C392.068 212.146 392.508 211.296 392.508 209.596C392.508 208.757 392.394 208.129 392.166 207.709C391.943 207.285 391.617 207.074 391.188 207.074C390.751 207.074 390.43 207.285 390.225 207.709C390.02 208.129 389.917 208.757 389.917 209.596ZM393.178 209.596C393.178 210.626 393.007 211.41 392.665 211.948C392.323 212.481 391.831 212.747 391.188 212.747C390.582 212.747 390.106 212.474 389.76 211.927C389.418 211.376 389.247 210.599 389.247 209.596C389.247 208.58 389.411 207.805 389.739 207.272C390.067 206.739 390.55 206.472 391.188 206.472C391.822 206.472 392.312 206.748 392.658 207.299C393.005 207.846 393.178 208.612 393.178 209.596ZM395.741 213.616C395.741 214.459 395.844 215.092 396.049 215.516C396.254 215.935 396.575 216.145 397.013 216.145C397.892 216.145 398.332 215.302 398.332 213.616C398.332 211.934 397.892 211.093 397.013 211.093C396.575 211.093 396.254 211.303 396.049 211.722C395.844 212.137 395.741 212.768 395.741 213.616ZM399.002 213.616C399.002 214.645 398.833 215.429 398.496 215.967C398.159 216.5 397.669 216.767 397.026 216.767C396.407 216.767 395.926 216.491 395.584 215.94C395.242 215.384 395.071 214.609 395.071 213.616C395.071 212.59 395.238 211.813 395.57 211.284C395.908 210.756 396.393 210.492 397.026 210.492C397.651 210.492 398.136 210.765 398.482 211.312C398.829 211.859 399.002 212.627 399.002 213.616ZM397.225 206.616L391.681 216.61H391.024L396.568 206.616H397.225ZM409.099 207.101C407.845 207.101 406.859 207.502 406.139 208.304C405.419 209.106 405.059 210.204 405.059 211.599C405.059 213.025 405.398 214.133 406.077 214.921C406.756 215.71 407.727 216.104 408.989 216.104C409.828 216.104 410.598 215.997 411.3 215.783V216.398C410.639 216.63 409.814 216.746 408.825 216.746C407.422 216.746 406.316 216.293 405.51 215.386C404.703 214.479 404.3 213.212 404.3 211.585C404.3 210.569 404.491 209.673 404.874 208.899C405.261 208.124 405.815 207.527 406.535 207.108C407.26 206.684 408.101 206.472 409.058 206.472C410.033 206.472 410.906 206.654 411.676 207.019L411.396 207.648C410.666 207.283 409.901 207.101 409.099 207.101ZM413.528 216.61V206.616H414.226V216.61H413.528ZM417.657 214.983L417.739 215.126C417.397 216.334 417.001 217.43 416.55 218.414H416.105C416.456 217.161 416.707 216.017 416.857 214.983H417.657ZM429.367 210.854C429.367 212.166 429.194 213.265 428.848 214.149C428.506 215.033 428.005 215.687 427.344 216.111C426.688 216.534 425.892 216.746 424.958 216.746C424.484 216.746 424.047 216.687 423.646 216.569V215.981C423.841 216.045 424.076 216.095 424.35 216.131C424.628 216.163 424.84 216.179 424.985 216.179C426.111 216.179 426.993 215.773 427.631 214.962C428.269 214.146 428.624 212.959 428.697 211.401H428.615C428.283 211.838 427.886 212.175 427.426 212.412C426.965 212.645 426.485 212.761 425.983 212.761C425.058 212.761 424.336 212.506 423.816 211.995C423.301 211.485 423.044 210.76 423.044 209.822C423.044 208.819 423.326 208.008 423.892 207.388C424.461 206.768 425.2 206.458 426.106 206.458C426.763 206.458 427.337 206.631 427.829 206.978C428.321 207.32 428.7 207.823 428.964 208.489C429.233 209.154 429.367 209.942 429.367 210.854ZM426.106 207.06C425.386 207.06 424.812 207.304 424.384 207.791C423.955 208.274 423.741 208.937 423.741 209.781C423.741 210.574 423.939 211.175 424.336 211.585C424.732 211.995 425.3 212.201 426.038 212.201C426.498 212.201 426.927 212.098 427.323 211.893C427.724 211.688 428.041 211.417 428.273 211.079C428.51 210.738 428.629 210.391 428.629 210.04C428.629 209.507 428.522 209.008 428.308 208.543C428.098 208.078 427.802 207.716 427.419 207.456C427.041 207.192 426.603 207.06 426.106 207.06ZM431.391 216.076C431.391 215.63 431.573 215.407 431.938 215.407C432.311 215.407 432.498 215.63 432.498 216.076C432.498 216.523 432.311 216.746 431.938 216.746C431.573 216.746 431.391 216.523 431.391 216.076ZM438.281 216.61H437.611V209.329C437.611 208.669 437.639 207.983 437.693 207.272C437.625 207.34 437.554 207.406 437.481 207.47C437.409 207.534 436.704 208.088 435.369 209.131L434.979 208.646L437.693 206.616H438.281V216.61ZM442.246 213.11V212.549H445.493V213.11H442.246ZM453.156 216.61H446.901V216.008L449.561 213.233C450.308 212.458 450.832 211.866 451.133 211.455C451.434 211.045 451.655 210.653 451.796 210.28C451.937 209.906 452.008 209.514 452.008 209.104C452.008 208.507 451.812 208.021 451.42 207.648C451.028 207.274 450.52 207.087 449.896 207.087C449.062 207.087 448.264 207.39 447.503 207.996L447.134 207.525C447.968 206.823 448.893 206.472 449.909 206.472C450.78 206.472 451.463 206.704 451.96 207.169C452.461 207.634 452.712 208.274 452.712 209.09C452.712 209.751 452.543 210.391 452.206 211.011C451.873 211.626 451.263 212.387 450.374 213.294L447.811 215.926V215.953H453.156V216.61ZM461.154 216.61H454.899V216.008L457.559 213.233C458.306 212.458 458.83 211.866 459.131 211.455C459.432 211.045 459.653 210.653 459.794 210.28C459.935 209.906 460.006 209.514 460.006 209.104C460.006 208.507 459.81 208.021 459.418 207.648C459.026 207.274 458.518 207.087 457.894 207.087C457.06 207.087 456.262 207.39 455.501 207.996L455.132 207.525C455.966 206.823 456.891 206.472 457.907 206.472C458.778 206.472 459.461 206.704 459.958 207.169C460.459 207.634 460.71 208.274 460.71 209.09C460.71 209.751 460.541 210.391 460.204 211.011C459.871 211.626 459.261 212.387 458.372 213.294L455.809 215.926V215.953H461.154V216.61ZM463.232 216.076C463.232 215.63 463.415 215.407 463.779 215.407C464.153 215.407 464.34 215.63 464.34 216.076C464.34 216.523 464.153 216.746 463.779 216.746C463.415 216.746 463.232 216.523 463.232 216.076ZM467.744 216.61L471.859 207.272H466.206V206.616H472.673V207.115L468.544 216.61H467.744ZM475.53 214.983L475.612 215.126C475.271 216.334 474.874 217.43 474.423 218.414H473.979C474.111 217.972 474.252 217.412 474.402 216.733C474.553 216.058 474.662 215.475 474.73 214.983H475.53ZM474.566 209.972C474.566 209.525 474.749 209.302 475.113 209.302C475.487 209.302 475.674 209.525 475.674 209.972C475.674 210.214 475.619 210.387 475.51 210.492C475.405 210.596 475.273 210.649 475.113 210.649C474.958 210.649 474.828 210.596 474.724 210.492C474.619 210.387 474.566 210.214 474.566 209.972ZM486.857 216.61V211.79C486.857 211.043 486.7 210.501 486.386 210.163C486.071 209.822 485.584 209.651 484.923 209.651C484.034 209.651 483.382 209.876 482.968 210.327C482.558 210.774 482.353 211.501 482.353 212.508V216.61H481.676V209.179H482.25L482.38 210.198H482.421C482.904 209.423 483.763 209.035 484.998 209.035C486.684 209.035 487.527 209.94 487.527 211.749V216.61H486.857ZM493.085 210.56V209.999H499.565V210.56H493.085ZM493.085 213.349V212.788H499.565V213.349H493.085ZM508.623 216.61H507.953V209.329C507.953 208.669 507.98 207.983 508.035 207.272C507.967 207.34 507.896 207.406 507.823 207.47C507.75 207.534 507.046 208.088 505.711 209.131L505.321 208.646L508.035 206.616H508.623V216.61ZM515.938 206.445C516.785 206.445 517.466 206.661 517.981 207.094C518.501 207.527 518.761 208.113 518.761 208.851C518.761 209.361 518.599 209.812 518.275 210.204C517.956 210.596 517.437 210.959 516.717 211.291C517.592 211.651 518.207 212.046 518.562 212.474C518.918 212.902 519.096 213.422 519.096 214.033C519.096 214.857 518.806 215.516 518.228 216.008C517.653 216.5 516.881 216.746 515.91 216.746C514.903 216.746 514.131 216.516 513.593 216.056C513.055 215.596 512.786 214.926 512.786 214.046C512.786 213.449 512.975 212.925 513.354 212.474C513.732 212.023 514.317 211.638 515.11 211.319C514.377 210.972 513.859 210.608 513.559 210.225C513.258 209.838 513.107 209.375 513.107 208.837C513.107 208.359 513.228 207.939 513.47 207.579C513.711 207.215 514.049 206.935 514.481 206.739C514.919 206.543 515.404 206.445 515.938 206.445ZM513.483 214.149C513.483 214.778 513.695 215.265 514.119 215.612C514.548 215.958 515.145 216.131 515.91 216.131C516.658 216.131 517.259 215.949 517.715 215.584C518.171 215.215 518.398 214.716 518.398 214.087C518.398 213.522 518.218 213.064 517.858 212.713C517.503 212.358 516.815 211.986 515.794 211.599C514.955 211.923 514.361 212.28 514.01 212.672C513.659 213.064 513.483 213.556 513.483 214.149ZM515.924 207.06C515.281 207.06 514.764 207.219 514.372 207.538C513.985 207.853 513.791 208.286 513.791 208.837C513.791 209.156 513.862 209.439 514.003 209.685C514.149 209.926 514.356 210.147 514.625 210.348C514.898 210.544 515.354 210.774 515.992 211.038C516.735 210.751 517.268 210.435 517.592 210.088C517.915 209.742 518.077 209.325 518.077 208.837C518.077 208.29 517.883 207.857 517.496 207.538C517.113 207.219 516.589 207.06 515.924 207.06ZM523.204 212.775C523.204 213.973 523.026 215.09 522.671 216.124C522.32 217.159 521.812 218.059 521.146 218.825H520.388C521.773 216.983 522.466 214.962 522.466 212.761C522.466 211.59 522.286 210.48 521.926 209.432C521.566 208.379 521.049 207.44 520.374 206.616H521.146C521.816 207.413 522.327 208.34 522.678 209.398C523.029 210.451 523.204 211.576 523.204 212.775Z" fill="#4D4D4F"/>
<path d="M526.373 211.849H525.983V207.605C525.983 207.219 525.999 206.82 526.031 206.405C525.991 206.445 525.95 206.484 525.907 206.521C525.864 206.558 525.454 206.881 524.676 207.489L524.448 207.206L526.031 206.023H526.373V211.849ZM529.494 210.901L529.542 210.984C529.342 211.688 529.111 212.327 528.848 212.901H528.589C528.794 212.171 528.94 211.504 529.028 210.901H529.494ZM534.169 211.849H530.522V211.498L532.072 209.88C532.508 209.429 532.814 209.083 532.989 208.844C533.164 208.605 533.293 208.377 533.376 208.159C533.458 207.941 533.499 207.712 533.499 207.473C533.499 207.125 533.385 206.842 533.156 206.624C532.928 206.406 532.632 206.298 532.268 206.298C531.781 206.298 531.316 206.474 530.873 206.828L530.658 206.553C531.144 206.143 531.683 205.939 532.276 205.939C532.783 205.939 533.182 206.074 533.471 206.345C533.763 206.616 533.91 206.99 533.91 207.465C533.91 207.85 533.811 208.224 533.615 208.585C533.421 208.944 533.065 209.388 532.547 209.916L531.052 211.451V211.467H534.169V211.849Z" fill="#4D4D4F"/>
<path d="M410.612 194.025H404.275V176.676L404.336 173.825L404.439 170.708C403.386 171.761 402.655 172.451 402.245 172.779L398.799 175.548L395.744 171.733L405.403 164.043H410.612V194.025ZM429.848 174.871C432.747 174.871 435.05 175.684 436.759 177.311C438.482 178.938 439.343 181.167 439.343 183.997C439.343 187.347 438.311 189.924 436.247 191.728C434.182 193.533 431.229 194.435 427.387 194.435C424.051 194.435 421.358 193.895 419.307 192.815V187.34C420.387 187.914 421.645 188.386 423.081 188.755C424.516 189.11 425.876 189.288 427.162 189.288C431.031 189.288 432.965 187.702 432.965 184.53C432.965 181.509 430.962 179.998 426.957 179.998C426.232 179.998 425.432 180.073 424.557 180.224C423.682 180.36 422.971 180.511 422.424 180.675L419.902 179.321L421.03 164.043H437.292V169.416H426.587L426.034 175.302L426.751 175.158C427.585 174.967 428.618 174.871 429.848 174.871ZM443.65 191.093C443.65 189.944 443.958 189.076 444.573 188.488C445.188 187.9 446.083 187.606 447.259 187.606C448.394 187.606 449.269 187.907 449.884 188.509C450.513 189.11 450.828 189.972 450.828 191.093C450.828 192.173 450.513 193.027 449.884 193.656C449.255 194.271 448.38 194.579 447.259 194.579C446.111 194.579 445.222 194.278 444.593 193.677C443.964 193.061 443.65 192.2 443.65 191.093ZM475.704 179.034C475.704 184.27 474.842 188.146 473.12 190.662C471.411 193.178 468.772 194.435 465.204 194.435C461.745 194.435 459.133 193.137 457.37 190.539C455.62 187.941 454.745 184.106 454.745 179.034C454.745 173.743 455.599 169.847 457.308 167.345C459.017 164.829 461.649 163.571 465.204 163.571C468.663 163.571 471.274 164.884 473.038 167.509C474.815 170.134 475.704 173.975 475.704 179.034ZM461.041 179.034C461.041 182.712 461.355 185.35 461.984 186.95C462.626 188.536 463.7 189.329 465.204 189.329C466.68 189.329 467.747 188.522 468.403 186.909C469.059 185.296 469.387 182.671 469.387 179.034C469.387 175.356 469.052 172.718 468.382 171.118C467.726 169.505 466.667 168.698 465.204 168.698C463.713 168.698 462.647 169.505 462.004 171.118C461.362 172.718 461.041 175.356 461.041 179.034Z" fill="#4D4D4F"/>
<path d="M480.926 166.5C480.926 167.513 481.014 168.27 481.189 168.772C481.372 169.266 481.663 169.513 482.062 169.513C482.827 169.513 483.209 168.509 483.209 166.5C483.209 164.508 482.827 163.511 482.062 163.511C481.663 163.511 481.372 163.758 481.189 164.253C481.014 164.739 480.926 165.488 480.926 166.5ZM486.222 166.476C486.222 168.31 485.868 169.689 485.158 170.613C484.449 171.53 483.409 171.988 482.038 171.988C480.723 171.988 479.706 171.518 478.989 170.577C478.272 169.629 477.913 168.262 477.913 166.476C477.913 162.834 479.288 161.013 482.038 161.013C483.385 161.013 484.417 161.487 485.134 162.435C485.86 163.376 486.222 164.723 486.222 166.476ZM494.448 161.264L484.752 178.743H481.882L491.579 161.264H494.448ZM493.169 173.483C493.169 174.495 493.257 175.252 493.432 175.754C493.615 176.249 493.906 176.496 494.305 176.496C495.07 176.496 495.452 175.491 495.452 173.483C495.452 171.49 495.07 170.494 494.305 170.494C493.906 170.494 493.615 170.741 493.432 171.235C493.257 171.721 493.169 172.47 493.169 173.483ZM498.465 173.459C498.465 175.284 498.111 176.659 497.401 177.584C496.692 178.5 495.652 178.959 494.281 178.959C492.966 178.959 491.949 178.488 491.232 177.548C490.515 176.599 490.156 175.236 490.156 173.459C490.156 169.816 491.531 167.995 494.281 167.995C495.628 167.995 496.66 168.469 497.377 169.418C498.103 170.358 498.465 171.705 498.465 173.459Z" fill="#4D4D4F"/>
<path d="M480.984 186.714V190.61H479.672V180.657H483.343C484.432 180.657 485.284 180.935 485.899 181.491C486.519 182.047 486.829 182.783 486.829 183.699C486.829 184.665 486.526 185.41 485.92 185.934C485.318 186.454 484.455 186.714 483.329 186.714H480.984ZM480.984 185.64H483.343C484.045 185.64 484.582 185.476 484.956 185.148C485.33 184.815 485.517 184.337 485.517 183.713C485.517 183.12 485.33 182.646 484.956 182.291C484.582 181.935 484.07 181.751 483.418 181.737H480.984V185.64ZM492.154 186.584H489.816V190.61H488.497V180.657H491.792C492.913 180.657 493.774 180.912 494.376 181.423C494.982 181.933 495.285 182.676 495.285 183.651C495.285 184.271 495.117 184.811 494.779 185.271C494.447 185.731 493.982 186.076 493.385 186.303L495.723 190.528V190.61H494.314L492.154 186.584ZM489.816 185.51H491.833C492.485 185.51 493.002 185.342 493.385 185.005C493.772 184.667 493.966 184.216 493.966 183.651C493.966 183.036 493.781 182.564 493.412 182.236C493.048 181.908 492.519 181.742 491.826 181.737H489.816V185.51Z" fill="#4D4D4F"/>
<path d="M172.636 165.817H136.707V158.258L149.609 145.215C153.429 141.301 155.925 138.594 157.097 137.094C158.269 135.571 159.113 134.165 159.629 132.876C160.144 131.586 160.402 130.251 160.402 128.868C160.402 126.805 159.828 125.27 158.679 124.262C157.554 123.254 156.043 122.751 154.144 122.751C152.152 122.751 150.218 123.208 148.343 124.122C146.468 125.036 144.511 126.336 142.472 128.024L136.566 121.028C139.097 118.872 141.195 117.348 142.859 116.458C144.523 115.567 146.34 114.887 148.308 114.419C150.277 113.926 152.48 113.68 154.918 113.68C158.129 113.68 160.965 114.266 163.425 115.438C165.886 116.61 167.797 118.251 169.156 120.36C170.515 122.469 171.195 124.883 171.195 127.602C171.195 129.969 170.773 132.196 169.929 134.282C169.109 136.344 167.82 138.465 166.062 140.645C164.328 142.825 161.258 145.93 156.851 149.961L150.242 156.184V156.676H172.636V165.817ZM196.543 132.981C201.511 132.981 205.461 134.376 208.39 137.165C211.343 139.954 212.82 143.774 212.82 148.626C212.82 154.368 211.05 158.786 207.511 161.879C203.972 164.973 198.91 166.52 192.324 166.52C186.605 166.52 181.988 165.594 178.472 163.743V154.356C180.324 155.34 182.48 156.149 184.941 156.782C187.402 157.391 189.734 157.696 191.937 157.696C198.57 157.696 201.886 154.977 201.886 149.54C201.886 144.36 198.453 141.77 191.586 141.77C190.343 141.77 188.972 141.899 187.472 142.157C185.972 142.391 184.754 142.649 183.816 142.93L179.492 140.61L181.425 114.419H209.304V123.629H190.953L190.004 133.719L191.234 133.473C192.664 133.145 194.433 132.981 196.543 132.981ZM220.203 160.79C220.203 158.821 220.73 157.333 221.785 156.325C222.84 155.317 224.375 154.813 226.39 154.813C228.336 154.813 229.836 155.329 230.89 156.36C231.968 157.391 232.508 158.868 232.508 160.79C232.508 162.641 231.968 164.106 230.89 165.184C229.812 166.239 228.312 166.766 226.39 166.766C224.422 166.766 222.898 166.251 221.82 165.219C220.742 164.165 220.203 162.688 220.203 160.79ZM257.222 113.751C262.144 113.751 266.105 114.876 269.105 117.126C272.129 119.352 273.64 122.364 273.64 126.161C273.64 128.786 272.914 131.129 271.461 133.192C270.008 135.231 267.664 137.059 264.429 138.676C268.273 140.739 271.027 142.895 272.691 145.145C274.379 147.372 275.222 149.821 275.222 152.493C275.222 156.711 273.57 160.11 270.265 162.688C266.961 165.243 262.613 166.52 257.222 166.52C251.597 166.52 247.179 165.325 243.968 162.934C240.758 160.544 239.152 157.157 239.152 152.774C239.152 149.844 239.925 147.243 241.472 144.969C243.043 142.696 245.55 140.692 248.996 138.958C246.066 137.106 243.957 135.126 242.668 133.016C241.379 130.907 240.734 128.598 240.734 126.09C240.734 122.411 242.258 119.434 245.304 117.161C248.351 114.887 252.324 113.751 257.222 113.751ZM249.207 152.141C249.207 154.157 249.91 155.727 251.316 156.852C252.722 157.977 254.644 158.54 257.082 158.54C259.777 158.54 261.793 157.965 263.129 156.817C264.465 155.645 265.133 154.11 265.133 152.211C265.133 150.641 264.465 149.176 263.129 147.817C261.816 146.434 259.672 144.969 256.695 143.422C251.703 145.719 249.207 148.626 249.207 152.141ZM257.152 121.696C255.3 121.696 253.8 122.176 252.652 123.137C251.527 124.075 250.965 125.34 250.965 126.934C250.965 128.34 251.41 129.606 252.3 130.731C253.215 131.833 254.855 132.969 257.222 134.141C259.519 133.063 261.125 131.961 262.039 130.836C262.953 129.711 263.41 128.411 263.41 126.934C263.41 125.317 262.824 124.04 261.652 123.102C260.48 122.165 258.98 121.696 257.152 121.696Z" fill="#430298"/>
<path d="M286.839 119.383C286.839 121.118 286.99 122.416 287.29 123.277C287.604 124.124 288.103 124.548 288.786 124.548C290.098 124.548 290.754 122.826 290.754 119.383C290.754 115.967 290.098 114.259 288.786 114.259C288.103 114.259 287.604 114.682 287.29 115.529C286.99 116.363 286.839 117.647 286.839 119.383ZM295.919 119.342C295.919 122.484 295.311 124.848 294.095 126.433C292.879 128.005 291.096 128.79 288.745 128.79C286.491 128.79 284.749 127.984 283.519 126.372C282.289 124.746 281.674 122.402 281.674 119.342C281.674 113.097 284.031 109.975 288.745 109.975C291.055 109.975 292.824 110.788 294.054 112.414C295.297 114.026 295.919 116.335 295.919 119.342ZM310.02 110.405L293.398 140.371H288.479L305.101 110.405H310.02ZM307.827 131.352C307.827 133.088 307.978 134.386 308.278 135.247C308.592 136.094 309.091 136.517 309.774 136.517C311.086 136.517 311.742 134.796 311.742 131.352C311.742 127.936 311.086 126.228 309.774 126.228C309.091 126.228 308.592 126.652 308.278 127.499C307.978 128.333 307.827 129.617 307.827 131.352ZM316.907 131.311C316.907 134.44 316.299 136.797 315.083 138.382C313.867 139.954 312.084 140.739 309.733 140.739C307.479 140.739 305.737 139.933 304.507 138.321C303.277 136.695 302.662 134.358 302.662 131.311C302.662 125.067 305.019 121.945 309.733 121.945C312.043 121.945 313.812 122.758 315.042 124.384C316.285 125.996 316.907 128.305 316.907 131.311Z" fill="#430298"/>
<path d="M291.376 158.57C291.376 160.033 291.13 161.311 290.637 162.405C290.145 163.492 289.448 164.323 288.546 164.897C287.643 165.471 286.59 165.758 285.387 165.758C284.212 165.758 283.169 165.471 282.26 164.897C281.351 164.316 280.643 163.492 280.137 162.426C279.638 161.352 279.382 160.112 279.368 158.704V157.627C279.368 156.191 279.618 154.923 280.117 153.823C280.616 152.722 281.32 151.881 282.229 151.3C283.145 150.712 284.191 150.418 285.367 150.418C286.563 150.418 287.616 150.709 288.525 151.29C289.441 151.864 290.145 152.702 290.637 153.802C291.13 154.896 291.376 156.171 291.376 157.627V158.57ZM289.417 157.606C289.417 155.836 289.062 154.479 288.351 153.536C287.64 152.585 286.645 152.11 285.367 152.11C284.123 152.11 283.142 152.585 282.424 153.536C281.713 154.479 281.347 155.791 281.327 157.473V158.57C281.327 160.286 281.686 161.636 282.403 162.621C283.128 163.598 284.123 164.087 285.387 164.087C286.659 164.087 287.643 163.625 288.34 162.703C289.038 161.773 289.397 160.443 289.417 158.714V157.606ZM299.804 159.514H296.297V165.553H294.318V150.623H299.261C300.943 150.623 302.234 151.006 303.137 151.772C304.046 152.538 304.501 153.652 304.501 155.115C304.501 156.044 304.248 156.854 303.742 157.545C303.243 158.235 302.546 158.751 301.65 159.093L305.157 165.43V165.553H303.045L299.804 159.514ZM296.297 157.904H299.322C300.3 157.904 301.076 157.651 301.65 157.145C302.231 156.639 302.522 155.962 302.522 155.115C302.522 154.192 302.245 153.484 301.691 152.992C301.144 152.5 300.351 152.25 299.312 152.244H296.297V157.904ZM312.745 159.514H309.238V165.553H307.259V150.623H312.201C313.883 150.623 315.175 151.006 316.077 151.772C316.986 152.538 317.441 153.652 317.441 155.115C317.441 156.044 317.188 156.854 316.682 157.545C316.183 158.235 315.486 158.751 314.59 159.093L318.097 165.43V165.553H315.985L312.745 159.514ZM309.238 157.904H312.263C313.24 157.904 314.016 157.651 314.59 157.145C315.172 156.639 315.462 155.962 315.462 155.115C315.462 154.192 315.185 153.484 314.631 152.992C314.085 152.5 313.292 152.25 312.253 152.244H309.238V157.904Z" fill="#430298"/>
<path d="M129.561 184.209C129.561 183.002 129.736 181.872 130.087 180.819C130.442 179.766 130.953 178.843 131.618 178.05H132.391C131.716 178.88 131.199 179.821 130.839 180.873C130.479 181.922 130.299 183.029 130.299 184.196C130.299 186.397 130.992 188.418 132.377 190.259H131.618C130.948 189.484 130.438 188.58 130.087 187.545C129.736 186.511 129.561 185.399 129.561 184.209ZM139.896 182.289C139.896 183.601 139.723 184.699 139.377 185.583C139.035 186.468 138.534 187.122 137.873 187.545C137.217 187.969 136.422 188.181 135.487 188.181C135.013 188.181 134.576 188.122 134.175 188.003V187.415C134.371 187.479 134.605 187.529 134.879 187.566C135.157 187.598 135.369 187.614 135.515 187.614C136.64 187.614 137.522 187.208 138.16 186.397C138.798 185.581 139.154 184.394 139.227 182.835H139.145C138.812 183.273 138.415 183.61 137.955 183.847C137.495 184.08 137.014 184.196 136.513 184.196C135.588 184.196 134.865 183.941 134.346 183.43C133.831 182.92 133.573 182.195 133.573 181.256C133.573 180.254 133.856 179.442 134.421 178.823C134.991 178.203 135.729 177.893 136.636 177.893C137.292 177.893 137.866 178.066 138.358 178.413C138.851 178.754 139.229 179.258 139.493 179.923C139.762 180.589 139.896 181.377 139.896 182.289ZM136.636 178.495C135.916 178.495 135.341 178.738 134.913 179.226C134.485 179.709 134.271 180.372 134.271 181.215C134.271 182.008 134.469 182.61 134.865 183.02C135.262 183.43 135.829 183.635 136.567 183.635C137.028 183.635 137.456 183.533 137.853 183.328C138.254 183.122 138.57 182.851 138.803 182.514C139.04 182.172 139.158 181.826 139.158 181.475C139.158 180.942 139.051 180.443 138.837 179.978C138.627 179.513 138.331 179.151 137.948 178.891C137.57 178.627 137.132 178.495 136.636 178.495ZM144.483 182.036C145.55 182.036 146.388 182.293 146.999 182.808C147.614 183.323 147.922 184.032 147.922 184.934C147.922 185.959 147.603 186.757 146.965 187.327C146.327 187.896 145.447 188.181 144.326 188.181C143.829 188.181 143.358 188.133 142.911 188.038C142.465 187.937 142.091 187.796 141.79 187.614V186.91C142.282 187.16 142.72 187.336 143.103 187.436C143.485 187.532 143.893 187.58 144.326 187.58C145.201 187.58 145.903 187.349 146.432 186.889C146.96 186.424 147.225 185.798 147.225 185.009C147.225 184.266 146.967 183.683 146.452 183.259C145.937 182.835 145.238 182.623 144.354 182.623C143.761 182.623 143.141 182.712 142.494 182.89L142.084 182.623L142.48 178.05H147.293V178.706H143.123L142.815 182.234C143.526 182.102 144.082 182.036 144.483 182.036ZM150.253 181.031C150.253 181.878 150.355 182.516 150.561 182.945C150.766 183.369 151.087 183.581 151.524 183.581C152.404 183.581 152.844 182.731 152.844 181.031C152.844 180.192 152.73 179.563 152.502 179.144C152.279 178.72 151.953 178.508 151.524 178.508C151.087 178.508 150.766 178.72 150.561 179.144C150.355 179.563 150.253 180.192 150.253 181.031ZM153.514 181.031C153.514 182.061 153.343 182.845 153.001 183.382C152.659 183.915 152.167 184.182 151.524 184.182C150.918 184.182 150.442 183.909 150.096 183.362C149.754 182.81 149.583 182.033 149.583 181.031C149.583 180.014 149.747 179.24 150.075 178.706C150.403 178.173 150.886 177.907 151.524 177.907C152.158 177.907 152.648 178.182 152.994 178.734C153.34 179.281 153.514 180.046 153.514 181.031ZM156.077 185.05C156.077 185.893 156.18 186.527 156.385 186.951C156.59 187.37 156.911 187.58 157.349 187.58C158.228 187.58 158.668 186.736 158.668 185.05C158.668 183.369 158.228 182.528 157.349 182.528C156.911 182.528 156.59 182.737 156.385 183.157C156.18 183.571 156.077 184.203 156.077 185.05ZM159.338 185.05C159.338 186.08 159.169 186.864 158.832 187.402C158.495 187.935 158.005 188.202 157.362 188.202C156.743 188.202 156.262 187.926 155.92 187.374C155.578 186.818 155.407 186.044 155.407 185.05C155.407 184.025 155.574 183.248 155.906 182.719C156.243 182.191 156.729 181.926 157.362 181.926C157.987 181.926 158.472 182.2 158.818 182.747C159.165 183.293 159.338 184.061 159.338 185.05ZM157.561 178.05L152.017 188.044H151.36L156.904 178.05H157.561ZM169.435 178.536C168.181 178.536 167.195 178.937 166.475 179.739C165.755 180.541 165.395 181.639 165.395 183.034C165.395 184.46 165.734 185.567 166.413 186.356C167.092 187.144 168.063 187.539 169.325 187.539C170.164 187.539 170.934 187.431 171.636 187.217V187.832C170.975 188.065 170.15 188.181 169.161 188.181C167.757 188.181 166.652 187.728 165.846 186.821C165.039 185.914 164.636 184.647 164.636 183.02C164.636 182.004 164.827 181.108 165.21 180.333C165.597 179.559 166.151 178.962 166.871 178.542C167.596 178.119 168.437 177.907 169.394 177.907C170.369 177.907 171.242 178.089 172.012 178.454L171.731 179.082C171.002 178.718 170.237 178.536 169.435 178.536ZM173.864 188.044V178.05H174.562V188.044H173.864ZM177.993 186.417L178.075 186.561C177.733 187.769 177.337 188.865 176.886 189.849H176.441C176.792 188.596 177.043 187.452 177.193 186.417H177.993ZM187.283 188.044H186.613V180.764C186.613 180.103 186.641 179.417 186.695 178.706C186.627 178.775 186.556 178.841 186.483 178.905C186.41 178.969 185.706 179.522 184.371 180.566L183.981 180.081L186.695 178.05H187.283V188.044ZM194.598 177.879C195.445 177.879 196.127 178.096 196.642 178.529C197.161 178.962 197.421 179.547 197.421 180.286C197.421 180.796 197.259 181.247 196.936 181.639C196.617 182.031 196.097 182.393 195.377 182.726C196.252 183.086 196.867 183.48 197.223 183.909C197.578 184.337 197.756 184.857 197.756 185.467C197.756 186.292 197.466 186.951 196.888 187.443C196.313 187.935 195.541 188.181 194.57 188.181C193.563 188.181 192.791 187.951 192.253 187.491C191.715 187.03 191.446 186.36 191.446 185.481C191.446 184.884 191.635 184.36 192.014 183.909C192.392 183.457 192.978 183.072 193.771 182.753C193.037 182.407 192.52 182.042 192.219 181.66C191.918 181.272 191.768 180.81 191.768 180.272C191.768 179.793 191.888 179.374 192.13 179.014C192.371 178.65 192.709 178.369 193.142 178.173C193.579 177.977 194.064 177.879 194.598 177.879ZM192.144 185.583C192.144 186.212 192.355 186.7 192.779 187.046C193.208 187.393 193.805 187.566 194.57 187.566C195.318 187.566 195.919 187.384 196.375 187.019C196.831 186.65 197.059 186.151 197.059 185.522C197.059 184.957 196.879 184.499 196.519 184.148C196.163 183.792 195.475 183.421 194.454 183.034C193.616 183.357 193.021 183.715 192.67 184.107C192.319 184.499 192.144 184.991 192.144 185.583ZM194.584 178.495C193.941 178.495 193.424 178.654 193.032 178.973C192.645 179.288 192.451 179.72 192.451 180.272C192.451 180.591 192.522 180.873 192.663 181.12C192.809 181.361 193.016 181.582 193.285 181.783C193.559 181.979 194.014 182.209 194.652 182.473C195.395 182.186 195.928 181.869 196.252 181.523C196.576 181.177 196.737 180.76 196.737 180.272C196.737 179.725 196.544 179.292 196.156 178.973C195.773 178.654 195.249 178.495 194.584 178.495ZM199.725 187.511C199.725 187.065 199.907 186.841 200.271 186.841C200.645 186.841 200.832 187.065 200.832 187.511C200.832 187.958 200.645 188.181 200.271 188.181C199.907 188.181 199.725 187.958 199.725 187.511ZM208.646 180.402C208.646 181.022 208.45 181.543 208.058 181.967C207.67 182.391 207.148 182.662 206.492 182.781V182.822C207.294 182.922 207.905 183.177 208.324 183.587C208.743 183.997 208.953 184.549 208.953 185.242C208.953 186.176 208.634 186.9 207.996 187.415C207.363 187.926 206.449 188.181 205.255 188.181C204.239 188.181 203.352 187.992 202.596 187.614V186.937C202.979 187.137 203.407 187.295 203.881 187.409C204.359 187.523 204.808 187.58 205.228 187.58C206.235 187.58 206.991 187.377 207.497 186.971C208.003 186.561 208.256 185.984 208.256 185.242C208.256 184.581 207.996 184.073 207.477 183.717C206.962 183.362 206.203 183.184 205.2 183.184H204.12V182.528H205.214C206.043 182.528 206.7 182.332 207.183 181.94C207.67 181.543 207.914 181.008 207.914 180.333C207.914 179.777 207.716 179.333 207.319 179C206.927 178.663 206.412 178.495 205.774 178.495C205.278 178.495 204.824 178.565 204.414 178.706C204.004 178.843 203.544 179.08 203.033 179.417L202.698 178.959C203.086 178.636 203.553 178.381 204.1 178.194C204.646 178.002 205.2 177.907 205.761 177.907C206.681 177.907 207.392 178.125 207.894 178.563C208.395 178.996 208.646 179.609 208.646 180.402ZM210.58 184.544V183.984H213.827V184.544H210.58ZM221.155 180.402C221.155 181.022 220.959 181.543 220.567 181.967C220.18 182.391 219.658 182.662 219.002 182.781V182.822C219.804 182.922 220.415 183.177 220.834 183.587C221.253 183.997 221.463 184.549 221.463 185.242C221.463 186.176 221.144 186.9 220.506 187.415C219.872 187.926 218.959 188.181 217.765 188.181C216.748 188.181 215.862 187.992 215.105 187.614V186.937C215.488 187.137 215.917 187.295 216.391 187.409C216.869 187.523 217.318 187.58 217.737 187.58C218.744 187.58 219.501 187.377 220.007 186.971C220.513 186.561 220.766 185.984 220.766 185.242C220.766 184.581 220.506 184.073 219.986 183.717C219.471 183.362 218.713 183.184 217.71 183.184H216.63V182.528H217.724C218.553 182.528 219.209 182.332 219.692 181.94C220.18 181.543 220.424 181.008 220.424 180.333C220.424 179.777 220.226 179.333 219.829 179C219.437 178.663 218.922 178.495 218.284 178.495C217.787 178.495 217.334 178.565 216.924 178.706C216.514 178.843 216.053 179.08 215.543 179.417L215.208 178.959C215.595 178.636 216.062 178.381 216.609 178.194C217.156 178.002 217.71 177.907 218.271 177.907C219.191 177.907 219.902 178.125 220.403 178.563C220.905 178.996 221.155 179.609 221.155 180.402ZM230.261 185.495H228.538V188.044H227.896V185.495H222.755V185.037L227.711 177.996H228.538V184.907H230.261V185.495ZM227.896 184.907V182.049C227.896 180.673 227.927 179.518 227.991 178.583H227.937C227.845 178.752 227.565 179.18 227.096 179.869L223.568 184.907H227.896ZM231.566 187.511C231.566 187.065 231.749 186.841 232.113 186.841C232.487 186.841 232.674 187.065 232.674 187.511C232.674 187.958 232.487 188.181 232.113 188.181C231.749 188.181 231.566 187.958 231.566 187.511ZM234.69 183.786C234.69 182.487 234.866 181.395 235.217 180.511C235.572 179.622 236.074 178.964 236.721 178.536C237.372 178.107 238.156 177.893 239.072 177.893C239.501 177.893 239.893 177.945 240.248 178.05V178.652C239.915 178.529 239.514 178.467 239.045 178.467C237.919 178.467 237.042 178.873 236.413 179.684C235.789 180.495 235.438 181.676 235.36 183.225H235.449C235.796 182.778 236.192 182.441 236.639 182.213C237.085 181.985 237.557 181.872 238.054 181.872C238.988 181.872 239.717 182.138 240.241 182.671C240.77 183.205 241.034 183.941 241.034 184.879C241.034 185.9 240.756 186.707 240.2 187.299C239.649 187.887 238.904 188.181 237.965 188.181C236.953 188.181 236.153 187.796 235.565 187.026C234.982 186.251 234.69 185.171 234.69 183.786ZM237.965 187.58C238.712 187.58 239.293 187.345 239.708 186.875C240.123 186.406 240.33 185.736 240.33 184.866C240.33 184.1 240.125 183.503 239.715 183.075C239.305 182.646 238.746 182.432 238.04 182.432C237.575 182.432 237.142 182.535 236.741 182.74C236.345 182.945 236.028 183.218 235.791 183.56C235.554 183.897 235.436 184.244 235.436 184.599C235.436 185.105 235.547 185.593 235.771 186.062C235.998 186.527 236.304 186.896 236.687 187.169C237.074 187.443 237.5 187.58 237.965 187.58ZM243.864 186.417L243.946 186.561C243.604 187.769 243.208 188.865 242.757 189.849H242.312C242.445 189.407 242.586 188.846 242.736 188.167C242.887 187.493 242.996 186.91 243.064 186.417H243.864ZM242.9 181.407C242.9 180.96 243.083 180.737 243.447 180.737C243.821 180.737 244.008 180.96 244.008 181.407C244.008 181.648 243.953 181.821 243.844 181.926C243.739 182.031 243.607 182.083 243.447 182.083C243.292 182.083 243.162 182.031 243.058 181.926C242.953 181.821 242.9 181.648 242.9 181.407ZM255.191 188.044V183.225C255.191 182.478 255.034 181.935 254.72 181.598C254.405 181.256 253.918 181.085 253.257 181.085C252.368 181.085 251.716 181.311 251.302 181.762C250.892 182.209 250.687 182.936 250.687 183.943V188.044H250.01V180.614H250.584L250.714 181.632H250.755C251.238 180.858 252.097 180.47 253.332 180.47C255.018 180.47 255.861 181.375 255.861 183.184V188.044H255.191ZM261.419 181.995V181.434H267.899V181.995H261.419ZM261.419 184.784V184.223H267.899V184.784H261.419ZM278.987 180.402C278.987 181.022 278.791 181.543 278.399 181.967C278.012 182.391 277.49 182.662 276.834 182.781V182.822C277.636 182.922 278.247 183.177 278.666 183.587C279.085 183.997 279.295 184.549 279.295 185.242C279.295 186.176 278.976 186.9 278.338 187.415C277.704 187.926 276.791 188.181 275.597 188.181C274.58 188.181 273.694 187.992 272.938 187.614V186.937C273.32 187.137 273.749 187.295 274.223 187.409C274.701 187.523 275.15 187.58 275.569 187.58C276.576 187.58 277.333 187.377 277.839 186.971C278.345 186.561 278.598 185.984 278.598 185.242C278.598 184.581 278.338 184.073 277.818 183.717C277.303 183.362 276.545 183.184 275.542 183.184H274.462V182.528H275.556C276.385 182.528 277.041 182.332 277.524 181.94C278.012 181.543 278.256 181.008 278.256 180.333C278.256 179.777 278.058 179.333 277.661 179C277.269 178.663 276.754 178.495 276.116 178.495C275.619 178.495 275.166 178.565 274.756 178.706C274.346 178.843 273.885 179.08 273.375 179.417L273.04 178.959C273.427 178.636 273.895 178.381 274.441 178.194C274.988 178.002 275.542 177.907 276.103 177.907C277.023 177.907 277.734 178.125 278.235 178.563C278.737 178.996 278.987 179.609 278.987 180.402ZM284.955 188.044H284.285V180.764C284.285 180.103 284.312 179.417 284.367 178.706C284.299 178.775 284.228 178.841 284.155 178.905C284.082 178.969 283.378 179.522 282.043 180.566L281.653 180.081L284.367 178.05H284.955V188.044ZM291.538 184.209C291.538 185.408 291.36 186.525 291.005 187.559C290.654 188.594 290.146 189.494 289.48 190.259H288.722C290.107 188.418 290.8 186.397 290.8 184.196C290.8 183.025 290.62 181.915 290.26 180.867C289.9 179.814 289.382 178.875 288.708 178.05H289.48C290.15 178.848 290.661 179.775 291.012 180.832C291.363 181.885 291.538 183.011 291.538 184.209Z" fill="#430298"/>
<path d="M297.8 183.318H297.409V179.074C297.409 178.689 297.425 178.289 297.457 177.874C297.417 177.914 297.376 177.953 297.333 177.99C297.291 178.027 296.88 178.35 296.102 178.959L295.875 178.676L297.457 177.492H297.8V183.318ZM300.92 182.37L300.968 182.454C300.769 183.158 300.537 183.797 300.274 184.371H300.015C300.22 183.64 300.366 182.973 300.454 182.37H300.92ZM305.595 183.318H301.948V182.968L303.499 181.35C303.934 180.898 304.24 180.553 304.415 180.314C304.591 180.074 304.719 179.846 304.802 179.628C304.884 179.41 304.925 179.182 304.925 178.943C304.925 178.595 304.811 178.312 304.583 178.094C304.354 177.876 304.058 177.767 303.694 177.767C303.208 177.767 302.743 177.944 302.299 178.297L302.084 178.022C302.57 177.613 303.109 177.408 303.702 177.408C304.209 177.408 304.608 177.544 304.897 177.815C305.19 178.086 305.336 178.459 305.336 178.935C305.336 179.32 305.238 179.693 305.041 180.054C304.847 180.413 304.491 180.857 303.973 181.386L302.478 182.92V182.936H305.595V183.318ZM307.336 182.37L307.384 182.454C307.185 183.158 306.954 183.797 306.691 184.371H306.432C306.636 183.64 306.783 182.973 306.87 182.37H307.336ZM308.492 180.078C308.492 179.858 308.559 179.656 308.692 179.473C308.827 179.287 309.012 179.143 309.245 179.042C309.017 178.917 308.851 178.782 308.747 178.636C308.644 178.49 308.592 178.309 308.592 178.094C308.592 177.783 308.726 177.54 308.994 177.364C309.265 177.186 309.632 177.097 310.094 177.097C310.559 177.097 311.006 177.182 311.433 177.352L311.294 177.671C311.052 177.581 310.841 177.518 310.66 177.484C310.482 177.449 310.291 177.432 310.086 177.432C309.73 177.432 309.457 177.492 309.265 177.611C309.077 177.728 308.982 177.886 308.982 178.086C308.982 178.229 309.016 178.347 309.082 178.44C309.151 178.531 309.265 178.617 309.425 178.699C309.584 178.782 309.834 178.88 310.174 178.994C310.684 179.164 311.035 179.341 311.226 179.524C311.417 179.705 311.513 179.931 311.513 180.202C311.513 180.662 311.266 181.026 310.772 181.294C311 181.406 311.172 181.533 311.286 181.677C311.4 181.82 311.457 182.001 311.457 182.219C311.457 182.577 311.307 182.854 311.007 183.047C310.707 183.239 310.294 183.334 309.768 183.334C309.523 183.334 309.296 183.314 309.086 183.275C308.876 183.235 308.657 183.166 308.428 183.067V182.689C308.912 182.896 309.353 183 309.752 183C310.182 183 310.51 182.935 310.736 182.804C310.962 182.672 311.075 182.484 311.075 182.242C311.075 182.096 311.042 181.981 310.975 181.896C310.909 181.808 310.79 181.72 310.62 181.633C310.453 181.545 310.201 181.44 309.863 181.318C309.332 181.124 308.97 180.937 308.779 180.756C308.588 180.573 308.492 180.347 308.492 180.078ZM308.895 180.031C308.895 180.203 308.936 180.341 309.018 180.445C309.103 180.549 309.244 180.648 309.441 180.744C309.637 180.84 309.969 180.971 310.437 181.138C310.655 181.03 310.822 180.899 310.939 180.748C311.056 180.596 311.115 180.436 311.115 180.266C311.115 180.101 311.072 179.965 310.987 179.859C310.902 179.753 310.757 179.651 310.553 179.552C310.351 179.454 310.037 179.338 309.612 179.206C309.397 179.267 309.223 179.372 309.09 179.52C308.96 179.669 308.895 179.839 308.895 180.031Z" fill="#430298"/>
</g>
<defs>
<clipPath id="clip0">
<rect width="456.1" height="154.4" fill="white" transform="translate(87 66)"/>
</clipPath>
</defs>
</svg>
