<svg xmlns="http://www.w3.org/2000/svg" width="210.76" height="163.3" viewBox="0 0 210.76 163.3">
  <g id="Layer_2" data-name="Layer 2">
    <g id="Layer_1-2" data-name="Layer 1">
      <g>
        <path d="M125.17,48.81l6.92-6.71,1.16,1.18a4.06,4.06,0,0,0,5.83-5.65L128,26.25a4.06,4.06,0,0,0-5.83,5.64l1.16,1.18-6.93,6.73A70.2,70.2,0,0,0,80.5,23.59V12.23h4.31a4.31,4.31,0,0,0,4.32-4.3V4.3A4.31,4.31,0,0,0,84.81,0H57.06a4.31,4.31,0,0,0-4.32,4.3V7.92a4.32,4.32,0,0,0,4.32,4.3h4.32V23.46A70.23,70.23,0,1,0,141,93.09,69.84,69.84,0,0,0,125.17,48.81Zm-8.5,87.55-4.82-4.8a1.89,1.89,0,0,0-2.68,0l0,0a1.87,1.87,0,0,0,0,2.67l4.82,4.8a63.31,63.31,0,0,1-41.37,17.14v-6.83a1.88,1.88,0,0,0-1.9-1.87h-.06a1.87,1.87,0,0,0-1.9,1.87v6.84a63.34,63.34,0,0,1-41.53-17l5-4.95a1.87,1.87,0,0,0,0-2.67l0,0a1.89,1.89,0,0,0-2.68,0l-5,4.95A62.87,62.87,0,0,1,7.1,95.17h7.17a1.89,1.89,0,0,0,1.89-1.9v-.06a1.88,1.88,0,0,0-1.89-1.9H7.1A62.75,62.75,0,0,1,24.3,49.8l5.13,5.1a1.89,1.89,0,0,0,2.68,0l0,0a1.87,1.87,0,0,0,0-2.67L27,47.08A63.33,63.33,0,0,1,68.71,29.94v7.14A1.88,1.88,0,0,0,70.61,39h.06a1.87,1.87,0,0,0,1.9-1.87V29.94a63.38,63.38,0,0,1,41.52,17.28l-5,5a1.87,1.87,0,0,0,0,2.67l0,0a1.89,1.89,0,0,0,2.68,0l5-4.94A62.79,62.79,0,0,1,133.86,91.3H127a1.89,1.89,0,0,0-1.88,1.9v0a1.88,1.88,0,0,0,1.88,1.9h6.86A62.79,62.79,0,0,1,116.67,136.36Z" fill="#44546a" fill-rule="evenodd"/>
        <text transform="translate(20.59 125.62)" font-size="82.35" fill="#410099" font-family="OpenSans-Semibold, Open Sans" font-weight="600" style="isolation: isolate">12</text>
        <rect x="115.85" y="89.33" width="94.91" height="36.29" fill="#fff"/>
        <text transform="translate(115.37 118.64)" font-size="33.5" fill="#410099" font-family="OpenSans-Semibold, Open Sans" font-weight="600" style="isolation: isolate">hours</text>
      </g>
    </g>
  </g>
</svg>
