<svg xmlns="http://www.w3.org/2000/svg" xmlns:xlink="http://www.w3.org/1999/xlink" width="108.62" height="150" viewBox="0 0 108.62 150">
  <defs>
    <linearGradient id="linear-gradient" x1="393.81" y1="5591.86" x2="285.19" y2="5591.86" gradientTransform="matrix(1, 0, 0, -1, -285.19, 5666.86)" gradientUnits="userSpaceOnUse">
      <stop offset="0" stop-color="#410099" stop-opacity="0.5"/>
      <stop offset="0.01" stop-color="#410099" stop-opacity="0.5"/>
      <stop offset="1" stop-color="#410099"/>
    </linearGradient>
    <linearGradient id="linear-gradient-2" x1="338.86" y1="5613.84" x2="338.86" y2="5577.64" gradientTransform="matrix(1, 0, 0, -1, -285.19, 5666.86)" gradientUnits="userSpaceOnUse">
      <stop offset="0" stop-color="#fff" stop-opacity="0.5"/>
      <stop offset="0.01" stop-color="#fff" stop-opacity="0.5"/>
      <stop offset="1" stop-color="#fff"/>
    </linearGradient>
  </defs>
  <g id="Layer_2" data-name="Layer 2">
    <g id="Layer_1-2" data-name="Layer 1">
      <g>
        <path d="M86.41,0V95.69h22.21L54.31,150,0,95.69H22.22V0Z" fill-rule="evenodd" fill="url(#linear-gradient)"/>
        <path d="M68.17,89.22h-29a3,3,0,0,1-2.95-3.09V54.93s10.38,2.31,17.08-.38c8.18-3.27,17.83-.29,17.83-.29V86.13A3,3,0,0,1,68.17,89.22Z" fill-rule="evenodd" fill="url(#linear-gradient-2)"/>
        <path d="M69.85,34.34H59.66a8.61,8.61,0,0,0,2.86-6.44,8.21,8.21,0,1,0-16.41,0A8.6,8.6,0,0,0,49,34.34H38.77A6.57,6.57,0,0,0,32.33,41V87.74a6.56,6.56,0,0,0,6.44,6.67h8.76V97a2.45,2.45,0,0,0,2.4,2.49h2.19v7.81H56.5V99.52h2.19A2.45,2.45,0,0,0,61.09,97V94.41h8.76a6.56,6.56,0,0,0,6.44-6.67V41A6.57,6.57,0,0,0,69.85,34.34ZM48.53,27.9a5.79,5.79,0,1,1,5.78,6A5.89,5.89,0,0,1,48.53,27.9ZM73.87,87.74a4.09,4.09,0,0,1-4,4.16H38.77a4.09,4.09,0,0,1-4-4.16V41a4.1,4.1,0,0,1,4-4.17H69.85a4.1,4.1,0,0,1,4,4.17Z" fill="#fff" fill-rule="evenodd"/>
      </g>
    </g>
  </g>
</svg>
