<svg xmlns="http://www.w3.org/2000/svg" xmlns:xlink="http://www.w3.org/1999/xlink" width="78" height="152" viewBox="0 0 78 152">
  <defs>
    <linearGradient id="linear-gradient" x1="389.19" y1="9198.68" x2="389.19" y2="9137.68" gradientTransform="matrix(1, 0, 0, -1, -350.19, 9258.68)" gradientUnits="userSpaceOnUse">
      <stop offset="0" stop-color="#410099" stop-opacity="0.5"/>
      <stop offset="0.01" stop-color="#410099" stop-opacity="0.5"/>
      <stop offset="1" stop-color="#410099"/>
    </linearGradient>
  </defs>
  <g id="Layer_2" data-name="Layer 2">
    <g id="Layer_1-2" data-name="Layer 1">
      <g>
        <path d="M64.76,121H13.25A5.23,5.23,0,0,1,8,115.79V63.22s18.43,3.89,30.33-.63c14.53-5.52,31.67-.5,31.67-.5v53.7A5.22,5.22,0,0,1,64.76,121Z" fill-rule="evenodd" fill="url(#linear-gradient)"/>
        <path d="M66.57,25.84H48.49a14.56,14.56,0,1,0-19,0H11.43A11.5,11.5,0,0,0,0,37.38v80.75a11.5,11.5,0,0,0,11.43,11.55H27v4.51a4.29,4.29,0,0,0,4.26,4.31h3.89V152h7.76V138.5h3.89A4.28,4.28,0,0,0,51,134.19v-4.51H66.57A11.5,11.5,0,0,0,78,118.13V37.38A11.5,11.5,0,0,0,66.57,25.84ZM28.74,14.7A10.27,10.27,0,1,1,39,25.07,10.32,10.32,0,0,1,28.74,14.7Zm45,103.43a7.18,7.18,0,0,1-7.14,7.21H11.43a7.18,7.18,0,0,1-7.14-7.21V37.38a7.18,7.18,0,0,1,7.14-7.21H66.57a7.18,7.18,0,0,1,7.14,7.21Z" fill="#44546a" fill-rule="evenodd"/>
      </g>
    </g>
  </g>
</svg>
