<svg xmlns="http://www.w3.org/2000/svg" width="132.13" height="150" viewBox="0 0 132.13 150">
  <g id="Layer_2" data-name="Layer 2">
    <g id="Layer_1-2" data-name="Layer 1">
      <path d="M123.24,41.51C115,21.47,101,7.54,83.88,2.29,68.47-2.45,52,.22,37.5,9.78c-20.58,13.57-19.78,32.67-12.15,46A45.87,45.87,0,0,0,37,69.11q0,11.64.07,23.27c-.67,24.34-21.6,36.15-34.6,35.23-3.17,0-3.26,3.93-.35,3.86C20.32,132,41,117,40.86,93.17c5-3.75,9.91-5.67,14.58-6.1-3.47,4.89-8.32,12-8.32,20,0,5.09,2.54,20.7,14.16,31.79C69.05,146.25,79.07,150,91.1,150c1,0,1.9,0,2.87-.07,12.41-.59,22-6.15,28.64-16.53C137.66,109.7,132.54,64,123.24,41.51ZM41,71.81a29.2,29.2,0,0,0,6.84,3,38.57,38.57,0,0,0-6.73,8.91C41,79.94,41,75.74,41,71.81Zm11.63,3.72a10.3,10.3,0,0,0,1.11,0,20.37,20.37,0,0,0,.67,7.74A29.76,29.76,0,0,0,43.5,86.66,37.48,37.48,0,0,1,52.58,75.53Zm64.54,54.4c-5.39,8.49-13.28,13-23.45,13.52-11.47.55-20.86-2.57-27.9-9.29-9.92-9.45-12.15-23-12.15-27.08,0-6.21,4.35-12.34,7.54-16.82l.62-.89a5.42,5.42,0,0,0,.82-1.76,26,26,0,0,1,11.55,6.65l-.06,8.23c0,2.7,4.18,2.68,4-.06l.21-6.81,6.3-.14c3.2,0,3.32-4.08.07-4.08l-7.16.15a28.34,28.34,0,0,0-15.5-8A5.91,5.91,0,0,0,61,82.14c-.8-.76-1.31-4.82-.17-10.16a2.28,2.28,0,0,0,0-.36,19.88,19.88,0,0,1,9.83.58L77.23,79a2,2,0,1,0,3-2.64l-4.51-5,4.59-5.08c1.87-2-1.14-4.39-3.29-2.37l-4.59,4.37a20.14,20.14,0,0,0-14.16-.19,3.79,3.79,0,0,0-.66-.11,3.06,3.06,0,0,0-1.42.34c-3.57,1.73-9,.07-14.23-3.64,2.52-6,9.2-11.5,14.5-11.42l11-.21c3,.12,2.77-4.35.07-4.16l-6.8-.14L60.76,42c.12-2.41-4.13-2.67-4.15.07l-.36,7c-7.1,0-14.48,6-17.66,12.93A38.72,38.72,0,0,1,31,52.58c-3.82-6.71-10.5-23.8,10.09-37.37C53.94,6.73,68.46,4.36,82,8.5,97.18,13.18,109.7,25.78,117.23,44,126,65.23,131,108.05,117.12,129.93Z" fill="#1d819e"/>
    </g>
  </g>
</svg>
