<svg xmlns="http://www.w3.org/2000/svg" xmlns:xlink="http://www.w3.org/1999/xlink" width="202" height="79" viewBox="0 0 202 79">
  <defs>
    <linearGradient id="linear-gradient" x1="-5479" y1="-3930.2" x2="-5277" y2="-3930.2" gradientTransform="matrix(1, 0, 0, -1, 5479, -3914.2)" gradientUnits="userSpaceOnUse">
      <stop offset="0" stop-color="#ff671d"/>
      <stop offset="0.99" stop-color="#ff671d" stop-opacity="0.5"/>
      <stop offset="1" stop-color="#ff671d" stop-opacity="0.5"/>
    </linearGradient>
    <linearGradient id="linear-gradient-2" y1="-3961.7" x2="-5277" y2="-3961.7" xlink:href="#linear-gradient"/>
    <linearGradient id="linear-gradient-3" y1="-3927.2" x2="-5277" y2="-3927.2" xlink:href="#linear-gradient"/>
    <linearGradient id="linear-gradient-4" y1="-3954.2" x2="-5277" y2="-3954.2" xlink:href="#linear-gradient"/>
    <linearGradient id="linear-gradient-5" y1="-3980.2" x2="-5277" y2="-3980.2" xlink:href="#linear-gradient"/>
    <linearGradient id="linear-gradient-6" y1="-3969.2" x2="-5277" y2="-3969.2" xlink:href="#linear-gradient"/>
    <linearGradient id="linear-gradient-7" y1="-3936.7" x2="-5277" y2="-3936.7" xlink:href="#linear-gradient"/>
    <linearGradient id="linear-gradient-8" y1="-3931.7" x2="-5277" y2="-3931.7" xlink:href="#linear-gradient"/>
    <linearGradient id="linear-gradient-9" y1="-3951.2" x2="-5277" y2="-3951.2" xlink:href="#linear-gradient"/>
    <linearGradient id="linear-gradient-10" y1="-3966.2" x2="-5277" y2="-3966.2" xlink:href="#linear-gradient"/>
    <linearGradient id="linear-gradient-11" y1="-3947.2" x2="-5277" y2="-3947.2" xlink:href="#linear-gradient"/>
    <linearGradient id="linear-gradient-12" y1="-3931.2" x2="-5277" y2="-3931.2" xlink:href="#linear-gradient"/>
    <linearGradient id="linear-gradient-13" y1="-3945.2" x2="-5277" y2="-3945.2" xlink:href="#linear-gradient"/>
    <linearGradient id="linear-gradient-14" y1="-3961.2" x2="-5277" y2="-3961.2" xlink:href="#linear-gradient"/>
    <linearGradient id="linear-gradient-15" y1="-3960.2" x2="-5277" y2="-3960.2" xlink:href="#linear-gradient"/>
    <linearGradient id="linear-gradient-16" y1="-3948.2" x2="-5277" y2="-3948.2" xlink:href="#linear-gradient"/>
    <linearGradient id="linear-gradient-17" y1="-3935.2" x2="-5277" y2="-3935.2" xlink:href="#linear-gradient"/>
    <linearGradient id="linear-gradient-18" y1="-3938.7" x2="-5277" y2="-3938.7" xlink:href="#linear-gradient"/>
    <linearGradient id="linear-gradient-19" y1="-3958.2" x2="-5277" y2="-3958.2" xlink:href="#linear-gradient"/>
    <linearGradient id="linear-gradient-20" y1="-3948.7" x2="-5277" y2="-3948.7" xlink:href="#linear-gradient"/>
    <linearGradient id="linear-gradient-21" y1="-3955.2" x2="-5277" y2="-3955.2" xlink:href="#linear-gradient"/>
    <linearGradient id="linear-gradient-22" y1="-3942.2" x2="-5277" y2="-3942.2" xlink:href="#linear-gradient"/>
    <linearGradient id="linear-gradient-23" y1="-3936.2" x2="-5277" y2="-3936.2" xlink:href="#linear-gradient"/>
    <linearGradient id="linear-gradient-24" y1="-3949.7" x2="-5277" y2="-3949.7" xlink:href="#linear-gradient"/>
    <linearGradient id="linear-gradient-27" y1="-3956.7" x2="-5277" y2="-3956.7" xlink:href="#linear-gradient"/>
    <linearGradient id="linear-gradient-29" y1="-3943.2" x2="-5277" y2="-3943.2" xlink:href="#linear-gradient"/>
    <linearGradient id="linear-gradient-31" y1="-3937.7" x2="-5277" y2="-3937.7" xlink:href="#linear-gradient"/>
    <linearGradient id="linear-gradient-32" y1="-3941.2" x2="-5277" y2="-3941.2" xlink:href="#linear-gradient"/>
    <linearGradient id="linear-gradient-33" y1="-3953.2" x2="-5277" y2="-3953.2" xlink:href="#linear-gradient"/>
    <linearGradient id="linear-gradient-35" y1="-3950.7" x2="-5277" y2="-3950.7" xlink:href="#linear-gradient"/>
    <linearGradient id="linear-gradient-36" y1="-3944.7" x2="-5277" y2="-3944.7" xlink:href="#linear-gradient"/>
    <linearGradient id="linear-gradient-37" y1="-3941.7" x2="-5277" y2="-3941.7" xlink:href="#linear-gradient"/>
    <linearGradient id="linear-gradient-39" y1="-3947.7" x2="-5277" y2="-3947.7" xlink:href="#linear-gradient"/>
    <linearGradient id="linear-gradient-42" y1="-3942.7" x2="-5277" y2="-3942.7" xlink:href="#linear-gradient"/>
  </defs>
  <g id="Layer_2" data-name="Layer 2">
    <g id="Layer_1-2" data-name="Layer 1">
      <g>
        <path d="M32,16A16,16,0,1,1,16,0,16,16,0,0,1,32,16Z" fill-rule="evenodd" fill="url(#linear-gradient)"/>
        <path d="M38,47.5A14.5,14.5,0,1,1,23.5,33,14.5,14.5,0,0,1,38,47.5Z" fill-rule="evenodd" fill="url(#linear-gradient-2)"/>
        <path d="M60,13A13,13,0,1,1,47,0,13,13,0,0,1,60,13Z" fill-rule="evenodd" fill="url(#linear-gradient-3)"/>
        <path d="M68,40a12.51,12.51,0,0,1-25,0,12.51,12.51,0,0,1,25,0Z" fill-rule="evenodd" fill="url(#linear-gradient-4)"/>
        <path d="M60,66A13.25,13.25,0,0,1,46.5,79a13,13,0,1,1,0-26A13.25,13.25,0,0,1,60,66Z" fill-rule="evenodd" fill="url(#linear-gradient-5)"/>
        <path d="M96,55A11.51,11.51,0,1,1,84.5,43,11.76,11.76,0,0,1,96,55Z" fill-rule="evenodd" fill="url(#linear-gradient-6)"/>
        <path d="M93,22.5a12,12,0,0,1-24,0,12,12,0,0,1,24,0Z" fill-rule="evenodd" fill="url(#linear-gradient-7)"/>
        <path d="M117,17.5a10,10,0,1,1-20,0,10,10,0,1,1,20,0Z" fill-rule="evenodd" fill="url(#linear-gradient-8)"/>
        <path d="M109,37A10,10,0,1,1,99,27,10,10,0,0,1,109,37Z" fill-rule="evenodd" fill="url(#linear-gradient-9)"/>
        <path d="M122,52a9,9,0,1,1-9-9A9,9,0,0,1,122,52Z" fill-rule="evenodd" fill="url(#linear-gradient-10)"/>
        <path d="M127,33a8,8,0,1,1-8-8A8,8,0,0,1,127,33Z" fill-rule="evenodd" fill="url(#linear-gradient-11)"/>
        <path d="M135,17a8,8,0,1,1-8-8A8,8,0,0,1,135,17Z" fill-rule="evenodd" fill="url(#linear-gradient-12)"/>
        <path d="M141,31a7,7,0,1,1-7-7A7,7,0,0,1,141,31Z" fill-rule="evenodd" fill="url(#linear-gradient-13)"/>
        <path d="M138,47a7,7,0,1,1-7-7A7,7,0,0,1,138,47Z" fill-rule="evenodd" fill="url(#linear-gradient-14)"/>
        <path d="M151,46a5.52,5.52,0,1,1-11,0,5.52,5.52,0,1,1,11,0Z" fill-rule="evenodd" fill="url(#linear-gradient-15)"/>
        <path d="M156,34a6,6,0,1,1-6-6A6,6,0,0,1,156,34Z" fill-rule="evenodd" fill="url(#linear-gradient-16)"/>
        <path d="M151,21a5.52,5.52,0,1,1-11,0,5.52,5.52,0,1,1,11,0Z" fill-rule="evenodd" fill="url(#linear-gradient-17)"/>
        <path d="M164,24.5a5.5,5.5,0,1,1-5.5-5.5A5.5,5.5,0,0,1,164,24.5Z" fill-rule="evenodd" fill="url(#linear-gradient-18)"/>
        <path d="M163,44a5,5,0,1,1-5-5A5,5,0,0,1,163,44Z" fill-rule="evenodd" fill="url(#linear-gradient-19)"/>
        <path d="M165,34.5a4,4,0,1,1-8,0,4,4,0,1,1,8,0Z" fill-rule="evenodd" fill="url(#linear-gradient-20)"/>
        <path d="M171,41a4,4,0,1,1-4-4A4,4,0,0,1,171,41Z" fill-rule="evenodd" fill="url(#linear-gradient-21)"/>
        <path d="M172,28a4,4,0,1,1-4-4A4,4,0,0,1,172,28Z" fill-rule="evenodd" fill="url(#linear-gradient-22)"/>
        <path d="M179,22a3.54,3.54,0,0,1-7,0,3.54,3.54,0,0,1,7,0Z" fill-rule="evenodd" fill="url(#linear-gradient-23)"/>
        <path d="M179,35.5a3.5,3.5,0,1,1-3.5-3.5A3.5,3.5,0,0,1,179,35.5Z" fill-rule="evenodd" fill="url(#linear-gradient-24)"/>
        <path d="M187,35.5a3,3,0,1,1-6,0,3,3,0,1,1,6,0Z" fill-rule="evenodd" fill="url(#linear-gradient-24)"/>
        <path d="M187,22a3,3,0,1,1-3-3A3,3,0,0,1,187,22Z" fill-rule="evenodd" fill="url(#linear-gradient-23)"/>
        <path d="M184,42.5a3.5,3.5,0,1,1-3.5-3.5A3.5,3.5,0,0,1,184,42.5Z" fill-rule="evenodd" fill="url(#linear-gradient-27)"/>
        <path d="M192,40a3,3,0,1,1-3-3A3,3,0,0,1,192,40Z" fill-rule="evenodd" fill="url(#linear-gradient-4)"/>
        <path d="M191,29a3,3,0,1,1-3-3A3,3,0,0,1,191,29Z" fill-rule="evenodd" fill="url(#linear-gradient-29)"/>
        <path d="M194,22.5a2.5,2.5,0,1,1-2.5-2.5A2.5,2.5,0,0,1,194,22.5Z" fill-rule="evenodd" fill="url(#linear-gradient-7)"/>
        <path d="M199,23.5a1.5,1.5,0,1,1-1.5-1.5A1.5,1.5,0,0,1,199,23.5Z" fill-rule="evenodd" fill="url(#linear-gradient-31)"/>
        <path d="M197,27a2,2,0,1,1-2-2A2,2,0,0,1,197,27Z" fill-rule="evenodd" fill="url(#linear-gradient-32)"/>
        <path d="M197,39a2,2,0,1,1-2-2A2,2,0,0,1,197,39Z" fill-rule="evenodd" fill="url(#linear-gradient-33)"/>
        <path d="M196,34.5a1.5,1.5,0,1,1-1.5-1.5A1.5,1.5,0,0,1,196,34.5Z" fill-rule="evenodd" fill="url(#linear-gradient-20)"/>
        <path d="M199,36.5c0,.83-.45,1.5-1,1.5s-1-.67-1-1.5.45-1.5,1-1.5S199,35.67,199,36.5Z" fill-rule="evenodd" fill="url(#linear-gradient-35)"/>
        <path d="M199,30.5a1.5,1.5,0,1,1-1.5-1.5A1.5,1.5,0,0,1,199,30.5Z" fill-rule="evenodd" fill="url(#linear-gradient-36)"/>
        <path d="M200,27.5c0,.83-.45,1.5-1,1.5s-1-.67-1-1.5.45-1.5,1-1.5S200,26.67,200,27.5Z" fill-rule="evenodd" fill="url(#linear-gradient-37)"/>
        <path d="M202,30.5a1.5,1.5,0,1,1-1.5-1.5A1.5,1.5,0,0,1,202,30.5Z" fill-rule="evenodd" fill="url(#linear-gradient-36)"/>
        <path d="M201,33.5a1.5,1.5,0,1,1-1.5-1.5A1.5,1.5,0,0,1,201,33.5Z" fill-rule="evenodd" fill="url(#linear-gradient-39)"/>
        <path d="M193,34a2,2,0,1,1-2-2A2,2,0,0,1,193,34Z" fill-rule="evenodd" fill="url(#linear-gradient-16)"/>
        <path d="M196,31a2,2,0,1,1-2-2A2,2,0,0,1,196,31Z" fill-rule="evenodd" fill="url(#linear-gradient-13)"/>
        <path d="M183,28.5a3.5,3.5,0,1,1-3.5-3.5A3.5,3.5,0,0,1,183,28.5Z" fill-rule="evenodd" fill="url(#linear-gradient-42)"/>
      </g>
    </g>
  </g>
</svg>
