<svg xmlns="http://www.w3.org/2000/svg" xmlns:xlink="http://www.w3.org/1999/xlink" width="83.85" height="162.53" viewBox="0 0 83.85 162.53">
  <defs>
    <linearGradient id="linear-gradient" x1="-4849.08" y1="-2955.39" x2="-4849.08" y2="-3021.17" gradientTransform="matrix(1, 0, 0, -1, 4891, -2892.18)" gradientUnits="userSpaceOnUse">
      <stop offset="0" stop-color="#166176" stop-opacity="0.5"/>
      <stop offset="0.01" stop-color="#166176" stop-opacity="0.5"/>
      <stop offset="1" stop-color="#166176"/>
    </linearGradient>
  </defs>
  <g id="Layer_2" data-name="Layer 2">
    <g id="Layer_1-2" data-name="Layer 1">
      <g>
        <path d="M69.25,129H14.6A5.59,5.59,0,0,1,9,123.38V66.68s19.56,4.2,32.19-.68c15.41-6,33.6-.54,33.6-.54v57.91A5.59,5.59,0,0,1,69.25,129Z" fill-rule="evenodd" fill="url(#linear-gradient)"/>
        <path d="M71.56,27.63H52.13a15.66,15.66,0,1,0-20.41,0H12.29A12.32,12.32,0,0,0,0,40v86.35a12.32,12.32,0,0,0,12.29,12.34H29v4.83a4.59,4.59,0,0,0,4.58,4.61h4.18v14.43H46.1V148.1h4.18a4.6,4.6,0,0,0,4.58-4.61v-4.83h16.7a12.32,12.32,0,0,0,12.29-12.34V40A12.32,12.32,0,0,0,71.56,27.63ZM30.89,15.72a11,11,0,1,1,11,11.09A11.07,11.07,0,0,1,30.89,15.72Zm48.34,110.6a7.69,7.69,0,0,1-7.67,7.7H12.29a7.69,7.69,0,0,1-7.67-7.7V40a7.7,7.7,0,0,1,7.67-7.71H71.56A7.7,7.7,0,0,1,79.23,40Z" fill="#44546a" fill-rule="evenodd"/>
      </g>
    </g>
  </g>
</svg>
