<svg xmlns="http://www.w3.org/2000/svg" xmlns:xlink="http://www.w3.org/1999/xlink" width="114" height="132" viewBox="0 0 114 132">
  <defs>
    <linearGradient id="linear-gradient" x1="629.19" y1="9153.18" x2="675.19" y2="9153.18" gradientTransform="matrix(1, 0, 0, -1, -572.19, 9228.68)" gradientUnits="userSpaceOnUse">
      <stop offset="0" stop-color="#410099" stop-opacity="0.5"/>
      <stop offset="0.01" stop-color="#410099" stop-opacity="0.5"/>
      <stop offset="1" stop-color="#410099"/>
    </linearGradient>
  </defs>
  <g id="Layer_2" data-name="Layer 2">
    <g id="Layer_1-2" data-name="Layer 1">
      <g>
        <path d="M65,75.5A8,8,0,1,1,57,67,8.26,8.26,0,0,1,65,75.5Z" fill="#410099" fill-rule="evenodd"/>
        <path d="M57,29V60.31a15.19,15.19,0,0,1,0,30.38V122a46.5,46.5,0,0,0,0-93Z" fill-rule="evenodd" fill="url(#linear-gradient)"/>
        <path d="M101.23,39.45,106.82,34l.94.95a3.3,3.3,0,0,0,4.65.06,3.26,3.26,0,0,0,.06-4.62l-9-9.21a3.31,3.31,0,0,0-4.65-.06,3.27,3.27,0,0,0-.06,4.63l.94.95L94.1,32.17a56.77,56.77,0,0,0-29-13.1V9.89h3.48a3.49,3.49,0,0,0,3.5-3.48V3.48A3.49,3.49,0,0,0,68.58,0H46.14a3.49,3.49,0,0,0-3.49,3.48V6.4a3.49,3.49,0,0,0,3.49,3.48h3.49V19A56.78,56.78,0,1,0,114,75.24,56.47,56.47,0,0,0,101.23,39.45ZM57,126.32a51.09,51.09,0,1,1,51.3-51.09A51.19,51.19,0,0,1,57,126.32Z" fill="#44546a" fill-rule="evenodd"/>
      </g>
    </g>
  </g>
</svg>
