<svg xmlns="http://www.w3.org/2000/svg" width="79.68" height="83.11" viewBox="0 0 79.68 83.11">
  <g id="Layer_2" data-name="Layer 2">
    <g id="Layer_1-2" data-name="Layer 1">
      <g>
        <path d="M74.23,19H5.45A5.48,5.48,0,0,0,0,24.47V58.64a5.48,5.48,0,0,0,5.45,5.52h6.13V47.94h-.23a1.72,1.72,0,0,1-1.7-1.73V43.8a1.71,1.71,0,0,1,1.7-1.73h57A1.72,1.72,0,0,1,70,43.8v2.41a1.73,1.73,0,0,1-1.71,1.73h-.22V64.16h6.13a5.48,5.48,0,0,0,5.44-5.52V24.47A5.48,5.48,0,0,0,74.23,19ZM12.09,30.4a3.28,3.28,0,1,1,3.24-3.28A3.26,3.26,0,0,1,12.09,30.4Zm9.87,0a3.28,3.28,0,1,1,3.24-3.28A3.26,3.26,0,0,1,22,30.4Z" fill="#410099" fill-rule="evenodd"/>
        <path d="M73.56,19.39H6.12A5.38,5.38,0,0,0,.78,24.81V58.3a5.38,5.38,0,0,0,5.34,5.42h6V47.81h-.22a1.68,1.68,0,0,1-1.67-1.69V43.75a1.68,1.68,0,0,1,1.67-1.69H67.77a1.68,1.68,0,0,1,1.67,1.69v2.37a1.68,1.68,0,0,1-1.67,1.69h-.22V63.72h6A5.38,5.38,0,0,0,78.9,58.3V24.81A5.38,5.38,0,0,0,73.56,19.39ZM12.63,30.62a3.22,3.22,0,1,1,3.18-3.22A3.19,3.19,0,0,1,12.63,30.62Zm9.68,0a3.22,3.22,0,1,1,3.18-3.22A3.19,3.19,0,0,1,22.31,30.62Z" fill="#410099" fill-rule="evenodd"/>
        <path d="M14.63.55h51v20.5h-51Z" fill="none" stroke="#410099" stroke-miterlimit="8" stroke-width="1.11"/>
        <path d="M14.63,44.32h51V82.55h-51Z" fill="none" stroke="#410099" stroke-miterlimit="8" stroke-width="1.11"/>
        <path d="M19.06,49.86H59.51v2.78H19.06Z" fill="#410099" fill-rule="evenodd"/>
        <path d="M19.06,56.51H59.51v2.22H19.06Z" fill="#410099" fill-rule="evenodd"/>
        <path d="M19.06,63.16H59.51v2.22H19.06Z" fill="#410099" fill-rule="evenodd"/>
        <path d="M19.06,69.26H59.51V72H19.06Z" fill="#410099" fill-rule="evenodd"/>
        <path d="M19.06,75.91H59.51v2.77H19.06Z" fill="#410099" fill-rule="evenodd"/>
      </g>
    </g>
  </g>
</svg>
