<svg xmlns="http://www.w3.org/2000/svg" width="103.53" height="83.52" viewBox="0 0 103.53 83.52">
  <g id="Layer_2" data-name="Layer 2">
    <g id="Layer_1-2" data-name="Layer 1">
      <g>
        <path d="M65.75,79.89h-28a15,15,0,0,0,5.66-7.51c.52-1.67.61-7,.61-7H59.59s.33,5.44,1,7.08A23,23,0,0,0,65.75,79.89Z" fill="#410099" stroke="#410099" stroke-miterlimit="8" stroke-width="1.04" fill-rule="evenodd"/>
        <path d="M97.93,0H5.61A5.59,5.59,0,0,0,0,5.57V61.51a5.6,5.6,0,0,0,5.61,5.58H97.93a5.59,5.59,0,0,0,5.6-5.58V5.57A5.58,5.58,0,0,0,97.93,0ZM51.77,64.89a1.62,1.62,0,1,1,1.62-1.62A1.62,1.62,0,0,1,51.77,64.89Zm50.06-5.35H1.7v-52H101.83Z" fill="#410099" fill-rule="evenodd"/>
        <path d="M97,.66H6.51A5.47,5.47,0,0,0,1,6.12V61a5.48,5.48,0,0,0,5.49,5.47H97a5.48,5.48,0,0,0,5.5-5.47V6.12A5.48,5.48,0,0,0,97,.66ZM51.77,64.28a1.59,1.59,0,1,1,1.59-1.59A1.59,1.59,0,0,1,51.77,64.28ZM100.85,59H2.68v-51h98.17Z" fill="#410099" fill-rule="evenodd"/>
        <path d="M29.5,83H74V80.41a2.59,2.59,0,0,0-2.59-2.59H32.09a2.59,2.59,0,0,0-2.59,2.59Z" fill="#410099" stroke="#410099" stroke-miterlimit="8" stroke-width="1.04" fill-rule="evenodd"/>
      </g>
    </g>
  </g>
</svg>
