<svg xmlns="http://www.w3.org/2000/svg" width="43.04" height="84" viewBox="0 0 43.04 84">
  <g id="Layer_2" data-name="Layer 2">
    <g id="Layer_1-2" data-name="Layer 1">
      <g>
        <path d="M35.62,0H7.42A7.41,7.41,0,0,0,0,7.4V76.6A7.41,7.41,0,0,0,7.42,84h28.2A7.41,7.41,0,0,0,43,76.6V7.4A7.41,7.41,0,0,0,35.62,0ZM17.48,5.46h8.08a1,1,0,1,1,0,2.05H17.48a1,1,0,1,1,0-2Zm4,77.08A3.43,3.43,0,1,1,25,79.12,3.43,3.43,0,0,1,21.52,82.54ZM41,73.45H2.06V11.18H41Z" fill="#410099"/>
        <path d="M35.35.82H7.69A7.27,7.27,0,0,0,.42,8.08V75.92a7.27,7.27,0,0,0,7.27,7.26H35.34a7.27,7.27,0,0,0,7.28-7.26V8.08A7.27,7.27,0,0,0,35.35.82ZM17.56,6.18h7.93a1,1,0,0,1,0,2H17.56a1,1,0,1,1,0-2Zm4,75.56a3.36,3.36,0,1,1,3.37-3.35A3.36,3.36,0,0,1,21.52,81.74ZM40.6,72.83H2.44v-61H40.6Z" fill="#410099"/>
      </g>
    </g>
  </g>
</svg>
